<?xml version="1.0" encoding="UTF-8"?>
<svg version="1.1" xmlns="http://www.w3.org/2000/svg" width="224" height="192">
<path d="M0 0 C2.15718301 0.67255424 2.15718301 0.67255424 5.0234375 0.54296875 C5.0234375 1.20296875 5.0234375 1.86296875 5.0234375 2.54296875 C6.0134375 2.21296875 7.0034375 1.88296875 8.0234375 1.54296875 C10.6875 2.6875 10.6875 2.6875 13.6484375 4.35546875 C15.12183594 5.16951172 15.12183594 5.16951172 16.625 6 C19.0234375 7.54296875 19.0234375 7.54296875 20.0234375 9.54296875 C20.8278125 9.97609375 21.6321875 10.40921875 22.4609375 10.85546875 C25.43778697 12.81583304 26.02648791 14.18959286 27.0234375 17.54296875 C27.6834375 17.54296875 28.3434375 17.54296875 29.0234375 17.54296875 C35.89006161 28.04646097 38.53452378 40.08608709 36.5546875 52.4765625 C35.00003548 59.74085913 32.24000902 65.45986157 28.0234375 71.54296875 C27.4046875 72.45046875 26.7859375 73.35796875 26.1484375 74.29296875 C18.67563586 82.20534695 8.25632698 88.08000311 -2.69921875 88.78125 C-15.20847597 89.10029741 -24.62227815 86.88121156 -34.9765625 79.54296875 C-35.8428125 78.94484375 -36.7090625 78.34671875 -37.6015625 77.73046875 C-46.29622144 69.72223026 -51.1663374 58.92288239 -52.1796875 47.19140625 C-52.40393595 36.3153566 -49.24748406 26.95979304 -43.9765625 17.54296875 C-43.3165625 17.54296875 -42.6565625 17.54296875 -41.9765625 17.54296875 C-41.9146875 16.96546875 -41.8528125 16.38796875 -41.7890625 15.79296875 C-39.65937635 9.89537633 -31.04793803 5.85242277 -25.6015625 3.23046875 C-17.10417888 -0.15936407 -8.99754399 -2.46610425 0 0 Z M-16.9765625 13.54296875 C-16.9765625 20.47296875 -16.9765625 27.40296875 -16.9765625 34.54296875 C-23.9065625 34.54296875 -30.8365625 34.54296875 -37.9765625 34.54296875 C-37.9765625 35.20296875 -37.9765625 35.86296875 -37.9765625 36.54296875 C-38.6365625 36.54296875 -39.2965625 36.54296875 -39.9765625 36.54296875 C-40.0575348 38.9811346 -40.11703222 41.41661259 -40.1640625 43.85546875 C-40.18919922 44.54576172 -40.21433594 45.23605469 -40.24023438 45.94726562 C-40.35927781 49.83339982 -40.35927781 49.83339982 -38.75 53.24804688 C-36.45718893 54.92220298 -35.12831976 54.88981761 -32.30859375 54.8359375 C-30.96958008 54.82143555 -30.96958008 54.82143555 -29.60351562 54.80664062 C-28.21036133 54.76893555 -28.21036133 54.76893555 -26.7890625 54.73046875 C-25.37850586 54.71016602 -25.37850586 54.71016602 -23.93945312 54.68945312 C-21.61791212 54.65409971 -19.29752597 54.60475549 -16.9765625 54.54296875 C-16.98179932 55.17388428 -16.98703613 55.8047998 -16.99243164 56.45483398 C-17.01314076 59.29670222 -17.02620316 62.13855463 -17.0390625 64.98046875 C-17.04744141 65.97369141 -17.05582031 66.96691406 -17.06445312 67.99023438 C-17.06767578 68.93447266 -17.07089844 69.87871094 -17.07421875 70.8515625 C-17.07945557 71.72611084 -17.08469238 72.60065918 -17.09008789 73.50170898 C-17.20441059 75.53737081 -17.20441059 75.53737081 -15.9765625 76.54296875 C-13.32002807 76.6429933 -10.69526978 76.68174338 -8.0390625 76.66796875 C-7.29720703 76.67183594 -6.55535156 76.67570312 -5.79101562 76.6796875 C-1.75333372 76.76036543 -1.75333372 76.76036543 2.0234375 75.54296875 C2.0234375 68.61296875 2.0234375 61.68296875 2.0234375 54.54296875 C11.8359375 54.73046875 11.8359375 54.73046875 14.91723633 54.81323242 C15.72185303 54.8207251 16.52646973 54.82821777 17.35546875 54.8359375 C18.58873901 54.85950317 18.58873901 54.85950317 19.84692383 54.88354492 C22.08893803 54.70376224 22.08893803 54.70376224 23.79248047 53.24365234 C25.82177625 50.43998824 25.41452327 47.30307502 25.3359375 43.98046875 C25.34077148 42.95276367 25.34077148 42.95276367 25.34570312 41.90429688 C25.40322136 37.76741824 25.40322136 37.76741824 23.0234375 34.54296875 C20.79308453 34.2655563 20.79308453 34.2655563 18.234375 34.34765625 C17.29335937 34.35410156 16.35234375 34.36054687 15.3828125 34.3671875 C14.39796875 34.38394531 13.413125 34.40070313 12.3984375 34.41796875 C11.40585938 34.42699219 10.41328125 34.43601562 9.390625 34.4453125 C6.93465616 34.46892759 4.47916582 34.50186076 2.0234375 34.54296875 C2.04700317 33.60445068 2.04700317 33.60445068 2.07104492 32.64697266 C2.13328425 29.82072944 2.17239212 26.99463014 2.2109375 24.16796875 C2.23607422 23.183125 2.26121094 22.19828125 2.28710938 21.18359375 C2.30161133 19.77207031 2.30161133 19.77207031 2.31640625 18.33203125 C2.33997192 17.02806396 2.33997192 17.02806396 2.36401367 15.69775391 C2.25162354 14.9866748 2.1392334 14.2755957 2.0234375 13.54296875 C-1.42740245 11.24240878 -2.84831978 11.27286619 -6.9140625 11.29296875 C-8.47447266 11.28523438 -8.47447266 11.28523438 -10.06640625 11.27734375 C-13.28320908 11.39290768 -13.28320908 11.39290768 -16.9765625 13.54296875 Z " fill="#FDDC06" transform="translate(171.9765625,88.45703125)"/>
<path d="M0 0 C1.17820312 0.58265625 2.35640625 1.1653125 3.5703125 1.765625 C8.33216999 4.62499096 11.69707573 8.23400236 14.875 12.75 C18.19440087 11.29869245 20.40275203 9.44370053 23 6.9375 C32.0409272 -1.22897686 42.29113489 -4.70866891 54.38671875 -4.4453125 C62.52860242 -3.80623215 69.73577629 -1.14412202 76.875 2.75 C77.205 3.41 77.535 4.07 77.875 4.75 C78.638125 5.183125 79.40125 5.61625 80.1875 6.0625 C83.1801187 7.94158616 84.87236077 9.85729889 86.875 12.75 C86.875 13.41 86.875 14.07 86.875 14.75 C87.535 14.75 88.195 14.75 88.875 14.75 C88.875 15.74 88.875 16.73 88.875 17.75 C89.535 17.75 90.195 17.75 90.875 17.75 C91.86111151 20.28916175 92.83900876 22.8310023 93.8125 25.375 C94.09029297 26.08785156 94.36808594 26.80070312 94.65429688 27.53515625 C96.96804687 33.61223454 98.017216 39.08828787 97.9375 45.625 C97.92847656 46.59179688 97.91945312 47.55859375 97.91015625 48.5546875 C97.89275391 49.64136719 97.89275391 49.64136719 97.875 50.75 C97.08738281 50.5334375 96.29976562 50.316875 95.48828125 50.09375 C81.45421427 46.50634353 67.69422457 46.15895839 54.75 53.4375 C54.04617187 53.87449219 53.34234375 54.31148437 52.6171875 54.76171875 C50.875 55.75 50.875 55.75 48.875 55.75 C48.875 56.41 48.875 57.07 48.875 57.75 C48.05 58.224375 47.225 58.69875 46.375 59.1875 C39.56698259 63.48303479 35.13755557 71.22853149 32.875 78.75 C32.59398438 79.38421875 32.31296875 80.0184375 32.0234375 80.671875 C27.59430972 91.14072249 28.62360362 104.73878494 32.65234375 115.12109375 C34.23621808 118.52667658 35.97053398 121.79867938 37.921875 125.0078125 C38.875 126.75 38.875 126.75 38.875 128.75 C35.70483156 130.63504991 32.51162093 132.4770854 29.3125 134.3125 C27.96961914 135.11204102 27.96961914 135.11204102 26.59960938 135.92773438 C22.62579912 138.18392701 19.86330616 139.72555802 15.2421875 139.83984375 C11.11302448 138.50337451 7.39093317 136.77953084 3.5625 134.75 C2.84771484 134.38132813 2.13292969 134.01265625 1.39648438 133.6328125 C-0.44824158 132.68002285 -2.28705513 131.71580568 -4.125 130.75 C-4.785 130.42 -5.445 130.09 -6.125 129.75 C-6.125 129.09 -6.125 128.43 -6.125 127.75 C-7.115 127.75 -8.105 127.75 -9.125 127.75 C-9.125 127.09 -9.125 126.43 -9.125 125.75 C-10.115 125.75 -11.105 125.75 -12.125 125.75 C-13.81262851 124.1045622 -15.4790349 122.43711423 -17.125 120.75 C-18.115 120.42 -19.105 120.09 -20.125 119.75 C-21.3011863 118.60741902 -22.47193223 117.45834275 -23.60546875 116.2734375 C-25.3708989 114.50346897 -27.2320732 112.88269393 -29.125 111.25 C-32.25963257 108.53214442 -35.2280302 105.72320585 -38.125 102.75 C-38.66511719 102.24339844 -39.20523438 101.73679687 -39.76171875 101.21484375 C-41.27137005 99.78261047 -42.70395504 98.27018763 -44.125 96.75 C-44.125 95.76 -44.125 94.77 -44.125 93.75 C-44.7025 93.54375 -45.28 93.3375 -45.875 93.125 C-48.96977636 91.23374778 -50.3168763 88.84964063 -52.125 85.75 C-52.125 85.09 -52.125 84.43 -52.125 83.75 C-52.785 83.75 -53.445 83.75 -54.125 83.75 C-54.125 82.76 -54.125 81.77 -54.125 80.75 C-54.785 80.75 -55.445 80.75 -56.125 80.75 C-56.125 79.76 -56.125 78.77 -56.125 77.75 C-56.785 77.75 -57.445 77.75 -58.125 77.75 C-58.79854499 76.31570999 -59.46359701 74.87742943 -60.125 73.4375 C-60.681875 72.23673828 -60.681875 72.23673828 -61.25 71.01171875 C-62.125 68.75 -62.125 68.75 -62.125 65.75 C-62.785 65.75 -63.445 65.75 -64.125 65.75 C-67.00087612 53.86133354 -68.28639271 40.12119332 -63.125 28.75 C-62.22873157 26.56267823 -61.33291837 24.37516989 -60.4375 22.1875 C-59.66984187 20.37365291 -58.90012547 18.5606686 -58.125 16.75 C-57.465 16.75 -56.805 16.75 -56.125 16.75 C-55.7846875 15.65171875 -55.7846875 15.65171875 -55.4375 14.53125 C-51.6161236 6.43357144 -41.22709769 0.89055253 -33.125 -2.25 C-22.13243456 -5.8386382 -10.30465317 -5.20894556 0 0 Z M-46.46875 12.90625 C-56.8490658 24.46169589 -59.975789 37.20621234 -59.44140625 52.3203125 C-59.1386155 57.5057397 -58.28889258 62.00608165 -56.125 66.75 C-55.76921875 67.56726563 -55.4134375 68.38453125 -55.046875 69.2265625 C-41.81055473 96.25736113 -14.46007845 118.35724631 11.875 131.75 C12.7103125 132.22953125 13.545625 132.7090625 14.40625 133.203125 C18.15114379 134.03269008 20.57688267 132.26148364 23.6875 130.375 C24.28498047 130.03210938 24.88246094 129.68921875 25.49804688 129.3359375 C26.96646477 128.49012879 28.42208672 127.62217342 29.875 126.75 C29.26297831 123.17987349 28.29029186 120.08009848 26.875 116.75 C25.45970814 113.41990152 24.48702169 110.32012651 23.875 106.75 C23.215 106.75 22.555 106.75 21.875 106.75 C22.205 106.09 22.535 105.43 22.875 104.75 C22.89542622 102.95832865 22.86655821 101.16597213 22.8125 99.375 C22.74457769 85.14527619 26.04047099 72.54161321 35.421875 61.58984375 C37.07810156 59.7070931 37.07810156 59.7070931 37.875 56.75 C39.64453125 55.7734375 39.64453125 55.7734375 41.875 54.75 C43.45142476 53.6445968 45.01297537 52.51780561 46.5625 51.375 C57.25983864 43.81931735 67.41488251 41.40389563 80.375 41.625 C81.38820312 41.63402344 82.40140625 41.64304688 83.4453125 41.65234375 C85.92212801 41.67570993 88.39843379 41.70846832 90.875 41.75 C90.06592051 32.33537262 87.51838956 25.44553122 81.875 17.75 C81.194375 16.780625 80.51375 15.81125 79.8125 14.8125 C73.27955518 7.12310221 63.25426823 2.68557967 53.359375 1.7890625 C45.01283076 1.65782753 36.76401378 3.97305012 29.875 8.75 C29.545 9.74 29.215 10.73 28.875 11.75 C27.54166667 12.08333333 26.20833333 12.41666667 24.875 12.75 C23.33064211 14.28448429 23.33064211 14.28448429 22.125 16.1875 C21.69703125 16.80496094 21.2690625 17.42242187 20.828125 18.05859375 C19.71135674 19.71682153 19.71135674 19.71682153 19.875 21.75 C19.215 21.75 18.555 21.75 17.875 21.75 C17.545 23.07 17.215 24.39 16.875 25.75 C16.215 25.75 15.555 25.75 14.875 25.75 C14.7615625 25.16863281 14.648125 24.58726563 14.53125 23.98828125 C12.31488444 16.42889157 5.27100053 10.81455517 -1.125 6.75 C-16.41098476 -1.18140719 -33.6849313 1.0872478 -46.46875 12.90625 Z " fill="#F5DA3F" transform="translate(86.125,36.25)"/>
<path d="M0 0 C2.15718301 0.67255424 2.15718301 0.67255424 5.0234375 0.54296875 C5.0234375 1.20296875 5.0234375 1.86296875 5.0234375 2.54296875 C6.0134375 2.21296875 7.0034375 1.88296875 8.0234375 1.54296875 C10.6875 2.6875 10.6875 2.6875 13.6484375 4.35546875 C15.12183594 5.16951172 15.12183594 5.16951172 16.625 6 C19.0234375 7.54296875 19.0234375 7.54296875 20.0234375 9.54296875 C21.67164994 10.57310152 23.33847452 11.57411503 25.0234375 12.54296875 C26.0234375 13.54296875 26.0234375 13.54296875 26.0859375 16.60546875 C26.0653125 17.57484375 26.0446875 18.54421875 26.0234375 19.54296875 C27.5084375 20.03796875 27.5084375 20.03796875 29.0234375 20.54296875 C30.1484375 26.29296875 30.1484375 26.29296875 29.0234375 28.54296875 C28.3634375 28.54296875 27.7034375 28.54296875 27.0234375 28.54296875 C26.6934375 29.86296875 26.3634375 31.18296875 26.0234375 32.54296875 C25.6934375 30.89296875 25.3634375 29.24296875 25.0234375 27.54296875 C23.5384375 28.03796875 23.5384375 28.03796875 22.0234375 28.54296875 C22.5184375 30.52296875 22.5184375 30.52296875 23.0234375 32.54296875 C16.4234375 32.54296875 9.8234375 32.54296875 3.0234375 32.54296875 C3.0234375 26.27296875 3.0234375 20.00296875 3.0234375 13.54296875 C-1.7144153 11.64782763 -4.19984999 11.27204478 -9.1640625 11.29296875 C-10.39511719 11.2878125 -11.62617188 11.28265625 -12.89453125 11.27734375 C-16.0816586 11.21887937 -16.0816586 11.21887937 -17.9765625 13.54296875 C-18.23182373 16.39725336 -18.39674534 19.18363646 -18.4765625 22.04296875 C-18.70629223 30.27269848 -18.70629223 30.27269848 -20.9765625 32.54296875 C-22.85595703 32.86181641 -22.85595703 32.86181641 -25.109375 32.95703125 C-26.31787109 33.01503906 -26.31787109 33.01503906 -27.55078125 33.07421875 C-28.81341797 33.120625 -28.81341797 33.120625 -30.1015625 33.16796875 C-31.37580078 33.22597656 -31.37580078 33.22597656 -32.67578125 33.28515625 C-34.77567934 33.37953369 -36.87609141 33.46234461 -38.9765625 33.54296875 C-40.75469695 37.09923765 -40.30514018 41.48249845 -40.40625 45.42578125 C-40.61508124 50.10708166 -41.36410531 53.50666048 -43.9765625 57.54296875 C-45.4615625 58.03796875 -45.4615625 58.03796875 -46.9765625 58.54296875 C-47.6365625 58.21296875 -48.2965625 57.88296875 -48.9765625 57.54296875 C-49.27191756 55.57393504 -49.55828337 53.60213299 -49.7578125 51.62109375 C-50.01015561 49.22383417 -50.46168856 46.89667818 -50.9765625 44.54296875 C-48.6665625 44.87296875 -46.3565625 45.20296875 -43.9765625 45.54296875 C-43.9765625 44.22296875 -43.9765625 42.90296875 -43.9765625 41.54296875 C-44.6365625 41.54296875 -45.2965625 41.54296875 -45.9765625 41.54296875 C-45.9765625 42.20296875 -45.9765625 42.86296875 -45.9765625 43.54296875 C-47.2965625 42.88296875 -48.6165625 42.22296875 -49.9765625 41.54296875 C-49.3165625 39.23296875 -48.6565625 36.92296875 -47.9765625 34.54296875 C-46.9865625 34.87296875 -45.9965625 35.20296875 -44.9765625 35.54296875 C-42.93104208 33.49744833 -43.21598523 30.27238789 -42.9765625 27.54296875 C-43.6365625 26.88296875 -44.2965625 26.22296875 -44.9765625 25.54296875 C-44.9765625 24.55296875 -44.9765625 23.56296875 -44.9765625 22.54296875 C-44.3165625 22.54296875 -43.6565625 22.54296875 -42.9765625 22.54296875 C-42.9765625 21.22296875 -42.9765625 19.90296875 -42.9765625 18.54296875 C-42.3165625 18.54296875 -41.6565625 18.54296875 -40.9765625 18.54296875 C-40.904375 17.62773438 -40.8321875 16.7125 -40.7578125 15.76953125 C-39.57870616 10.89982205 -36.76908045 9.74795906 -32.71484375 7.14453125 C-22.7746267 1.33070958 -11.5069963 -3.15391095 0 0 Z M-44.9765625 50.54296875 C-45.9665625 51.20296875 -46.9565625 51.86296875 -47.9765625 52.54296875 C-47.9765625 53.53296875 -47.9765625 54.52296875 -47.9765625 55.54296875 C-46.00119505 55.19510167 -46.00119505 55.19510167 -43.9765625 54.54296875 C-43.6465625 53.88296875 -43.3165625 53.22296875 -42.9765625 52.54296875 C-43.6365625 51.88296875 -44.2965625 51.22296875 -44.9765625 50.54296875 Z " fill="#FDDC06" transform="translate(171.9765625,88.45703125)"/>
<path d="M0 0 C2.64 0 5.28 0 8 0 C8.33 6.93 8.66 13.86 9 21 C7 20 5 19 3 18 C3 18.99 3 19.98 3 21 C3.66 21 4.32 21 5 21 C5 21.66 5 22.32 5 23 C5.598125 22.814375 6.19625 22.62875 6.8125 22.4375 C9 22 9 22 12 23 C12.33 22.67 12.66 22.34 13 22 C15.30993382 21.87442838 17.62418536 21.82424271 19.9375 21.8125 C21.20464844 21.79832031 22.47179687 21.78414062 23.77734375 21.76953125 C28.27965891 22.091515 29.899088 24.899088 33 28 C29.82311393 30.11792405 29.00195463 30.25559824 25.359375 30.265625 C24.45316406 30.26820313 23.54695313 30.27078125 22.61328125 30.2734375 C21.66839844 30.26570313 20.72351563 30.25796875 19.75 30.25 C18.82058594 30.25773437 17.89117187 30.26546875 16.93359375 30.2734375 C11.56415777 30.25824815 7.07635428 29.76690784 2 28 C2 27.34 2 26.68 2 26 C1.34 25.67 0.68 25.34 0 25 C0.33 23.68 0.66 22.36 1 21 C-0.32 20.34 -1.64 19.68 -3 19 C-2.505 17.515 -2.505 17.515 -2 16 C-1.01 16.33 -0.02 16.66 1 17 C0.67 16.01 0.34 15.02 0 14 C-0.06970052 11.60509014 -0.08448003 9.20832309 -0.0625 6.8125 C-0.05347656 5.54019531 -0.04445312 4.26789063 -0.03515625 2.95703125 C-0.02355469 1.98121094 -0.01195312 1.00539062 0 0 Z " fill="#FDDC04" transform="translate(145,145)"/>
<path d="M0 0 C0.33 0 0.66 0 1 0 C1 6.27 1 12.54 1 19 C7.27 18.67 13.54 18.34 20 18 C20 17.01 20 16.02 20 15 C21.32 14.34 22.64 13.68 24 13 C24.33 13.66 24.66 14.32 25 15 C25.33 14.34 25.66 13.68 26 13 C26.66 13 27.32 13 28 13 C27.67 11.02 27.34 9.04 27 7 C25.68 6.67 24.36 6.34 23 6 C23.66 4.68 24.32 3.36 25 2 C25 2.66 25 3.32 25 4 C25.66 4 26.32 4 27 4 C33.84912998 14.47673242 36.70861159 26.74792638 34.42578125 39.109375 C33.2282876 44.30485008 31.92602854 48.50030905 29 53 C27.75453595 50.50907189 28.2232422 49.58919267 29 47 C29.66 47 30.32 47 31 47 C30.979375 46.195625 30.95875 45.39125 30.9375 44.5625 C31 42 31 42 32 41 C32.15655027 39.51361008 32.25066943 38.02050873 32.31640625 36.52734375 C32.37924805 35.17866211 32.37924805 35.17866211 32.44335938 33.80273438 C32.48267578 32.85720703 32.52199219 31.91167969 32.5625 30.9375 C32.62727539 29.5134082 32.62727539 29.5134082 32.69335938 28.06054688 C32.79979276 25.70718647 32.90181008 23.35371646 33 21 C32.608125 21.495 32.21625 21.99 31.8125 22.5 C30 24 30 24 25 24 C25 28.95 25 33.9 25 39 C26.32 39.33 27.64 39.66 29 40 C29 41.98 29 43.96 29 46 C28.01 46 27.02 46 26 46 C26 44.68 26 43.36 26 42 C24.35 41.67 22.7 41.34 21 41 C21 41.66 21 42.32 21 43 C14.4 43 7.8 43 1 43 C1 49.27 1 55.54 1 62 C0.67 62 0.34 62 0 62 C0 55.07 0 48.14 0 41 C7.26 40.67 14.52 40.34 22 40 C22.020625 37.215625 22.04125 34.43125 22.0625 31.5625 C22.071604 30.68408447 22.08070801 29.80566895 22.09008789 28.90063477 C22.09723091 26.93354026 22.05031893 24.96646379 22 23 C20.38219843 21.38219843 18.54364482 21.77727853 16.30859375 21.68359375 C15.45837646 21.64548584 14.60815918 21.60737793 13.73217773 21.56811523 C12.64493408 21.52501221 11.55769043 21.48190918 10.4375 21.4375 C6.993125 21.293125 3.54875 21.14875 0 21 C0 14.07 0 7.14 0 0 Z " fill="#F5DB42" transform="translate(174,102)"/>
<path d="M0 0 C0.33 1.32 0.66 2.64 1 4 C1.66 4 2.32 4 3 4 C3.33 3.01 3.66 2.02 4 1 C4.66 1 5.32 1 6 1 C6.05849554 4.20825562 6.09376162 7.41637233 6.125 10.625 C6.14175781 11.52863281 6.15851563 12.43226563 6.17578125 13.36328125 C6.21201643 18.32750152 5.96444146 22.34411907 4 27 C3.34 27 2.68 27 2 27 C2 27.99 2 28.98 2 30 C1.01 30 0.02 30 -1 30 C-1 30.66 -1 31.32 -1 32 C-1.66 32 -2.32 32 -3 32 C-3 31.34 -3 30.68 -3 30 C-3.66 30 -4.32 30 -5 30 C-7 27 -7 27 -6.625 23.8125 C-6.41875 22.884375 -6.2125 21.95625 -6 21 C-4.35 21.33 -2.7 21.66 -1 22 C-1 23.32 -1 24.64 -1 26 C-0.34 25.67 0.32 25.34 1 25 C1.65555119 22.47266765 1.65555119 22.47266765 2 20 C0.35 19.67 -1.3 19.34 -3 19 C-2.67 14.05 -2.34 9.1 -2 4 C-1.34 4 -0.68 4 0 4 C0 2.68 0 1.36 0 0 Z " fill="#FDDC09" transform="translate(201,122)"/>
<path d="M0 0 C2.15718301 0.67255424 2.15718301 0.67255424 5.0234375 0.54296875 C5.0234375 1.20296875 5.0234375 1.86296875 5.0234375 2.54296875 C6.0134375 2.21296875 7.0034375 1.88296875 8.0234375 1.54296875 C10.6875 2.6875 10.6875 2.6875 13.6484375 4.35546875 C14.63070312 4.89816406 15.61296875 5.44085938 16.625 6 C19.0234375 7.54296875 19.0234375 7.54296875 20.0234375 9.54296875 C21.291875 10.25453125 21.291875 10.25453125 22.5859375 10.98046875 C23.3903125 11.49609375 24.1946875 12.01171875 25.0234375 12.54296875 C25.0234375 13.53296875 25.0234375 14.52296875 25.0234375 15.54296875 C24.28738281 14.98867187 23.55132812 14.434375 22.79296875 13.86328125 C21.81714844 13.13882813 20.84132812 12.414375 19.8359375 11.66796875 C18.87300781 10.94867188 17.91007812 10.229375 16.91796875 9.48828125 C13.00488787 6.85843742 10.50805074 5.34311697 5.7734375 5.98046875 C4.8659375 6.16609375 3.9584375 6.35171875 3.0234375 6.54296875 C2.5284375 6.04796875 2.5284375 6.04796875 2.0234375 5.54296875 C-0.30951025 5.50055152 -2.64358817 5.50203938 -4.9765625 5.54296875 C-5.6365625 5.54296875 -6.2965625 5.54296875 -6.9765625 5.54296875 C-8.65401932 6.18199992 -10.32217637 6.84638512 -11.9765625 7.54296875 C-12.9665625 6.22296875 -13.9565625 4.90296875 -14.9765625 3.54296875 C-13.3265625 3.54296875 -11.6765625 3.54296875 -9.9765625 3.54296875 C-9.9765625 3.21296875 -9.9765625 2.88296875 -9.9765625 2.54296875 C-12.9465625 2.54296875 -15.9165625 2.54296875 -18.9765625 2.54296875 C-19.6365625 4.19296875 -20.2965625 5.84296875 -20.9765625 7.54296875 C-23.9465625 7.04796875 -23.9465625 7.04796875 -26.9765625 6.54296875 C-27.3065625 8.19296875 -27.6365625 9.84296875 -27.9765625 11.54296875 C-28.5746875 11.19234375 -29.1728125 10.84171875 -29.7890625 10.48046875 C-32.08469464 9.20992177 -32.08469464 9.20992177 -34.9765625 10.54296875 C-35.3065625 11.53296875 -35.6365625 12.52296875 -35.9765625 13.54296875 C-36.6365625 12.88296875 -37.2965625 12.22296875 -37.9765625 11.54296875 C-27.45103022 2.93899141 -13.78056108 -3.77706408 0 0 Z " fill="#F3DD52" transform="translate(171.9765625,88.45703125)"/>
<path d="M0 0 C0.33 0.99 0.66 1.98 1 3 C1.66 3 2.32 3 3 3 C2.98952637 3.65484375 2.97905273 4.3096875 2.96826172 4.984375 C2.92634641 7.98954332 2.90056191 10.99464984 2.875 14 C2.85824219 15.02996094 2.84148438 16.05992188 2.82421875 17.12109375 C2.78576277 23.15868203 3.35619577 28.20138349 5 34 C5 35.32 5 36.64 5 38 C5.66 38 6.32 38 7 38 C7 39.65 7 41.3 7 43 C5.68 43 4.36 43 3 43 C0 37.375 0 37.375 0 34 C-0.66 34 -1.32 34 -2 34 C-3.28794907 28.4501331 -2.94632535 23.21765662 -2.6875 17.5625 C-2.65205078 16.53833984 -2.61660156 15.51417969 -2.58007812 14.45898438 C-2.35665254 9.30685712 -2.02555996 4.82000593 0 0 Z " fill="#F9DB32" transform="translate(24,68)"/>
<path d="M0 0 C2.40271642 1.04873283 4.79627559 2.11311731 7.1875 3.1875 C7.86103516 3.47947266 8.53457031 3.77144531 9.22851562 4.07226562 C14.19087798 6.32348367 18.46995272 8.93990544 21 14 C20.01 14 19.02 14 18 14 C18 13.34 18 12.68 18 12 C17.34 12.66 16.68 13.32 16 14 C16.76713644 15.10673834 17.53889003 16.21027694 18.3125 17.3125 C18.74175781 17.92738281 19.17101562 18.54226562 19.61328125 19.17578125 C20.98381853 20.97871338 22.26044968 22.54664819 24 24 C24.99 24 25.98 24 27 24 C26.67 22.35 26.34 20.7 26 19 C26.639375 18.896875 27.27875 18.79375 27.9375 18.6875 C28.618125 18.460625 29.29875 18.23375 30 18 C30.495 16.515 30.495 16.515 31 15 C31.99 14.67 32.98 14.34 34 14 C34.33 13.34 34.66 12.68 35 12 C35.99 12.33 36.98 12.66 38 13 C36.625 14.5 36.625 14.5 35 16 C34.34 16 33.68 16 33 16 C32.731875 16.7425 32.46375 17.485 32.1875 18.25 C31.04723249 20.89061949 29.90619694 22.85552844 28 25 C27.34 25 26.68 25 26 25 C25.67 26.32 25.34 27.64 25 29 C24.34 29 23.68 29 23 29 C22.731875 28.43152344 22.46375 27.86304687 22.1875 27.27734375 C17.33108959 17.70829825 10.07350829 11.71587626 0 8 C-6.65073881 6.35020433 -13.16613341 5.73715898 -20 6 C-20 5.67 -20 5.34 -20 5 C-10.0132838 2.89753343 -1.35283215 3.77812849 8 8 C8.33 8.66 8.66 9.32 9 10 C9.99 9.67 10.98 9.34 12 9 C9.8614515 6.8614515 8.86724686 6.57344937 6 6 C6 5.34 6 4.68 6 4 C3.525 3.505 3.525 3.505 1 3 C0.67 2.01 0.34 1.02 0 0 Z " fill="#F3DA57" transform="translate(78,33)"/>
<path d="M0 0 C8.97078065 3.48863692 17.76648871 8.51978645 24 16 C24 16.99 24 17.98 24 19 C22.56163249 18.88541307 21.12429034 18.75790884 19.6875 18.625 C18.88699219 18.55539063 18.08648437 18.48578125 17.26171875 18.4140625 C15 18 15 18 12 16 C12 15.34 12 14.68 12 14 C11.01 14 10.02 14 9 14 C9 13.34 9 12.68 9 12 C8.01 12 7.02 12 6 12 C3.8125 10.1875 3.8125 10.1875 2 8 C2 7.01 2 6.02 2 5 C1.01 5 0.02 5 -1 5 C-0.67 3.35 -0.34 1.7 0 0 Z " fill="#F5DB4A" transform="translate(68,150)"/>
<path d="M0 0 C0.33 0.66 0.66 1.32 1 2 C0.67 2.99 0.34 3.98 0 5 C-0.66 5 -1.32 5 -2 5 C-2 6.32 -2 7.64 -2 9 C-2.66 9 -3.32 9 -4 9 C-3.2265625 9.928125 -3.2265625 9.928125 -2.4375 10.875 C-0.36473521 15.38101042 -1.22741873 19.20627283 -2 24 C-2.99 23.67 -3.98 23.34 -5 23 C-5.33 23 -5.66 23 -6 23 C-6.99 25.475 -6.99 25.475 -8 28 C-7.01 28.66 -6.02 29.32 -5 30 C-5 29.34 -5 28.68 -5 28 C-4.34 28 -3.68 28 -3 28 C-3 29.32 -3 30.64 -3 32 C-4.65614657 32.38218767 -6.32457024 32.71395102 -8 33 C-8.33 32.67 -8.66 32.34 -9 32 C-8.835 32.495 -8.67 32.99 -8.5 33.5 C-7.79311182 37.03444089 -7.93994845 40.39690701 -8 44 C-7.01 44.33 -6.02 44.66 -5 45 C-4.67 47.97 -4.34 50.94 -4 54 C-10.07062865 47.06213868 -11.33528356 37.68598378 -11.21484375 28.7734375 C-10.51461191 19.734081 -7.39121096 11.84516741 -3 4 C-2.34 4 -1.68 4 -1 4 C-0.67 2.68 -0.34 1.36 0 0 Z " fill="#FBDB24" transform="translate(131,102)"/>
<path d="M0 0 C0.66 0.33 1.32 0.66 2 1 C1.01 3.31 0.02 5.62 -1 8 C-1.66 8 -2.32 8 -3 8 C-3 8.99 -3 9.98 -3 11 C-3.66 11 -4.32 11 -5 11 C-4.7215625 11.928125 -4.7215625 11.928125 -4.4375 12.875 C-4 15 -4 15 -5 17 C-4.34 17.33 -3.68 17.66 -3 18 C-2.87625 17.195625 -2.7525 16.39125 -2.625 15.5625 C-2.41875 14.716875 -2.2125 13.87125 -2 13 C-1.34 12.67 -0.68 12.34 0 12 C-0.47811177 13.77111844 -0.9575278 15.54188483 -1.4375 17.3125 C-1.70433594 18.29863281 -1.97117187 19.28476563 -2.24609375 20.30078125 C-2.78079425 22.21517526 -3.37144538 24.11433615 -4 26 C-4.96107491 37.48775748 -4.4524747 48.09505061 0.75 58.5 C1.1625 59.325 1.575 60.15 2 61 C1.67 61.66 1.34 62.32 1 63 C0.34 63 -0.32 63 -1 63 C-1 61.35 -1 59.7 -1 58 C-1.66 58 -2.32 58 -3 58 C-6.68854016 47.39544703 -6.91278918 36.12772995 -6 25 C-5.67 24.34 -5.34 23.68 -5 23 C-5.66 23 -6.32 23 -7 23 C-7.33 22.34 -7.66 21.68 -8 21 C-8.74515899 24.38636309 -9.16770563 27.61943103 -9.31640625 31.08203125 C-9.35830078 32.01337891 -9.40019531 32.94472656 -9.44335938 33.90429688 C-9.48267578 34.86400391 -9.52199219 35.82371094 -9.5625 36.8125 C-9.60568359 37.79154297 -9.64886719 38.77058594 -9.69335938 39.77929688 C-9.7990226 42.18607027 -9.90112327 44.59293983 -10 47 C-12.24606886 42.96445303 -12.34648757 39.34959487 -12.3125 34.8125 C-12.30758545 34.04655518 -12.3026709 33.28061035 -12.29760742 32.49145508 C-12.17968875 26.80414675 -11.36084309 22.20123243 -9 17 C-8.10373157 14.81267823 -7.20791837 12.62516989 -6.3125 10.4375 C-5.54484187 8.62365291 -4.77512547 6.8106686 -4 5 C-3.34 5 -2.68 5 -2 5 C-1.34 3.35 -0.68 1.7 0 0 Z " fill="#F1D955" transform="translate(32,48)"/>
<path d="M0 0 C1.90845703 0.04060547 1.90845703 0.04060547 3.85546875 0.08203125 C5.31919922 0.13423828 5.31919922 0.13423828 6.8125 0.1875 C6.8125 0.5175 6.8125 0.8475 6.8125 1.1875 C6.05324219 1.24808594 5.29398438 1.30867188 4.51171875 1.37109375 C3.51785156 1.45488281 2.52398437 1.53867188 1.5 1.625 C0.51386719 1.70621094 -0.47226563 1.78742188 -1.48828125 1.87109375 C-4.28125599 2.10562559 -4.28125599 2.10562559 -7.1875 3.1875 C-7.5175 10.1175 -7.8475 17.0475 -8.1875 24.1875 C-15.1175 24.1875 -22.0475 24.1875 -29.1875 24.1875 C-29.1875 24.8475 -29.1875 25.5075 -29.1875 26.1875 C-29.8475 26.1875 -30.5075 26.1875 -31.1875 26.1875 C-30.8575 26.8475 -30.5275 27.5075 -30.1875 28.1875 C-30.1158265 30.73907655 -30.09441558 33.26222971 -30.125 35.8125 C-30.12951172 36.51890625 -30.13402344 37.2253125 -30.13867188 37.953125 C-30.15046125 39.69795275 -30.16839676 41.442737 -30.1875 43.1875 C-30.8475 43.1875 -31.5075 43.1875 -32.1875 43.1875 C-32.24140357 40.24975537 -32.2811255 37.31299768 -32.3125 34.375 C-32.32925781 33.54162109 -32.34601563 32.70824219 -32.36328125 31.84960938 C-32.36972656 31.04716797 -32.37617188 30.24472656 -32.3828125 29.41796875 C-32.39328613 28.67957764 -32.40375977 27.94118652 -32.41455078 27.18041992 C-32.1875 25.1875 -32.1875 25.1875 -30.1875 22.1875 C-28.32397461 21.77099609 -28.32397461 21.77099609 -26.08984375 21.7109375 C-24.88811523 21.66453125 -24.88811523 21.66453125 -23.66210938 21.6171875 C-22.82486328 21.59914063 -21.98761719 21.58109375 -21.125 21.5625 C-15.73025473 21.89644301 -15.73025473 21.89644301 -11.1875 20.1875 C-10.983921 16.60601762 -10.84065924 13.03139296 -10.7578125 9.4453125 C-10.726875 8.6925 -10.6959375 7.9396875 -10.6640625 7.1640625 C-10.64424316 6.47393066 -10.62442383 5.78379883 -10.60400391 5.07275391 C-9.34944375 -0.60585895 -4.95317477 -0.13632591 0 0 Z " fill="#EFDB64" transform="translate(163.1875,98.8125)"/>
<path d="M0 0 C4.88883394 0.76219616 9.47764512 1.95764618 14 4 C14 4.99 14 5.98 14 7 C14.66 7.33 15.32 7.66 16 8 C15.01 8.66 14.02 9.32 13 10 C10.73828125 9.5390625 10.73828125 9.5390625 8.3125 8.625 C7.10013672 8.18027344 7.10013672 8.18027344 5.86328125 7.7265625 C5.24839844 7.48679687 4.63351563 7.24703125 4 7 C4 6.34 4 5.68 4 5 C-1.61 5 -7.22 5 -13 5 C-13 3 -13 3 -11.7890625 1.39453125 C-8.38819631 -1.25636226 -4.10979189 -0.35090842 0 0 Z " fill="#FCDB11" transform="translate(143,32)"/>
<path d="M0 0 C-0.66 0.99 -1.32 1.98 -2 3 C-4.92636484 3.19450159 -7.64674524 3.23448957 -10.5625 3.125 C-13.37791953 3.04723862 -16.18274424 3.0058754 -19 3 C-19.33 3.33 -19.66 3.66 -20 4 C-21.4264338 4.39639235 -22.86687961 4.74309124 -24.3125 5.0625 C-25.48232422 5.32740234 -25.48232422 5.32740234 -26.67578125 5.59765625 C-29 6 -29 6 -33 6 C-33 6.66 -33 7.32 -33 8 C-34.98 8 -36.96 8 -39 8 C-39.33 7.34 -39.66 6.68 -40 6 C-39.01 6 -38.02 6 -37 6 C-37 5.01 -37 4.02 -37 3 C-31.47382394 0.25168784 -26.88611005 -0.54880598 -20.75 -0.75 C-19.91750732 -0.78601318 -19.08501465 -0.82202637 -18.22729492 -0.85913086 C-12.09250355 -1.07910346 -6.08359092 -0.8886144 0 0 Z " fill="#F9DC20" transform="translate(177,79)"/>
<path d="M0 0 C0 0.66 0 1.32 0 2 C-0.33 2.33 -0.66 2.66 -1 3 C0.65 3.33 2.3 3.66 4 4 C1.14693203 6.32472205 -1.54074837 7.7508258 -5 9 C-5 9.66 -5 10.32 -5 11 C-7.97 12.65 -10.94 14.3 -14 16 C-14.4375 12.875 -14.4375 12.875 -14 9 C-10.92001224 5.22396981 -5.00987597 0 0 0 Z " fill="#F5DB2D" transform="translate(140,83)"/>
<path d="M0 0 C6.93 0.33 13.86 0.66 21 1 C21.33 7.93 21.66 14.86 22 22 C27.94 22 33.88 22 40 22 C39.34 22.99 38.68 23.98 38 25 C34.8125 25.4765625 34.8125 25.4765625 31 25.625 C26.33515223 25.64893391 26.33515223 25.64893391 22 27 C19.99199544 26.71887936 17.98985949 26.38932033 16 26 C16 25.34 16 24.68 16 24 C15.34 24 14.68 24 14 24 C14 23.01 14 22.02 14 21 C17 22.5 17 22.5 20 24 C20 16.74 20 9.48 20 2 C13.4 2 6.8 2 0 2 C0 1.34 0 0.68 0 0 Z " fill="#F2D853" transform="translate(134,142)"/>
<path d="M0 0 C1.86011719 -0.02126953 1.86011719 -0.02126953 3.7578125 -0.04296875 C6.875 0.1875 6.875 0.1875 8.875 2.1875 C10.94374034 2.8300235 10.94374034 2.8300235 12.875 3.1875 C12.875 3.8475 12.875 4.5075 12.875 5.1875 C13.65875 5.31125 14.4425 5.435 15.25 5.5625 C17.875 6.1875 17.875 6.1875 19.875 8.1875 C19.875 8.8475 19.875 9.5075 19.875 10.1875 C17.4 9.6925 17.4 9.6925 14.875 9.1875 C14.875 8.5275 14.875 7.8675 14.875 7.1875 C13.575625 7.001875 13.575625 7.001875 12.25 6.8125 C8.875 6.1875 8.875 6.1875 6.25 5.1875 C1.97273443 3.92016205 -2.06244599 3.73235853 -6.5 3.5625 C-7.33144531 3.52382813 -8.16289063 3.48515625 -9.01953125 3.4453125 C-11.05435156 3.35175754 -13.08964416 3.26857287 -15.125 3.1875 C-9.98083721 0.43169851 -5.84599028 0.03051143 0 0 Z " fill="#FBDC14" transform="translate(71.125,33.8125)"/>
<path d="M0 0 C0.99 0.33 1.98 0.66 3 1 C2.67 2.65 2.34 4.3 2 6 C1.34 6 0.68 6 0 6 C-0.226875 6.721875 -0.45375 7.44375 -0.6875 8.1875 C-2.24982351 11.53533609 -4.40106756 13.40106756 -7 16 C-8.319018 18.66533035 -8.319018 18.66533035 -9 21 C-9.99 20.67 -10.98 20.34 -12 20 C-11.67 18.02 -11.34 16.04 -11 14 C-10.34 14 -9.68 14 -9 14 C-9 13.01 -9 12.02 -9 11 C-8.34 11 -7.68 11 -7 11 C-6.95875 10.113125 -6.9175 9.22625 -6.875 8.3125 C-5.66056018 3.71497782 -3.9316152 2.59486603 0 0 Z " fill="#F9DB2F" transform="translate(38,45)"/>
<path d="M0 0 C0.66 0.33 1.32 0.66 2 1 C0.6875 3.5 0.6875 3.5 -1 6 C-1.99 6 -2.98 6 -4 6 C-4.33 7.32 -4.66 8.64 -5 10 C-6.32 10 -7.64 10 -9 10 C-8.67 11.65 -8.34 13.3 -8 15 C-9.32 15.33 -10.64 15.66 -12 16 C-12 15.01 -12 14.02 -12 13 C-12.99 12.67 -13.98 12.34 -15 12 C-16.38671875 10.37109375 -16.38671875 10.37109375 -17.6875 8.4375 C-18.12449219 7.79683594 -18.56148438 7.15617187 -19.01171875 6.49609375 C-19.33785156 6.00238281 -19.66398437 5.50867187 -20 5 C-19.67 4.34 -19.34 3.68 -19 3 C-18.34 3 -17.68 3 -17 3 C-17 3.66 -17 4.32 -17 5 C-16.01 5 -15.02 5 -14 5 C-14 6.32 -14 7.64 -14 9 C-7.95566426 7.64002446 -4.36505864 4.14348206 0 0 Z " fill="#FBDC0C" transform="translate(113,42)"/>
<path d="M0 0 C4.535165 2.2675825 5.92477226 6.92615954 7.625 11.4375 C8.05039063 12.54996094 8.47578125 13.66242188 8.9140625 14.80859375 C10.81644695 20.39941425 11.09913726 25.15090148 11 31 C8.63014178 28.63014178 8.44209767 27.28921518 7.6875 24.0625 C5.84074076 16.91101908 3.10573837 10.15860756 -1 4 C-0.625 1.8125 -0.625 1.8125 0 0 Z " fill="#FBDB0B" transform="translate(172,53)"/>
<path d="M0 0 C0.66 0.99 1.32 1.98 2 3 C1.34 3.66 0.68 4.32 0 5 C-0.99 5 -1.98 5 -3 5 C-3 4.01 -3 3.02 -3 2 C-2.01 1.34 -1.02 0.68 0 0 Z M2 1 C2.66 1 3.32 1 4 1 C4 1.66 4 2.32 4 3 C4.99 3 5.98 3 7 3 C7 3.66 7 4.32 7 5 C13.6 5 20.2 5 27 5 C27 11.6 27 18.2 27 25 C26.67 25 26.34 25 26 25 C26 18.73 26 12.46 26 6 C18.08 6.33 10.16 6.66 2 7 C1.34 8.32 0.68 9.64 0 11 C-0.66 11 -1.32 11 -2 11 C-1.4213888 7.64405503 -0.35999139 6.35999139 2 4 C2 3.01 2 2.02 2 1 Z " fill="#FADB28" transform="translate(127,139)"/>
<path d="M0 0 C1.1859375 0.00257812 2.371875 0.00515625 3.59375 0.0078125 C4.7796875 0.00523438 5.965625 0.00265625 7.1875 0 C10.09375 0.1328125 10.09375 0.1328125 11.09375 1.1328125 C12.3621875 1.04 12.3621875 1.04 13.65625 0.9453125 C18.08437039 1.18684634 21.39817959 2.71613877 25.09375 5.1328125 C25.58875 6.1228125 25.58875 6.1228125 26.09375 7.1328125 C27.3621875 7.844375 27.3621875 7.844375 28.65625 8.5703125 C29.460625 9.0859375 30.265 9.6015625 31.09375 10.1328125 C31.09375 11.1228125 31.09375 12.1128125 31.09375 13.1328125 C30.35769531 12.57851562 29.62164062 12.02421875 28.86328125 11.453125 C27.88746094 10.72867188 26.91164062 10.00421875 25.90625 9.2578125 C24.94332031 8.53851563 23.98039062 7.81921875 22.98828125 7.078125 C19.07520037 4.44828117 16.57836324 2.93296072 11.84375 3.5703125 C10.93625 3.7559375 10.02875 3.9415625 9.09375 4.1328125 C8.76375 3.8028125 8.43375 3.4728125 8.09375 3.1328125 C5.76080225 3.09039527 3.42672433 3.09188313 1.09375 3.1328125 C0.43375 3.1328125 -0.22625 3.1328125 -0.90625 3.1328125 C-2.58370682 3.77184367 -4.25186387 4.43622887 -5.90625 5.1328125 C-6.89625 3.8128125 -7.88625 2.4928125 -8.90625 1.1328125 C-7.6996875 1.16375 -7.6996875 1.16375 -6.46875 1.1953125 C-3.34888857 1.11921832 -3.23474575 0.1478244 0 0 Z " fill="#FCDC17" transform="translate(165.90625,90.8671875)"/>
<path d="M0 0 C-0.33 0.66 -0.66 1.32 -1 2 C-1.66 2 -2.32 2 -3 2 C-3 2.66 -3 3.32 -3 4 C2.61 4 8.22 4 14 4 C14 4.66 14 5.32 14 6 C16.475 6.495 16.475 6.495 19 7 C15.52390332 8.15869889 14.20679676 7.7327944 10.6875 6.9375 C3.52127598 5.61302041 -2.90636113 6.63583868 -10 8 C-10 7.34 -10 6.68 -10 6 C-8.35 6 -6.7 6 -5 6 C-4.67 4.68 -4.34 3.36 -4 2 C-5.32 2 -6.64 2 -8 2 C-8 2.66 -8 3.32 -8 4 C-11.52948291 5.66670026 -13.28272326 6.13583456 -17 5 C-15.730447 4.35165346 -14.45930294 3.70642185 -13.1875 3.0625 C-12.47980469 2.70285156 -11.77210937 2.34320313 -11.04296875 1.97265625 C-7.2023748 0.14415167 -4.20923377 -0.09353853 0 0 Z " fill="#F2D956" transform="translate(133,33)"/>
<path d="M0 0 C0.33 0 0.66 0 1 0 C1 1.98 1 3.96 1 6 C0.34 6 -0.32 6 -1 6 C-1 9.96 -1 13.92 -1 18 C-1.66 18 -2.32 18 -3 18 C-2.690625 18.763125 -2.38125 19.52625 -2.0625 20.3125 C-0.892419 24.37336934 -0.53950921 28.16477228 -0.21875 32.36328125 C0.02305514 35.27789676 0.45644005 38.1268974 1 41 C1.99 41.33 2.98 41.66 4 42 C4 43.98 4 45.96 4 48 C0.28898979 43.75884548 -1.83711122 38.60622044 -2.1875 33 C-2.125625 32.34 -2.06375 31.68 -2 31 C-2.66 31 -3.32 31 -4 31 C-4.28324792 20.36246708 -4.26787128 9.91652444 0 0 Z " fill="#F2DA58" transform="translate(112,112)"/>
<path d="M0 0 C3.23861303 1.44424635 5.61969163 3.25772247 8.25 5.625 C8.95640625 6.25664062 9.6628125 6.88828125 10.390625 7.5390625 C10.92171875 8.02117187 11.4528125 8.50328125 12 9 C11.6875 10.9375 11.6875 10.9375 11 13 C10.01 13.33 9.02 13.66 8 14 C6.99406757 12.8803014 5.9954151 11.7540588 5 10.625 C4.1646875 9.68527344 4.1646875 9.68527344 3.3125 8.7265625 C2 7 2 7 2 5 C1.34 5 0.68 5 0 5 C0 4.34 0 3.68 0 3 C-0.66 2.67 -1.32 2.34 -2 2 C-1.34 1.34 -0.68 0.68 0 0 Z " fill="#F4D930" transform="translate(41,124)"/>
<path d="M0 0 C0.33 0 0.66 0 1 0 C1.99 3.63 2.98 7.26 4 11 C1.69 11.33 -0.62 11.66 -3 12 C-2.67 11.01 -2.34 10.02 -2 9 C-10.35600408 7.89897358 -18.58807963 7.89905696 -27 8 C-23.88422699 6.17789738 -21.67758918 5.76836639 -18.0859375 5.83984375 C-16.69761719 5.8562793 -16.69761719 5.8562793 -15.28125 5.87304688 C-13.84265625 5.90495117 -13.84265625 5.90495117 -12.375 5.9375 C-10.46622012 5.97185804 -8.55735856 6.00201589 -6.6484375 6.02734375 C-5.80458496 6.04531006 -4.96073242 6.06327637 -4.09130859 6.08178711 C-1.93959886 6.1414325 -1.93959886 6.1414325 0 5 C0 3.35 0 1.7 0 0 Z " fill="#F6DA3E" transform="translate(178,71)"/>
<path d="M0 0 C0.33 0.66 0.66 1.32 1 2 C1.66 2.33 2.32 2.66 3 3 C5 5 5 5 5 8 C5.66 8.33 6.32 8.66 7 9 C6.67 9.99 6.34 10.98 6 12 C0.80177328 10.63855967 -2.09543873 8.53269829 -6 5 C-5.25 3.0625 -5.25 3.0625 -4 1 C-1.875 0.25 -1.875 0.25 0 0 Z " fill="#FBDC1D" transform="translate(141,161)"/>
<path d="M0 0 C0.66 0.33 1.32 0.66 2 1 C1.01 2.485 1.01 2.485 0 4 C1.32 4 2.64 4 4 4 C4 3.34 4 2.68 4 2 C5.32 2 6.64 2 8 2 C8 1.34 8 0.68 8 0 C10.31 0 12.62 0 15 0 C11.62294272 2.25137152 8.12422495 3.92665496 4.47265625 5.68359375 C2.11178781 6.94048579 0.08917754 8.33738307 -2 10 C-2.33 9.01 -2.66 8.02 -3 7 C-4.98 7.66 -6.96 8.32 -9 9 C-8.06725891 7.87105124 -7.12859878 6.74699124 -6.1875 5.625 C-5.66542969 4.99851562 -5.14335938 4.37203125 -4.60546875 3.7265625 C-3 2 -3 2 0 0 Z " fill="#F3DC4F" transform="translate(43,39)"/>
<path d="M0 0 C0.66 0 1.32 0 2 0 C3.5912689 4.873261 4.21192221 8.80790596 4 14 C4.66 14 5.32 14 6 14 C6.66 15.32 7.32 16.64 8 18 C6.68 19.65 5.36 21.3 4 23 C3.87882812 22.14535156 3.75765625 21.29070312 3.6328125 20.41015625 C3.46523437 19.30542969 3.29765625 18.20070312 3.125 17.0625 C2.88136719 15.40927734 2.88136719 15.40927734 2.6328125 13.72265625 C2.31957031 12.37494141 2.31957031 12.37494141 2 11 C1.34 10.67 0.68 10.34 0 10 C-1.25 6.625 -1.25 6.625 -2 3 C-1.34 2.01 -0.68 1.02 0 0 Z " fill="#FDDB0F" transform="translate(113,143)"/>
<path d="M0 0 C1.32 0.66 2.64 1.32 4 2 C-5.60316772 6.19047319 -17.54451215 6.83403716 -27.5625 3.5 C-28.696875 3.005 -29.83125 2.51 -31 2 C-31 1.67 -31 1.34 -31 1 C-29.00045254 0.95745644 -26.99958364 0.95919217 -25 1 C-24.67 1.33 -24.34 1.66 -24 2 C-20.54885297 2.25146124 -17.08422797 2.18522419 -13.625 2.1875 C-12.65304688 2.19974609 -11.68109375 2.21199219 -10.6796875 2.22460938 C-9.74640625 2.22654297 -8.813125 2.22847656 -7.8515625 2.23046875 C-6.56499756 2.23663208 -6.56499756 2.23663208 -5.25244141 2.24291992 C-2.71670799 2.14501122 -2.71670799 2.14501122 0 0 Z " fill="#EFD756" transform="translate(178,172)"/>
<path d="M0 0 C0.66 0 1.32 0 2 0 C2.06058594 1.24136719 2.12117188 2.48273438 2.18359375 3.76171875 C2.26803623 5.40365577 2.35268236 7.04558232 2.4375 8.6875 C2.47681641 9.50412109 2.51613281 10.32074219 2.55664062 11.16210938 C2.76998704 15.21569124 3.16838494 19.02012791 4 23 C3.5625 25.8125 3.5625 25.8125 3 28 C0.29903938 25.29903938 0.0589754 23.28502949 -0.11352539 19.52636719 C-0.10828857 18.62563477 -0.10305176 17.72490234 -0.09765625 16.796875 C-0.09443359 15.8171875 -0.09121094 14.8375 -0.08789062 13.828125 C-0.07951172 12.81234375 -0.07113281 11.7965625 -0.0625 10.75 C-0.05798828 9.71875 -0.05347656 8.6875 -0.04882812 7.625 C-0.03706088 5.08327427 -0.02062011 2.54166681 0 0 Z " fill="#FCDC05" transform="translate(23,75)"/>
<path d="M0 0 C2.15583679 3.23375518 3.88943619 6.59489994 5.625 10.0625 C5.94984375 10.69994141 6.2746875 11.33738281 6.609375 11.99414062 C9 16.76032366 9 16.76032366 9 19 C7.35 19.66 5.7 20.32 4 21 C3.27054834 17.53510463 3 14.53576478 3 11 C2.34 11 1.68 11 1 11 C0.67 7.37 0.34 3.74 0 0 Z " fill="#F4DB47" transform="translate(116,146)"/>
<path d="M0 0 C1.27310312 0.93441535 2.543388 1.87267111 3.8125 2.8125 C4.52019531 3.33457031 5.22789063 3.85664063 5.95703125 4.39453125 C7.78531393 5.83128877 9.39896688 7.31815763 11 9 C9.35 8.67 7.7 8.34 6 8 C5.67 9.32 5.34 10.64 5 12 C5.99 12 6.98 12 8 12 C7.67 12.66 7.34 13.32 7 14 C3.27762318 12.75920773 1.64250671 10.85112566 -1 8 C-1.33 7.34 -1.66 6.68 -2 6 C-0.68 6 0.64 6 2 6 C1.34 4.02 0.68 2.04 0 0 Z " fill="#F3D946" transform="translate(62,143)"/>
<path d="M0 0 C0.66 0 1.32 0 2 0 C2 0.66 2 1.32 2 2 C3.65 2.33 5.3 2.66 7 3 C7 3.99 7 4.98 7 6 C7.639375 6.12375 8.27875 6.2475 8.9375 6.375 C9.618125 6.58125 10.29875 6.7875 11 7 C11.33 7.66 11.66 8.32 12 9 C11.01 9.99 10.02 10.98 9 12 C5 8 5 8 3.375 6.3125 C2.01378527 4.88435687 2.01378527 4.88435687 0 4 C0 2.68 0 1.36 0 0 Z " fill="#FBDB0C" transform="translate(160,41)"/>
<path d="M0 0 C-0.66 1.65 -1.32 3.3 -2 5 C-4.97 4.505 -4.97 4.505 -8 4 C-8.33 5.65 -8.66 7.3 -9 9 C-9.598125 8.649375 -10.19625 8.29875 -10.8125 7.9375 C-13.10813214 6.66695302 -13.10813214 6.66695302 -16 8 C-16.33 8.99 -16.66 9.98 -17 11 C-17.66 10.34 -18.32 9.68 -19 9 C-6.76334702 -0.59676591 -6.76334702 -0.59676591 0 0 Z " fill="#F6DC40" transform="translate(153,91)"/>
<path d="M0 0 C0 0.66 0 1.32 0 2 C-6.6 2 -13.2 2 -20 2 C-13.27211029 -1.36394485 -7.39226449 -1.79206412 0 0 Z " fill="#FCDB05" transform="translate(76,35)"/>
<path d="M0 0 C0.33 0 0.66 0 1 0 C1.06058594 0.63808594 1.12117188 1.27617187 1.18359375 1.93359375 C1.26738281 2.75988281 1.35117188 3.58617187 1.4375 4.4375 C1.51871094 5.26121094 1.59992188 6.08492187 1.68359375 6.93359375 C1.78930815 8.98662025 1.78930815 8.98662025 3 10 C3.14115161 12.67058851 3.04247107 15.32432238 3 18 C3.99 18.33 4.98 18.66 6 19 C6.33 21.97 6.66 24.94 7 28 C0.11454967 20.13091391 -0.17666452 9.93247188 0 0 Z " fill="#F0D955" transform="translate(120,128)"/>
<path d="M0 0 C0.33 0 0.66 0 1 0 C1 6.6 1 13.2 1 20 C-5.93 20 -12.86 20 -20 20 C-20 19.67 -20 19.34 -20 19 C-18.71222656 18.93941406 -17.42445313 18.87882812 -16.09765625 18.81640625 C-14.41925841 18.73201753 -12.74087364 18.6473687 -11.0625 18.5625 C-10.21236328 18.52318359 -9.36222656 18.48386719 -8.48632812 18.44335938 C-7.67744141 18.40146484 -6.86855469 18.35957031 -6.03515625 18.31640625 C-4.91185913 18.26141968 -4.91185913 18.26141968 -3.76586914 18.20532227 C-1.97538674 18.18228937 -1.97538674 18.18228937 -1 17 C-0.76298761 14.14122091 -0.57780818 11.30116703 -0.4375 8.4375 C-0.39431641 7.63119141 -0.35113281 6.82488281 -0.30664062 5.99414062 C-0.20024738 3.99631195 -0.09959112 1.9981793 0 0 Z " fill="#F6DC3F" transform="translate(153,102)"/>
<path d="M0 0 C0.66 0 1.32 0 2 0 C3.54271357 7.13505025 3.54271357 7.13505025 1 11.1875 C0.34 12.115625 -0.32 13.04375 -1 14 C-1.33 12.68 -1.66 11.36 -2 10 C-1.34 10 -0.68 10 0 10 C-0.33 8.35 -0.66 6.7 -1 5 C-2.32 5.99 -3.64 6.98 -5 8 C-3.63055898 5.05043472 -2.12169591 2.47531189 0 0 Z " fill="#F2D951" transform="translate(124,93)"/>
<path d="M0 0 C0.33 0.99 0.66 1.98 1 3 C1.66 3 2.32 3 3 3 C2.67 10.26 2.34 17.52 2 25 C1.67 25 1.34 25 1 25 C1 19.06 1 13.12 1 7 C0.34 7 -0.32 7 -1 7 C-1.33 7.99 -1.66 8.98 -2 10 C-1.85950482 8.52031676 -1.71245174 7.04125484 -1.5625 5.5625 C-1.48128906 4.73878906 -1.40007813 3.91507812 -1.31640625 3.06640625 C-1 1 -1 1 0 0 Z " fill="#FADB1F" transform="translate(24,68)"/>
<path d="M0 0 C0.33 0.66 0.66 1.32 1 2 C-2.86448384 7.76744937 -6.97731846 12.41894611 -13 16 C-13.66 16 -14.32 16 -15 16 C-15 14 -15 14 -13 12 C-12.01 12 -11.02 12 -10 12 C-10 11.34 -10 10.68 -10 10 C-8.34997172 8.64613064 -6.6825613 7.31321858 -5 6 C-4.67 5.34 -4.34 4.68 -4 4 C-3.34 4 -2.68 4 -2 4 C-2 3.01 -2 2.02 -2 1 C-1.34 0.67 -0.68 0.34 0 0 Z " fill="#F5DD55" transform="translate(201,155)"/>
<path d="M0 0 C0.33 0.66 0.66 1.32 1 2 C0.67 2.99 0.34 3.98 0 5 C-0.66 5 -1.32 5 -2 5 C-2 6.32 -2 7.64 -2 9 C-2.66 9 -3.32 9 -4 9 C-3.505 9.78375 -3.01 10.5675 -2.5 11.375 C-1 14 -1 14 -1 16 C-2.32 15.34 -3.64 14.68 -5 14 C-5.99 14.99 -6.98 15.98 -8 17 C-7.39254603 12.14036821 -5.27241033 8.2594482 -3 4 C-2.34 4 -1.68 4 -1 4 C-0.67 2.68 -0.34 1.36 0 0 Z " fill="#F6E04F" transform="translate(131,102)"/>
<path d="M0 0 C1.32 0.99 2.64 1.98 4 3 C3.65066406 3.45890625 3.30132812 3.9178125 2.94140625 4.390625 C2.25884766 5.31101562 2.25884766 5.31101562 1.5625 6.25 C1.11003906 6.85328125 0.65757813 7.4565625 0.19140625 8.078125 C-1.03900997 10.06292756 -1.56112668 11.71987655 -2 14 C-2.99 13.67 -3.98 13.34 -5 13 C-4.67 11.02 -4.34 9.04 -4 7 C-3.34 7 -2.68 7 -2 7 C-2 6.01 -2 5.02 -2 4 C-1.34 4 -0.68 4 0 4 C0 2.68 0 1.36 0 0 Z " fill="#FCDA0D" transform="translate(31,52)"/>
<path d="M0 0 C8.51315109 -0.31990964 16.16310159 0.46075556 24 4 C24 4.33 24 4.66 24 5 C22.02 5 20.04 5 18 5 C18 4.34 18 3.68 18 3 C16.700625 3.04125 15.40125 3.0825 14.0625 3.125 C9.16408698 3.14055052 4.71823189 2.2492718 0 1 C0 0.67 0 0.34 0 0 Z " fill="#F6E257" transform="translate(133,32)"/>
<path d="M0 0 C3.65316671 1.24976756 4.78065836 1.67098753 7 5 C7 5.99 7 6.98 7 8 C5.35 8 3.7 8 2 8 C2 7.01 2 6.02 2 5 C1.01 5 0.02 5 -1 5 C-0.67 3.35 -0.34 1.7 0 0 Z " fill="#FBDB14" transform="translate(68,150)"/>
<path d="M0 0 C0.66 0 1.32 0 2 0 C2 0.66 2 1.32 2 2 C2.66 2 3.32 2 4 2 C4 2.66 4 3.32 4 4 C4.66 4 5.32 4 6 4 C6.5775 4.9075 7.155 5.815 7.75 6.75 C10.2758091 10.39839092 12.24557868 11.78147831 16 14 C15.67 14.99 15.34 15.98 15 17 C13.32448647 15.57282151 11.65980691 14.13291518 10 12.6875 C9.071875 11.88699219 8.14375 11.08648437 7.1875 10.26171875 C5 8 5 8 5 5 C4.360625 4.731875 3.72125 4.46375 3.0625 4.1875 C1 3 1 3 0 0 Z " fill="#F3D655" transform="translate(37,125)"/>
<path d="M0 0 C2.97 1.98 5.94 3.96 9 6 C8.01 6.495 8.01 6.495 7 7 C4.875 6.0625 4.875 6.0625 3 5 C3 5.99 3 6.98 3 8 C3.99 8.66 4.98 9.32 6 10 C6 10.66 6 11.32 6 12 C5.34 12 4.68 12 4 12 C4 11.34 4 10.68 4 10 C3.01 10 2.02 10 1 10 C-0.6875 8 -0.6875 8 -2 6 C-0.68 6 0.64 6 2 6 C1.34 4.02 0.68 2.04 0 0 Z " fill="#F3DD57" transform="translate(73,152)"/>
<path d="M0 0 C-0.99 1.485 -0.99 1.485 -2 3 C-4.31309705 2.88658363 -6.62550185 2.75896193 -8.9375 2.625 C-10.86916016 2.52058594 -10.86916016 2.52058594 -12.83984375 2.4140625 C-14.40412109 2.20910156 -14.40412109 2.20910156 -16 2 C-16.33 1.34 -16.66 0.68 -17 0 C-11.23073111 -1.40333568 -5.81856895 -0.67296616 0 0 Z " fill="#FBDC06" transform="translate(177,79)"/>
<path d="M0 0 C0.33 0.66 0.66 1.32 1 2 C-0.65 2 -2.3 2 -4 2 C-4 2.66 -4 3.32 -4 4 C-5.32 4 -6.64 4 -8 4 C-8 4.66 -8 5.32 -8 6 C-9.32 6 -10.64 6 -12 6 C-11.05275873 3.63189682 -10.34708866 2.24792047 -8.25 0.75 C-5.42246362 -0.19251213 -2.96006696 -0.1345485 0 0 Z " fill="#FCDB0D" transform="translate(55,37)"/>
<path d="M0 0 C2.96404505 2.80804268 5.44499019 5.18315774 7 9 C6.21625 8.649375 5.4325 8.29875 4.625 7.9375 C3.75875 7.628125 2.8925 7.31875 2 7 C1.01 7.495 1.01 7.495 0 8 C-2.0625 7.3125 -2.0625 7.3125 -4 6 C-4.75 3.875 -4.75 3.875 -5 2 C-1.535 3.485 -1.535 3.485 2 5 C1.34 3.35 0.68 1.7 0 0 Z " fill="#F8DB42" transform="translate(39,118)"/>
<path d="M0 0 C0 0.66 0 1.32 0 2 C-0.33 2.33 -0.66 2.66 -1 3 C0.65 3.33 2.3 3.66 4 4 C1.61426621 5.89213369 -0.07175348 7.02391783 -3 8 C-3 7.34 -3 6.68 -3 6 C-4.65 5.67 -6.3 5.34 -8 5 C-3.16129032 0 -3.16129032 0 0 0 Z " fill="#F5DB49" transform="translate(140,83)"/>
<path d="M0 0 C2.31 0.33 4.62 0.66 7 1 C6.979375 1.94875 6.95875 2.8975 6.9375 3.875 C6.77448174 6.90666283 6.77448174 6.90666283 8 9 C3.96189555 7.65396518 2.52704924 5.34663277 0 2 C0 1.34 0 0.68 0 0 Z " fill="#F6DC3F" transform="translate(127,156)"/>
<path d="M0 0 C7.01840491 2.23312883 7.01840491 2.23312883 10 4 C10.33 4.66 10.66 5.32 11 6 C11.845625 6.474375 12.69125 6.94875 13.5625 7.4375 C14.366875 7.953125 15.17125 8.46875 16 9 C16 9.99 16 10.98 16 12 C15.26394531 11.44570312 14.52789062 10.89140625 13.76953125 10.3203125 C12.79371094 9.59585938 11.81789062 8.87140625 10.8125 8.125 C9.84957031 7.40570313 8.88664063 6.68640625 7.89453125 5.9453125 C5.28871325 4.19403401 2.95207856 3.02540206 0 2 C0 1.34 0 0.68 0 0 Z " fill="#F5DF5B" transform="translate(181,92)"/>
<path d="M0 0 C0.33 0 0.66 0 1 0 C1.06058594 1.27875 1.12117188 2.5575 1.18359375 3.875 C1.26807216 5.5833411 1.35271641 7.29167401 1.4375 9 C1.47681641 9.83917969 1.51613281 10.67835937 1.55664062 11.54296875 C1.81851332 16.74013458 2.2899352 21.84457153 3 27 C2.67 26.01 2.34 25.02 2 24 C1.34 24 0.68 24 0 24 C-1.38489368 19.04515817 -0.89120615 14.25410852 -0.5625 9.1875 C-0.51029297 8.30384766 -0.45808594 7.42019531 -0.40429688 6.50976562 C-0.27525381 4.33949592 -0.13840044 2.16969307 0 0 Z " fill="#F7DD44" transform="translate(22,78)"/>
<path d="M0 0 C0.66 0.33 1.32 0.66 2 1 C1.01 3.31 0.02 5.62 -1 8 C-1.5775 7.79375 -2.155 7.5875 -2.75 7.375 C-5.53731028 6.91044829 -6.58030999 7.66815382 -9 9 C-8.06725891 7.87105124 -7.12859878 6.74699124 -6.1875 5.625 C-5.66542969 4.99851562 -5.14335938 4.37203125 -4.60546875 3.7265625 C-3 2 -3 2 0 0 Z " fill="#F3D83F" transform="translate(43,39)"/>
<path d="M0 0 C1 3 1 3 1 6 C0.34 6 -0.32 6 -1 6 C-1 6.99 -1 7.98 -1 9 C-2.32 9 -3.64 9 -5 9 C-4.5206753 4.68607774 -3.2542015 2.83430453 0 0 Z " fill="#FBDC14" transform="translate(123,97)"/>
<path d="M0 0 C2.64 0.99 5.28 1.98 8 3 C7.67 4.32 7.34 5.64 7 7 C6.01 7 5.02 7 4 7 C4 6.34 4 5.68 4 5 C2.68 5 1.36 5 0 5 C-0.33 4.01 -0.66 3.02 -1 2 C-0.67 1.34 -0.34 0.68 0 0 Z " fill="#FCDB13" transform="translate(96,168)"/>
<path d="M0 0 C0.66 0.33 1.32 0.66 2 1 C1.01 3.31 0.02 5.62 -1 8 C-1.66 8 -2.32 8 -3 8 C-3 8.99 -3 9.98 -3 11 C-3.66 11 -4.32 11 -5 11 C-5 11.99 -5 12.98 -5 14 C-5.66 14 -6.32 14 -7 14 C-6.01 11.03 -5.02 8.06 -4 5 C-3.34 5 -2.68 5 -2 5 C-1.34 3.35 -0.68 1.7 0 0 Z " fill="#F1DB52" transform="translate(32,48)"/>
<path d="M0 0 C4.75 0.75 4.75 0.75 7 3 C7 3.99 7 4.98 7 6 C5.68 6 4.36 6 3 6 C3 5.34 3 4.68 3 4 C2.01 4 1.02 4 0 4 C0 2.68 0 1.36 0 0 Z " fill="#FBDD0B" transform="translate(85,163)"/>
<path d="M0 0 C1.98 0 3.96 0 6 0 C5.67 1.32 5.34 2.64 5 4 C4.34 4 3.68 4 3 4 C2.67 4.66 2.34 5.32 2 6 C1.01 5.67 0.02 5.34 -1 5 C-0.67 3.35 -0.34 1.7 0 0 Z " fill="#FBDA14" transform="translate(132,88)"/>
<path d="M0 0 C2.9375 0.75 2.9375 0.75 6 2 C6.875 4.125 6.875 4.125 7 6 C3.31245243 5.50168276 1.39509338 4.89932357 -1 2 C-0.67 1.34 -0.34 0.68 0 0 Z " fill="#FADC08" transform="translate(76,157)"/>
<path d="M0 0 C1.9375 0.25 1.9375 0.25 4 1 C6 4 6 4 6 7 C4.68 7 3.36 7 2 7 C1.01 5.02 0.02 3.04 -1 1 C-0.67 0.67 -0.34 0.34 0 0 Z " fill="#FCDB08" transform="translate(58,142)"/>
<path d="M0 0 C0.66 0.33 1.32 0.66 2 1 C1.67 1.99 1.34 2.98 1 4 C0.01 4.33 -0.98 4.66 -2 5 C-3.32 3.35 -4.64 1.7 -6 0 C-3.4832097 -1.25839515 -2.62168527 -0.81927665 0 0 Z " fill="#FCDB10" transform="translate(51,133)"/>
<path d="M0 0 C4.21174952 0 5.0936485 0.19744677 8 3 C8 3.99 8 4.98 8 6 C7.01 6 6.02 6 5 6 C4.34 5.34 3.68 4.68 3 4 C1.68 4 0.36 4 -1 4 C-0.67 2.68 -0.34 1.36 0 0 Z " fill="#FBDD1D" transform="translate(133,100)"/>
<path d="M0 0 C0.66 0.33 1.32 0.66 2 1 C2 1.99 2 2.98 2 4 C-0.95664519 5.4783226 -3.74229737 5.06032783 -7 5 C-7 4.01 -7 3.02 -7 2 C-4.525 2.99 -4.525 2.99 -2 4 C-2 3.01 -2 2.02 -2 1 C-1.34 0.67 -0.68 0.34 0 0 Z " fill="#FDDB1E" transform="translate(166,170)"/>
<path d="M0 0 C1.32 0 2.64 0 4 0 C3.67 1.32 3.34 2.64 3 4 C-0.3 4.33 -3.6 4.66 -7 5 C-6.01 4.01 -5.02 3.02 -4 2 C-2.68 2 -1.36 2 0 2 C0 1.34 0 0.68 0 0 Z " fill="#FBDC05" transform="translate(125,35)"/>
<path d="M0 0 C0.66 0 1.32 0 2 0 C2 0.99 2 1.98 2 3 C2.66 3.33 3.32 3.66 4 4 C3.67 4.99 3.34 5.98 3 7 C-2.75 5.25 -2.75 5.25 -5 3 C-3.35 3 -1.7 3 0 3 C0 2.01 0 1.02 0 0 Z " fill="#F8DB42" transform="translate(144,166)"/>
<path d="M0 0 C0.66 0.99 1.32 1.98 2 3 C1.34 3.66 0.68 4.32 0 5 C-0.99 5 -1.98 5 -3 5 C-3 4.01 -3 3.02 -3 2 C-2.01 1.34 -1.02 0.68 0 0 Z M2 1 C2.66 1 3.32 1 4 1 C4 1.66 4 2.32 4 3 C4.99 3 5.98 3 7 3 C6.67 3.66 6.34 4.32 6 5 C4.68 4.67 3.36 4.34 2 4 C2 3.01 2 2.02 2 1 Z " fill="#FBDC1A" transform="translate(127,139)"/>
<path d="M0 0 C2.875 -0.125 2.875 -0.125 6 0 C6.66 0.66 7.32 1.32 8 2 C6.68 2 5.36 2 4 2 C4 2.66 4 3.32 4 4 C2.02 4 0.04 4 -2 4 C-2.33 3.34 -2.66 2.68 -3 2 C-2.01 2 -1.02 2 0 2 C0 1.34 0 0.68 0 0 Z " fill="#FCDA0B" transform="translate(140,83)"/>
<path d="M0 0 C0.99 0 1.98 0 3 0 C3.33 0.66 3.66 1.32 4 2 C5.66279327 3.0064275 7.32983484 4.00585407 9 5 C10.8125 6.6875 10.8125 6.6875 12 8 C11.67 8.66 11.34 9.32 11 10 C9.0625 9.1875 9.0625 9.1875 7 8 C6.67 7.01 6.34 6.02 6 5 C3.98491642 4.26676204 3.98491642 4.26676204 2 4 C2 3.01 2 2.02 2 1 C1.34 0.67 0.68 0.34 0 0 Z " fill="#F3D65F" transform="translate(160,39)"/>
<path d="M0 0 C1.65 0 3.3 0 5 0 C5 0.66 5 1.32 5 2 C0.545 3.485 0.545 3.485 -4 5 C-4 4.01 -4 3.02 -4 2 C-2.68 2 -1.36 2 0 2 C0 1.34 0 0.68 0 0 Z " fill="#FBDC05" transform="translate(110,167)"/>
<path d="M0 0 C0.66 0 1.32 0 2 0 C2 0.66 2 1.32 2 2 C2.66 2 3.32 2 4 2 C4 1.34 4 0.68 4 0 C4.99 0.33 5.98 0.66 7 1 C6.01 2.485 6.01 2.485 5 4 C4.34 4 3.68 4 3 4 C2.67 4.66 2.34 5.32 2 6 C1.34 5.34 0.68 4.68 0 4 C0 2.68 0 1.36 0 0 Z " fill="#FCDB23" transform="translate(196,152)"/>
<path d="M0 0 C1.65 0 3.3 0 5 0 C5.66 1.65 6.32 3.3 7 5 C4.03824877 4.38722388 2.61941217 3.74627478 0 2 C0 1.34 0 0.68 0 0 Z " fill="#FADC07" transform="translate(34,118)"/>
<path d="M0 0 C4.43090471 1.20842856 6.98112756 2.51668565 10 6 C9.67 6.66 9.34 7.32 9 8 C7.49712782 6.85793642 5.99776716 5.71125043 4.5 4.5625 C3.6646875 3.92441406 2.829375 3.28632812 1.96875 2.62890625 C1.3190625 2.09136719 0.669375 1.55382813 0 1 C0 0.67 0 0.34 0 0 Z " fill="#F0DC51" transform="translate(156,43)"/>
<path d="M0 0 C0.99 0.33 1.98 0.66 3 1 C3.33 2.65 3.66 4.3 4 6 C2.68 5.67 1.36 5.34 0 5 C0 4.34 0 3.68 0 3 C-0.66 2.67 -1.32 2.34 -2 2 C-1.34 1.34 -0.68 0.68 0 0 Z " fill="#FADD06" transform="translate(41,124)"/>
<path d="M0 0 C-0.33 0.66 -0.66 1.32 -1 2 C-3.32156597 2.40729228 -5.6568787 2.74438677 -8 3 C-8 2.01 -8 1.02 -8 0 C-4.94736336 -0.98120464 -3.05263664 -0.98120464 0 0 Z " fill="#FEDA17" transform="translate(139,112)"/>
<path d="M0 0 C2.31 0.33 4.62 0.66 7 1 C6.67 2.98 6.34 4.96 6 7 C5.34 7 4.68 7 4 7 C0 2.52941176 0 2.52941176 0 0 Z " fill="#F5DA44" transform="translate(166,51)"/>
<path d="M0 0 C0.99 0.33 1.98 0.66 3 1 C3 1.66 3 2.32 3 3 C3.99 3 4.98 3 6 3 C6.33 4.32 6.66 5.64 7 7 C4.13302508 5.71480435 2.02392288 4.42870746 0 2 C0 1.34 0 0.68 0 0 Z " fill="#F4E14E" transform="translate(53,142)"/>
<path d="M0 0 C0.66 0.66 1.32 1.32 2 2 C1.34 3.65 0.68 5.3 0 7 C-1.32 6.34 -2.64 5.68 -4 5 C-2.25 1.125 -2.25 1.125 0 0 Z " fill="#F8DB2C" transform="translate(174,95)"/>
<path d="M0 0 C0.33 0.66 0.66 1.32 1 2 C1.66 2 2.32 2 3 2 C3.66 3.98 4.32 5.96 5 8 C4.34 8 3.68 8 3 8 C3 7.01 3 6.02 3 5 C1.68 4.67 0.36 4.34 -1 4 C-0.67 2.68 -0.34 1.36 0 0 Z " fill="#EFDA51" transform="translate(198,104)"/>
<path d="M0 0 C-3.06117568 2.62386487 -3.73173127 3 -8 3 C-7.67 2.01 -7.34 1.02 -7 0 C-2.25 -1.125 -2.25 -1.125 0 0 Z " fill="#FEDC24" transform="translate(158,95)"/>
<path d="M0 0 C1.32 0.33 2.64 0.66 4 1 C2.92598892 3.91517292 2.22189824 5.77810176 0 8 C0 5.36 0 2.72 0 0 Z " fill="#FCDA03" transform="translate(117,158)"/>
<path d="M0 0 C0.66 0 1.32 0 2 0 C2.33 1.65 2.66 3.3 3 5 C2.01 4.67 1.02 4.34 0 4 C-0.33 4.99 -0.66 5.98 -1 7 C-1.625 5.1875 -1.625 5.1875 -2 3 C-1.34 2.01 -0.68 1.02 0 0 Z " fill="#FBDC1E" transform="translate(113,143)"/>
<path d="M0 0 C2.16874252 0.50603992 3.99967627 0.99983813 6 2 C6 2.66 6 3.32 6 4 C3.03 3.505 3.03 3.505 0 3 C0 2.01 0 1.02 0 0 Z " fill="#FEDA19" transform="translate(140,110)"/>
<path d="M0 0 C0.99 0.33 1.98 0.66 3 1 C3 2.65 3 4.3 3 6 C2.01 6 1.02 6 0 6 C-1.125 2.25 -1.125 2.25 0 0 Z " fill="#FBDC1C" transform="translate(28,105)"/>
<path d="M0 0 C0.33 0.66 0.66 1.32 1 2 C1.99 2.33 2.98 2.66 4 3 C4 3.33 4 3.66 4 4 C1.69 4 -0.62 4 -3 4 C-3.33 3.34 -3.66 2.68 -4 2 C-2.68 1.34 -1.36 0.68 0 0 Z " fill="#FCDA00" transform="translate(138,33)"/>
</svg>
