<?xml version="1.0" encoding="UTF-8"?>
<svg version="1.1" xmlns="http://www.w3.org/2000/svg" width="992" height="192">
<path d="M0 0 C14.19 0 28.38 0 43 0 C43.495 1.98 43.495 1.98 44 4 C41.36 4 38.72 4 36 4 C36.495 24.295 36.495 24.295 37 45 C45.25 45.33 53.5 45.66 62 46 C61.505 42.535 61.505 42.535 61 39 C60.91172534 36.55978854 60.8694147 34.11758784 60.8671875 31.67578125 C60.86623077 31.00709518 60.86527405 30.33840912 60.86428833 29.64945984 C60.86361299 28.24864609 60.86542179 26.84782908 60.86962891 25.44702148 C60.87501206 23.30770872 60.86964896 21.16860344 60.86328125 19.02929688 C60.86394165 17.66145787 60.86522202 16.293619 60.8671875 14.92578125 C60.86831543 13.69255127 60.86944336 12.45932129 60.87060547 11.1887207 C60.97637845 8.58211527 61.22461956 6.47128453 62 4 C59.36 4.33 56.72 4.66 54 5 C53.505 3.02 53.505 3.02 53 1 C58.96250772 0.25500876 64.74927676 -0.13948003 70.75390625 -0.09765625 C71.93339088 -0.09553383 71.93339088 -0.09553383 73.13670349 -0.09336853 C75.61201015 -0.08783672 78.08722137 -0.07529775 80.5625 -0.0625 C82.25585806 -0.05747616 83.94921755 -0.05291481 85.64257812 -0.04882812 C89.7617547 -0.03788978 93.88086125 -0.02067362 98 0 C98 1.32 98 2.64 98 4 C95.36 4 92.72 4 90 4 C90.495 5.485 90.495 5.485 91 7 C91.07590858 9.67742674 91.09479999 12.32733026 91.06591797 15.00390625 C91.05890869 16.22628494 91.05890869 16.22628494 91.05175781 17.47335815 C91.04125563 19.24290292 91.02859306 21.01243587 91.01403427 22.7819519 C90.99204506 25.58062949 90.97794501 28.37923972 90.96633911 31.17797852 C90.93270702 39.13534782 90.89100756 47.09260504 90.82861328 55.04980469 C90.79101932 59.91616534 90.76795965 64.78241114 90.75430679 69.64889526 C90.74623879 71.50531215 90.73261068 73.36171334 90.71337509 75.2180481 C90.68697283 77.81087519 90.67901004 80.4031492 90.67529297 82.99609375 C90.6629361 83.76605682 90.65057922 84.5360199 90.6378479 85.32931519 C90.64489169 89.39458918 90.64489169 89.39458918 92.33279419 93.00024414 C94.10481296 94.25714052 94.10481296 94.25714052 97 94 C97.33 95.32 97.66 96.64 98 98 C83.48 98 68.96 98 54 98 C53.67 96.68 53.34 95.36 53 94 C55.97 94.33 58.94 94.66 62 95 C61.96447021 93.73816895 61.92894043 92.47633789 61.89233398 91.17626953 C61.76221561 86.50615575 61.63896742 81.8358818 61.51782227 77.16552734 C61.46436734 75.14203921 61.40903534 73.11859977 61.35180664 71.09521484 C61.26999304 68.19118757 61.19487438 65.28705356 61.12109375 62.3828125 C61.09405869 61.47443634 61.06702362 60.56606018 61.03916931 59.63015747 C61.01907303 58.78943695 60.99897675 57.94871643 60.97827148 57.08251953 C60.95828598 56.34083527 60.93830048 55.599151 60.91770935 54.83499146 C61 53 61 53 62 51 C53.42 51 44.84 51 36 51 C36.08378906 54.00867188 36.16757812 57.01734375 36.25390625 60.1171875 C36.33125437 63.0229181 36.40680413 65.92869025 36.48217773 68.83447266 C36.53563266 70.85796079 36.59096466 72.88140023 36.64819336 74.90478516 C36.73000696 77.80881243 36.80512562 80.71294644 36.87890625 83.6171875 C36.90594131 84.52556366 36.93297638 85.43393982 36.96083069 86.36984253 C36.98092697 87.21056305 37.00102325 88.05128357 37.02172852 88.91748047 C37.04171402 89.65916473 37.06169952 90.400849 37.08229065 91.16500854 C37 93 37 93 36 95 C40.455 94.505 40.455 94.505 45 94 C44.505 95.98 44.505 95.98 44 98 C29.48 98 14.96 98 0 98 C0 97.01 0 96.02 0 95 C2.64 95 5.28 95 8 95 C8 64.97 8 34.94 8 4 C5.03 4 2.06 4 -1 4 C-0.67 2.68 -0.34 1.36 0 0 Z " fill="#FEFEFE" transform="translate(539,58)"/>
<path d="M0 0 C1.24072266 0.00322266 2.48144531 0.00644531 3.75976562 0.00976562 C5.03658203 0.01814453 6.31339844 0.02652344 7.62890625 0.03515625 C9.58473633 0.04192383 9.58473633 0.04192383 11.58007812 0.04882812 C14.78390177 0.06056374 17.98762988 0.07698262 21.19140625 0.09765625 C22.36740655 2.44965685 22.31225166 3.83500026 22.30493164 6.45556641 C22.30485611 7.35634918 22.30478058 8.25713196 22.30470276 9.18521118 C22.29954147 10.15920868 22.29438019 11.13320618 22.2890625 12.13671875 C22.28764755 13.13271088 22.2862326 14.128703 22.28477478 15.15487671 C22.27916561 18.34416678 22.26661155 21.53338731 22.25390625 24.72265625 C22.24889243 26.8815094 22.24432932 29.04036366 22.24023438 31.19921875 C22.2291932 36.49872175 22.21244613 41.79818403 22.19140625 47.09765625 C22.95710937 46.14375 23.7228125 45.18984375 24.51171875 44.20703125 C28.52785739 39.20376089 34.0371035 37.41643541 40.19140625 36.09765625 C42.94140625 36.22265625 42.94140625 36.22265625 46.19140625 37.09765625 C47.06410156 37.31164062 47.93679688 37.525625 48.8359375 37.74609375 C54.19325134 39.30954009 57.50519422 40.61451656 60.31640625 45.59765625 C62.41833837 50.07768676 63.31794327 54.01358857 63.30493164 58.95800781 C63.30481834 60.39904877 63.30481834 60.39904877 63.30470276 61.86920166 C63.29954147 62.89849792 63.29438019 63.92779419 63.2890625 64.98828125 C63.28764755 66.04803162 63.2862326 67.10778198 63.28477478 68.199646 C63.27918007 71.58234487 63.2666285 74.9649774 63.25390625 78.34765625 C63.24889057 80.64192613 63.24432778 82.93619704 63.24023438 85.23046875 C63.22921236 90.85288719 63.21247946 96.47526698 63.19140625 102.09765625 C63.805 101.75992188 64.41859375 101.4221875 65.05078125 101.07421875 C67.59707755 99.91258723 68.6128376 100.17673887 71.19140625 101.09765625 C71.19140625 102.41765625 71.19140625 103.73765625 71.19140625 105.09765625 C57.99140625 105.09765625 44.79140625 105.09765625 31.19140625 105.09765625 C30.86140625 104.10765625 30.53140625 103.11765625 30.19140625 102.09765625 C29.20140625 102.09765625 28.21140625 102.09765625 27.19140625 102.09765625 C27.19140625 103.08765625 27.19140625 104.07765625 27.19140625 105.09765625 C13.99140625 105.09765625 0.79140625 105.09765625 -12.80859375 105.09765625 C-12.80859375 104.10765625 -12.80859375 103.11765625 -12.80859375 102.09765625 C-10.16859375 102.09765625 -7.52859375 102.09765625 -4.80859375 102.09765625 C-4.82334244 100.89940216 -4.83809113 99.70114807 -4.85328674 98.46658325 C-4.99136282 87.19469567 -5.12409924 75.92275628 -5.25155735 64.65074348 C-5.31726361 58.85517954 -5.38487568 53.05965069 -5.45678711 47.26416016 C-5.52606777 41.67511269 -5.59041563 36.08602853 -5.65128899 30.49688339 C-5.67543415 28.3605428 -5.70138114 26.22422181 -5.72912788 24.08792496 C-5.76757627 21.10438353 -5.79971763 18.12083774 -5.83032227 15.13720703 C-5.84326828 14.24672668 -5.85621429 13.35624634 -5.86955261 12.43878174 C-5.92264591 6.32576057 -5.92264591 6.32576057 -4.80859375 4.09765625 C-7.44859375 4.42765625 -10.08859375 4.75765625 -12.80859375 5.09765625 C-13.13859375 3.77765625 -13.46859375 2.45765625 -13.80859375 1.09765625 C-9.1564444 0.35031264 -4.70991433 -0.02170467 0 0 Z M27.62890625 46.66015625 C22.4941963 51.7948662 21.16631118 58.40037166 21.07788086 65.42895508 C21.07803815 67.13754073 21.08362583 68.84613183 21.09375 70.5546875 C21.09516495 71.4576506 21.0965799 72.36061371 21.09803772 73.29093933 C21.10361802 76.16404588 21.11616691 79.03707341 21.12890625 81.91015625 C21.1339238 83.86262908 21.13848626 85.81510314 21.14257812 87.76757812 C21.153581 92.5443011 21.17083207 97.32096529 21.19140625 102.09765625 C26.47140625 102.09765625 31.75140625 102.09765625 37.19140625 102.09765625 C37.26581474 95.26581172 37.32013109 88.4342055 37.35620117 81.60205078 C37.37124536 79.28006885 37.3916857 76.95811513 37.41772461 74.63623047 C37.4542997 71.28996802 37.47117679 67.94408281 37.484375 64.59765625 C37.49985886 63.56713135 37.51534271 62.53660645 37.53129578 61.47485352 C37.53272434 55.29380855 36.74089994 50.74359384 34.19140625 45.09765625 C30.26038673 44.75058463 30.26038673 44.75058463 27.62890625 46.66015625 Z " fill="#FEFEFE" transform="translate(896.80859375,50.90234375)"/>
<path d="M0 0 C0 0.66 0 1.32 0 2 C0.99 1.67 1.98 1.34 3 1 C5.6640625 2.14453125 5.6640625 2.14453125 8.625 3.8125 C10.09839844 4.62654297 10.09839844 4.62654297 11.6015625 5.45703125 C14 7 14 7 15 9 C15.845625 9.495 16.69125 9.99 17.5625 10.5 C18.366875 10.995 19.17125 11.49 20 12 C20 12.66 20 13.32 20 14 C20.66 14 21.32 14 22 14 C22.495 15.485 22.495 15.485 23 17 C23.66 17.33 24.32 17.66 25 18 C31.24629029 28.47764824 33.43171347 40.92498266 32 53 C29.98609478 60.69415071 26.7867017 68.36129578 21 74 C20.30003906 74.33644531 19.60007812 74.67289062 18.87890625 75.01953125 C16.64444518 75.9087296 16.64444518 75.9087296 16 79 C7.00546218 86.2928685 -4.03126503 89.5247998 -15.4375 88.6875 C-20.40351883 88.16038068 -25.15324745 87.1918244 -30 86 C-30 85.34 -30 84.68 -30 84 C-30.88751953 83.76216797 -30.88751953 83.76216797 -31.79296875 83.51953125 C-37.15800893 81.9354003 -40.27628797 80.3443307 -44 76 C-44.804375 75.319375 -45.60875 74.63875 -46.4375 73.9375 C-50.31298102 69.49487542 -52.51025704 64.30804437 -55 59 C-55.56074219 58.0409375 -55.56074219 58.0409375 -56.1328125 57.0625 C-57.38405785 54.08656511 -57.47846616 51.27339683 -57.6875 48.0625 C-57.77386719 46.85722656 -57.86023438 45.65195313 -57.94921875 44.41015625 C-57.99444832 41.37281687 -57.67938708 38.93719976 -57 36 C-57 35.01 -57 34.02 -57 33 C-56.34 33 -55.68 33 -55 33 C-55.495 31.515 -55.495 31.515 -56 30 C-55.34 30 -54.68 30 -54 30 C-54.33 29.01 -54.66 28.02 -55 27 C-54.0625 24.8125 -54.0625 24.8125 -53 23 C-52.34 23 -51.68 23 -51 23 C-50.67 21.35 -50.34 19.7 -50 18 C-49.01 17.67 -48.02 17.34 -47 17 C-47 16.01 -47 15.02 -47 14 C-44.5859375 11.84375 -44.5859375 11.84375 -41.375 9.5 C-40.33085937 8.7265625 -39.28671875 7.953125 -38.2109375 7.15625 C-30.5326087 2 -30.5326087 2 -26 2 C-25.67 1.34 -25.34 0.68 -25 0 C-16.99324371 -1.68396065 -7.99401046 -1.63979702 0 0 Z M-22 14 C-22.6358842 17.22170984 -22.69726515 20.41074796 -22.75 23.6875 C-22.79447266 25.02651367 -22.79447266 25.02651367 -22.83984375 26.39257812 C-22.91051427 28.59514277 -22.96321939 30.79665131 -23 33 C-29.69980859 33.77299244 -36.25454946 34.1291682 -43 34 C-44.49517388 39.76709923 -45.51445191 45.03235788 -45 51 C-43.84223704 52.79852644 -43.84223704 52.79852644 -42 54 C-39.78026057 54.41179762 -39.78026057 54.41179762 -37.33203125 54.29296875 C-36.52741455 54.28547607 -35.72279785 54.2779834 -34.89379883 54.27026367 C-33.36855591 54.22929565 -33.36855591 54.22929565 -31.8125 54.1875 C-28.574375 54.125625 -25.33625 54.06375 -22 54 C-22 60.93 -22 67.86 -22 75 C-18.00247104 75.79950579 -14.82882522 76.13497845 -10.8125 76.125 C-9.24435547 76.12886719 -9.24435547 76.12886719 -7.64453125 76.1328125 C-5.02251139 76.17866723 -5.02251139 76.17866723 -3 75 C-3 68.07 -3 61.14 -3 54 C6.8125 54.1875 6.8125 54.1875 9.89379883 54.27026367 C10.69841553 54.27775635 11.50303223 54.28524902 12.33203125 54.29296875 C13.56530151 54.31653442 13.56530151 54.31653442 14.82348633 54.34057617 C17.06550053 54.16079349 17.06550053 54.16079349 18.76904297 52.70068359 C20.79833875 49.89701949 20.39108577 46.76010627 20.3125 43.4375 C20.31733398 42.40979492 20.31733398 42.40979492 20.32226562 41.36132812 C20.37978386 37.22444949 20.37978386 37.22444949 18 34 C15.76964703 33.72258755 15.76964703 33.72258755 13.2109375 33.8046875 C12.26992187 33.81113281 11.32890625 33.81757812 10.359375 33.82421875 C9.37453125 33.84097656 8.3896875 33.85773438 7.375 33.875 C6.38242188 33.88402344 5.38984375 33.89304687 4.3671875 33.90234375 C1.91121866 33.92595884 -0.54427168 33.95889201 -3 34 C-2.97643433 33.11477661 -2.97643433 33.11477661 -2.95239258 32.21166992 C-2.89002061 29.53704414 -2.85100343 26.86257136 -2.8125 24.1875 C-2.78736328 23.25873047 -2.76222656 22.32996094 -2.73632812 21.37304688 C-2.72182617 20.0340332 -2.72182617 20.0340332 -2.70703125 18.66796875 C-2.68346558 17.43469849 -2.68346558 17.43469849 -2.65942383 16.17651367 C-3.08195639 13.47624286 -3.83000886 12.6166114 -6 11 C-8.83109636 10.52329878 -8.83109636 10.52329878 -11.9375 10.625 C-13.49791016 10.61339844 -13.49791016 10.61339844 -15.08984375 10.6015625 C-18.53067738 11.0726565 -19.81257772 11.26956423 -22 14 Z " fill="#FCDD0C" transform="translate(177,89)"/>
<path d="M0 0 C0 0.66 0 1.32 0 2 C1.32 2.33 2.64 2.66 4 3 C4 3.66 4 4.32 4 5 C4.556875 5.2475 5.11375 5.495 5.6875 5.75 C8.39971127 7.21606015 10.63587365 9.02989471 13 11 C13.99 9.515 13.99 9.515 15 8 C15.66 8 16.32 8 17 8 C17.37125 7.071875 17.37125 7.071875 17.75 6.125 C19.23954094 3.5927804 20.37581048 3.19281342 23 2 C23.43957031 1.52949219 23.87914063 1.05898438 24.33203125 0.57421875 C31.50936332 -6.19970356 43.31267909 -6.33294601 52.5546875 -6.30078125 C58.03298865 -5.82251686 62.92711128 -4.04743617 68 -2 C68 -1.34 68 -0.68 68 0 C69.65 0.33 71.3 0.66 73 1 C73.33 1.99 73.66 2.98 74 4 C74.5775 4.12375 75.155 4.2475 75.75 4.375 C79.13640447 5.31566791 80.75405764 7.37973392 83 10 C83 10.99 83 11.98 83 13 C83.66 13 84.32 13 85 13 C85 13.99 85 14.98 85 16 C85.66 16 86.32 16 87 16 C91.85800153 27.29207226 94.35091183 36.684406 95 49 C93.041036 48.69147815 91.08284287 48.3780582 89.125 48.0625 C88.03445312 47.88847656 86.94390625 47.71445313 85.8203125 47.53515625 C83 47 83 47 81 46 C79.55151418 45.91657841 78.09929131 45.89267139 76.6484375 45.90234375 C75.79765625 45.90556641 74.946875 45.90878906 74.0703125 45.91210938 C73.18085938 45.92048828 72.29140625 45.92886719 71.375 45.9375 C70.02921875 45.94426758 70.02921875 45.94426758 68.65625 45.95117188 C66.43743352 45.96297409 64.21874982 45.97943845 62 46 C61.67 46.66 61.34 47.32 61 48 C60.34 47.67 59.68 47.34 59 47 C59 47.66 59 48.32 59 49 C58.443125 49.12375 57.88625 49.2475 57.3125 49.375 C54.91444719 49.97334985 54.91444719 49.97334985 52.375 51.0625 C50 52 50 52 48 52 C48 52.66 48 53.32 48 54 C45.73017559 56.0176217 43.66367404 57.70720263 40.875 58.9375 C38.20718447 60.44926213 37.46226759 62.30942764 36 65 C35.16901066 66.27236729 34.33547646 67.54307458 33.5 68.8125 C31.4264534 72.11273933 29.9389918 75.36183372 28.67578125 79.04296875 C28 81 28 81 26.9375 83.1953125 C25.64627834 87.05821729 25.6581355 90.63981292 25.6875 94.6875 C25.69313965 95.4926001 25.6987793 96.2977002 25.70458984 97.12719727 C25.90764505 107.08997049 28.78634639 114.1741797 33.79296875 122.75 C35 125 35 125 35 127 C33.68 127.33 32.36 127.66 31 128 C31 128.66 31 129.32 31 130 C27.535 130.99 27.535 130.99 24 132 C24 132.66 24 133.32 24 134 C22.23244474 134.84026396 20.46082737 135.67198722 18.6875 136.5 C17.70136719 136.9640625 16.71523437 137.428125 15.69921875 137.90625 C13 139 13 139 10 139 C10 138.34 10 137.68 10 137 C9.05125 136.855625 8.1025 136.71125 7.125 136.5625 C4 136 4 136 2 135 C2 134.34 2 133.68 2 133 C1.32066406 132.92523438 0.64132813 132.85046875 -0.05859375 132.7734375 C-3.87704245 131.76938326 -6.82233664 129.7965623 -10.0625 127.625 C-10.67416016 127.22539062 -11.28582031 126.82578125 -11.91601562 126.4140625 C-18.73389112 121.93269136 -18.73389112 121.93269136 -21 120 C-21 119.34 -21 118.68 -21 118 C-21.55816406 117.92136719 -22.11632812 117.84273438 -22.69140625 117.76171875 C-28.57728873 115.81967631 -33.82261314 109.6636715 -37.625 104.875 C-39.58161144 102.50647036 -41.20225274 100.99775242 -43.5625 99.125 C-47.85019983 95.48745043 -51.12887643 91.21667663 -54.5 86.75 C-55.04084229 86.0398877 -55.58168457 85.32977539 -56.13891602 84.59814453 C-56.63963623 83.92122559 -57.14035645 83.24430664 -57.65625 82.546875 C-58.33397461 81.63180176 -58.33397461 81.63180176 -59.02539062 80.69824219 C-60 79 -60 79 -60 76 C-60.66 76 -61.32 76 -62 76 C-65 70.375 -65 70.375 -65 67 C-65.66 67 -66.32 67 -67 67 C-67.12375 66.154375 -67.2475 65.30875 -67.375 64.4375 C-67.91770765 61.01403556 -67.91770765 61.01403556 -69.01953125 57.87109375 C-70.16562822 53.34606548 -70.33104314 49.26820324 -70.3125 44.625 C-70.32861328 43.82578125 -70.34472656 43.0265625 -70.36132812 42.203125 C-70.36831512 33.56719631 -67.42519404 26.41442088 -63.6875 18.75 C-63.13449219 17.58984375 -62.58148438 16.4296875 -62.01171875 15.234375 C-59.67907137 11.48402154 -57.48324379 9.67156914 -54 7 C-53.13375 6.0925 -52.2675 5.185 -51.375 4.25 C-49.09795733 2.09280168 -48.05256297 1.33917366 -45 1 C-45 0.34 -45 -0.32 -45 -1 C-43.79731319 -1.65628849 -42.58747446 -2.29947505 -41.375 -2.9375 C-40.70210937 -3.29714844 -40.02921875 -3.65679687 -39.3359375 -4.02734375 C-26.35759862 -9.4313678 -11.90153691 -6.05995687 0 0 Z M-39 4 C-39.99 4.433125 -40.98 4.86625 -42 5.3125 C-45.26445256 7.14875457 -47.43570461 9.29324375 -50 12 C-50.99 12.495 -50.99 12.495 -52 13 C-53.00045788 14.66742981 -53.99293352 16.34069997 -54.92578125 18.046875 C-55.91899542 19.85271894 -56.98781358 21.61642222 -58.0625 23.375 C-62.06464629 30.45391253 -63.51810395 37.35788379 -63.375 45.4375 C-63.36484863 46.27152344 -63.35469727 47.10554688 -63.34423828 47.96484375 C-63.06932464 58.87614504 -59.49309775 66.64928992 -54 76 C-53.34 76 -52.68 76 -52 76 C-51.938125 76.556875 -51.87625 77.11375 -51.8125 77.6875 C-50.66851791 80.94344904 -48.45123064 82.607132 -46 85 C-45.54625 85.804375 -45.0925 86.60875 -44.625 87.4375 C-42.72206666 90.4382795 -40.51162601 92.21582766 -37.77734375 94.44140625 C-36.02861306 95.97490855 -34.63022331 97.55554181 -33.1875 99.375 C-32.465625 100.24125 -31.74375 101.1075 -31 102 C-30.34 102 -29.68 102 -29 102 C-28.79375 102.556875 -28.5875 103.11375 -28.375 103.6875 C-26.42316968 106.97012371 -24.05769006 108.70673246 -21 111 C-20.34 111 -19.68 111 -19 111 C-19 111.66 -19 112.32 -19 113 C-17.68 113.33 -16.36 113.66 -15 114 C-15 114.66 -15 115.32 -15 116 C-13.03345563 117.44903269 -11.07983209 118.72714276 -9 120 C-8.27296875 120.45632812 -7.5459375 120.91265625 -6.796875 121.3828125 C-5.13410282 122.40729471 -3.45446816 123.404753 -1.76171875 124.37890625 C1 126 1 126 3.85546875 127.96484375 C6.98692136 129.92148455 9.37477535 131.2482663 13 132 C17.93183401 130.4017693 21.78025657 128.03549285 26 125 C25.26427386 120.87993364 24.07928477 117.6595412 22 114 C21.34 113.67 20.68 113.34 20 113 C20.495 111.515 20.495 111.515 21 110 C20.34 110 19.68 110 19 110 C19.33 108.35 19.66 106.7 20 105 C19.34 105 18.68 105 18 105 C18.165 103.9275 18.33 102.855 18.5 101.75 C18.96859544 98.16587813 18.97763496 94.73588459 18.875 91.125 C18.81476884 79.10888357 24.10818254 67.00783205 32 58 C32.66 57.67 33.32 57.34 34 57 C34 56.34 34 55.68 34 55 C34.66 55 35.32 55 36 55 C36.7425 54.2575 37.485 53.515 38.25 52.75 C41.06368188 49.93631812 43.5769607 48.02846773 47 46 C47.68964844 45.57460937 48.37929687 45.14921875 49.08984375 44.7109375 C59.41649644 39.13160856 73.52960759 37.80315875 85 40 C85.66 39.67 86.32 39.34 87 39 C86.67 36.36 86.34 33.72 86 31 C85.34 31 84.68 31 84 31 C84.33 30.01 84.66 29.02 85 28 C84.12085312 25.3430809 84.12085312 25.3430809 83 23 C82.34 23 81.68 23 81 23 C80.896875 22.21625 80.79375 21.4325 80.6875 20.625 C80.22404978 17.66954819 80.22404978 17.66954819 77 16 C76.67 15.01 76.34 14.02 76 13 C75.34 13 74.68 13 74 13 C73.67 12.01 73.34 11.02 73 10 C69.78282646 7.6699963 69.78282646 7.6699963 66 7 C66 6.34 66 5.68 66 5 C53.23135616 -0.04643093 43.75618601 -1.27784378 30.90625 4.16015625 C29.96265625 4.57587891 29.96265625 4.57587891 29 5 C29 5.66 29 6.32 29 7 C28.01 7 27.02 7 26 7 C24.47890069 8.26973898 24.47890069 8.26973898 23 10 C22.01 10.9590625 22.01 10.9590625 21 11.9375 C17.32360224 15.42254197 17.32360224 15.42254197 16 20 C15.34 20 14.68 20 14 20 C13.67 21.32 13.34 22.64 13 24 C12.34 24 11.68 24 11 24 C10.01 21.03 10.01 21.03 9 18 C8.34 18 7.68 18 7 18 C7 17.01 7 16.02 7 15 C5.08066582 13.19799189 3.22097629 11.63411889 1.125 10.0625 C0.53436768 9.61592041 -0.05626465 9.16934082 -0.66479492 8.70922852 C-12.57093808 -0.02623074 -25.33184135 -2.45440825 -39 4 Z " fill="#FADD32" transform="translate(90,38)"/>
<path d="M0 0 C5.55433938 -0.19203833 10.57217704 0.46840014 16 1.625 C16.76828125 1.76550781 17.5365625 1.90601562 18.328125 2.05078125 C24.08871081 3.27539558 28.3135137 5.29571068 32 10 C36.96819857 18.74999538 35.56867644 30.88830714 35.6875 40.625 C35.7207226 42.5065335 35.75521671 44.388045 35.79101562 46.26953125 C35.87535375 50.84623188 35.94242826 55.42288762 36 60 C37.98 60.495 37.98 60.495 40 61 C41.67110042 58.03821227 42.32682752 55.62928808 42.625 52.25 C42.69976562 51.45078125 42.77453125 50.6515625 42.8515625 49.828125 C42.92503906 48.92320312 42.92503906 48.92320312 43 48 C43.99 47.67 44.98 47.34 46 47 C46.52862694 54.04835919 46.62553861 59.40991919 42.58203125 65.37890625 C38.87367602 69.1788258 35.5981404 70.37798077 30.27612305 70.4675293 C29.58687744 70.45761963 28.89763184 70.44770996 28.1875 70.4375 C27.12172729 70.42940308 27.12172729 70.42940308 26.03442383 70.42114258 C18.73831933 70.20938229 14.05720866 68.30019767 9 63 C8.443125 63.78375 7.88625 64.5675 7.3125 65.375 C4.09504856 69.02724218 1.51609644 69.86201013 -3.3046875 70.30078125 C-11.8986524 70.32898901 -17.1918853 70.15992497 -23.9375 64.5625 C-26 62 -26 62 -26 58 C-26.66 57.67 -27.32 57.34 -28 57 C-27.72986927 50.92205857 -27.02699406 46.83239287 -23 42 C-18.17665167 37.6589865 -13.46073789 35.72507498 -7 36 C-6.2575 35.814375 -5.515 35.62875 -4.75 35.4375 C-0.45653688 34.75444905 3.70929836 35.45845513 8 36 C7.9278125 35.36835937 7.855625 34.73671875 7.78125 34.0859375 C7.08808067 27.40455533 6.97069229 20.87866525 7.16015625 14.1640625 C6.99729319 10.94652393 6.51618853 8.83125 5 6 C2.59889783 4.91975342 2.59889783 4.91975342 0 5 C-3.31460705 6.70892499 -3.31460705 6.70892499 -3.6875 10.125 C-3.790625 11.07375 -3.89375 12.0225 -4 13 C-2.68 12.67 -1.36 12.34 0 12 C2.62650602 19.87951807 2.62650602 19.87951807 1 24 C-1.4375 26.6875 -1.4375 26.6875 -4 29 C-4.66 29.66 -5.32 30.32 -6 31 C-11.56988388 31.3208648 -16.50549424 30.99633718 -21.1875 27.875 C-23.87868517 23.60622353 -24.36472507 20.46189422 -23.625 15.46875 C-22.787665 11.91007623 -22.08625907 9.00171532 -19.34375 6.47265625 C-16.49102896 4.77432021 -14.32692464 4 -11 4 C-10.67 3.34 -10.34 2.68 -10 2 C-6.35526801 1.10906551 -3.57257469 0.76333953 0 2 C0 1.34 0 0.68 0 0 Z M2.875 40.875 C-0.61144695 44.82630654 -0.18335888 48.45612007 -0.1875 53.5 C-0.19974609 54.28503906 -0.21199219 55.07007813 -0.22460938 55.87890625 C-0.22986254 57.92063726 -0.1222018 59.96192251 0 62 C0.66 62.66 1.32 63.32 2 64 C2.99 64 3.98 64 5 64 C8.36005524 58.620384 8.3672647 54.24621851 8.1875 48.125 C8.17396484 47.24585938 8.16042969 46.36671875 8.14648438 45.4609375 C8.11136623 43.30702448 8.05756694 41.15342996 8 39 C4.90259459 38.66918918 4.90259459 38.66918918 2.875 40.875 Z " fill="#FEFEFE" transform="translate(352,87)"/>
<path d="M0 0 C2.9375 2.5 2.9375 2.5 5 5 C5.5775 5.66 6.155 6.32 6.75 7 C9.81045013 11.89672021 9.2117936 18.08667948 9.31640625 23.67578125 C9.33718735 24.6009404 9.35796844 25.52609955 9.37937927 26.47929382 C9.4445656 29.42362307 9.50361558 32.36803865 9.5625 35.3125 C9.60571464 37.31315983 9.64932986 39.31381106 9.69335938 41.31445312 C9.8002152 46.20954779 9.90156919 51.10472897 10 56 C11.32 56 12.64 56 14 56 C15.58255197 51.67435795 16.45144652 47.571279 17 43 C17.99 43 18.98 43 20 43 C20.46147347 50.22975106 19.22405917 56.39622342 14.4375 62 C10.43094629 65.28742869 7.32470929 65.2138434 2.3125 65.25 C1.61705078 65.270625 0.92160156 65.29125 0.20507812 65.3125 C-6.37390372 65.36164272 -10.97384449 63.85371674 -15.9375 59.3125 C-16.618125 58.549375 -17.29875 57.78625 -18 57 C-18.268125 57.598125 -18.53625 58.19625 -18.8125 58.8125 C-20.71162349 62.31088537 -22.20036361 63.73345454 -26 65 C-33.83244425 65.51751855 -40.9819797 65.76893683 -48 62 C-52.96127471 56.91151312 -53.29582523 52.48959417 -53.21484375 45.66015625 C-52.83402647 40.9449459 -50.98218 38.88144359 -47.5625 35.8125 C-45.39606394 34.28014279 -43.47811658 32.93997526 -41 32 C-40.34 32.33 -39.68 32.66 -39 33 C-39 32.34 -39 31.68 -39 31 C-32.07 31 -25.14 31 -18 31 C-18.33 30.01 -18.66 29.02 -19 28 C-19.05861908 26.44248231 -19.06124192 24.88247048 -19.02734375 23.32421875 C-19.00897461 21.95813477 -19.00897461 21.95813477 -18.99023438 20.56445312 C-18.95529146 18.65812316 -18.91627937 16.75186311 -18.87304688 14.84570312 C-18.81263639 9.80320439 -18.98109427 5.72661459 -21 1 C-25.10223585 -0.01540112 -25.10223585 -0.01540112 -29 1 C-29.40729228 3.32156597 -29.74438677 5.6568787 -30 8 C-28.68 7.67 -27.36 7.34 -26 7 C-24.12598994 12.73226605 -23.70950554 15.2152488 -26.1875 20.5625 C-28.57023914 23.76687332 -30.1885494 24.75261617 -34 26 C-39.15282304 26.28076279 -42.82276691 25.88292481 -47 22.75 C-49.50302074 19.30834648 -51.14605822 16.89875682 -50.8125 12.5625 C-49.02964267 6.93964227 -47.02446071 3.23798579 -42 0 C-28.68670607 -5.96802831 -13.08931398 -7.33980223 0 0 Z M-23.66796875 35.88671875 C-26.9223688 40.23137008 -26.56786791 43.54406365 -26.3125 48.8125 C-26.28994141 49.69615234 -26.26738281 50.57980469 -26.24414062 51.49023438 C-26.18547428 53.6608891 -26.09579979 55.8306669 -26 58 C-24.68 58.33 -23.36 58.66 -22 59 C-18.1279277 53.32146877 -17.46541724 49.35417692 -17.75 42.5625 C-17.77707031 41.32209961 -17.77707031 41.32209961 -17.8046875 40.05664062 C-17.8513786 38.03725067 -17.92310607 36.01846555 -18 34 C-21.13637885 33.71130651 -21.13637885 33.71130651 -23.66796875 35.88671875 Z " fill="#FEFEFE" transform="translate(766,92)"/>
<path d="M0 0 C2.7097878 0.34294997 3.84097959 -0.4391773 6.19140625 -1.72265625 C6.52870835 2.31868942 6.86054459 6.36046612 7.19140625 10.40234375 C7.28679687 11.54445313 7.3821875 12.6865625 7.48046875 13.86328125 C7.57070313 14.971875 7.6609375 16.08046875 7.75390625 17.22265625 C7.83769531 18.23859863 7.92148437 19.25454102 8.0078125 20.30126953 C8.19289445 23.30146765 8.22274996 26.27226522 8.19140625 29.27734375 C5.875 29.125 5.875 29.125 3.19140625 28.27734375 C1.6015625 25.8359375 1.6015625 25.8359375 0.25390625 22.71484375 C-3.41222764 14.79975469 -8.29921388 6.49114868 -16.05859375 1.96484375 C-21.3376294 0.64508484 -26.54674292 0.31834739 -31.55859375 2.71484375 C-38.83689643 7.58389346 -40.53822542 16.17622469 -42.19335938 24.24658203 C-43.2783177 30.6325777 -43.25432664 37.05754679 -43.19970703 43.51806641 C-43.18360562 45.77567925 -43.19966376 48.03150294 -43.21875 50.2890625 C-43.23709422 62.80946243 -42.46378819 76.81326659 -34.80859375 87.27734375 C-31.31666771 90.5193214 -28.10384515 92.03748238 -23.43359375 92.90234375 C-15.28653286 91.49767808 -10.14924398 88.25384396 -5.05859375 81.71484375 C-0.97907078 75.88177804 2.26251296 69.75536657 5.19140625 63.27734375 C7.17140625 63.77234375 7.17140625 63.77234375 9.19140625 64.27734375 C8.86140625 74.50734375 8.53140625 84.73734375 8.19140625 95.27734375 C4.19140625 94.27734375 4.19140625 94.27734375 2.375 93.625 C-0.86974271 93.10839517 -3.55599924 93.97410973 -6.74609375 94.71484375 C-22.93281956 98.08842229 -40.37133754 98.27220226 -54.8828125 89.5859375 C-57.59482119 87.74309184 -59.66878879 85.76414411 -61.80859375 83.27734375 C-62.52982422 82.46716797 -62.52982422 82.46716797 -63.265625 81.640625 C-73.89597084 68.80347319 -74.14202995 54.2319833 -72.80859375 38.27734375 C-70.93798124 25.51915536 -66.60765913 14.9807656 -56.80859375 6.27734375 C-48.51659375 0.27734375 -48.51659375 0.27734375 -43.80859375 0.27734375 C-43.47859375 -0.38265625 -43.14859375 -1.04265625 -42.80859375 -1.72265625 C-30.15733987 -7.01852997 -12.87574755 -3.31295312 0 0 Z " fill="#FEFEFE" transform="translate(305.80859375,60.72265625)"/>
<path d="M0 0 C0.65784988 -0.00095673 1.31569977 -0.00191345 1.9934845 -0.00289917 C3.37773739 -0.00357743 4.76199352 -0.00174791 6.14624023 0.00244141 C8.27269539 0.0078205 10.39894179 0.00247138 12.52539062 -0.00390625 C13.87109422 -0.00324591 15.21679768 -0.00196566 16.5625 0 C17.78864014 0.00112793 19.01478027 0.00225586 20.27807617 0.00341797 C23.08203125 0.1328125 23.08203125 0.1328125 24.08203125 1.1328125 C24.20739981 4.17610437 24.26815568 7.19778623 24.28735352 10.24243164 C24.29725311 11.19842758 24.30715271 12.15442352 24.31735229 13.13938904 C24.34906977 16.31555664 24.37376506 19.49173923 24.3984375 22.66796875 C24.41899819 24.86372783 24.43999441 27.05948286 24.46141052 29.25523376 C24.51672264 35.04697408 24.56609147 40.83875064 24.61425781 46.6305542 C24.66440628 52.53563684 24.720127 58.44066654 24.77539062 64.34570312 C24.88308392 75.94136108 24.98450392 87.5370649 25.08203125 99.1328125 C28.05203125 100.1228125 28.05203125 100.1228125 31.08203125 101.1328125 C31.08203125 102.4528125 31.08203125 103.7728125 31.08203125 105.1328125 C17.55203125 105.1328125 4.02203125 105.1328125 -9.91796875 105.1328125 C-9.91796875 103.8128125 -9.91796875 102.4928125 -9.91796875 101.1328125 C-7.60796875 101.4628125 -5.29796875 101.7928125 -2.91796875 102.1328125 C-3.02562571 90.64949093 -3.13829035 79.16623037 -3.25730801 67.68302059 C-3.31241902 62.35063113 -3.36581976 57.01823609 -3.4152832 51.68579102 C-3.46310156 46.537531 -3.51545 41.38933498 -3.5709095 36.24115181 C-3.5912541 34.27923748 -3.60997984 32.31730565 -3.62704277 30.35536003 C-3.65126234 27.60264662 -3.68129182 24.85005224 -3.71264648 22.09741211 C-3.71840195 21.29036331 -3.72415741 20.48331451 -3.73008728 19.65180969 C-3.78944068 15.05283734 -4.16579061 10.67167881 -4.91796875 6.1328125 C-4.25796875 6.1328125 -3.59796875 6.1328125 -2.91796875 6.1328125 C-2.91796875 5.4728125 -2.91796875 4.8128125 -2.91796875 4.1328125 C-5.88796875 4.1328125 -8.85796875 4.1328125 -11.91796875 4.1328125 C-11.58796875 3.1428125 -11.25796875 2.1528125 -10.91796875 1.1328125 C-7.46058597 -0.30772051 -3.68889897 0.00338409 0 0 Z M24.08203125 100.1328125 C24.08203125 100.7928125 24.08203125 101.4528125 24.08203125 102.1328125 C25.40203125 101.8028125 26.72203125 101.4728125 28.08203125 101.1328125 C26.76203125 100.8028125 25.44203125 100.4728125 24.08203125 100.1328125 Z " fill="#FEFEFE" transform="translate(796.91796875,50.8671875)"/>
<path d="M0 0 C7.03184171 6.41524365 8.76127864 14.15116503 9.18359375 23.35546875 C9.09375 25.91015625 9.09375 25.91015625 8.09375 26.91015625 C5.2094118 26.99880833 2.34912842 27.02536921 -0.53515625 27.0078125 C-1.83150246 27.00569008 -1.83150246 27.00569008 -3.15403748 27.00352478 C-5.92564292 26.99790864 -8.6971688 26.98535344 -11.46875 26.97265625 C-13.3430978 26.96764333 -15.21744685 26.96308006 -17.09179688 26.95898438 C-21.69664544 26.94793397 -26.30143421 26.93065855 -30.90625 26.91015625 C-30.59233188 29.30354635 -30.27702876 31.69674051 -29.9609375 34.08984375 C-29.82884888 35.09857544 -29.82884888 35.09857544 -29.6940918 36.12768555 C-28.61896394 47.00176648 -28.61896394 47.00176648 -22.90625 55.91015625 C-17.64533754 57.66379374 -11.9379344 57.87760503 -6.6171875 56.1796875 C-0.37503559 52.84170279 2.21338315 47.14004062 5.09375 40.91015625 C6.08375 40.91015625 7.07375 40.91015625 8.09375 40.91015625 C8.09375 46.42628115 5.02617013 51.64941231 1.484375 55.79296875 C-5.40514493 62.08202593 -12.81479397 63.40893478 -21.84375 63.28515625 C-22.68615234 63.29675781 -23.52855469 63.30835938 -24.39648438 63.3203125 C-33.52662545 63.27814095 -41.47608256 60.78655276 -48.40625 54.72265625 C-55.27956066 46.99018175 -59.0684058 38.68544852 -58.81640625 28.15625 C-57.69467799 17.56927185 -54.83616781 8.68460901 -46.8359375 1.37109375 C-43.42336599 -1.21251302 -39.9519606 -2.7392178 -35.90625 -4.08984375 C-34.936875 -4.42371094 -33.9675 -4.75757812 -32.96875 -5.1015625 C-21.67442241 -8.38190029 -9.82651618 -6.66565347 0 0 Z M-27.65625 -0.58984375 C-29.37380922 2.8452747 -29.62982599 6.14020333 -29.90625 9.91015625 C-29.99777344 11.03550781 -30.08929687 12.16085938 -30.18359375 13.3203125 C-30.43743452 16.5159244 -30.67312159 19.71296659 -30.90625 22.91015625 C-26.28625 22.91015625 -21.66625 22.91015625 -16.90625 22.91015625 C-16.66965238 11.25263126 -16.66965238 11.25263126 -18.90625 -0.08984375 C-20.73096891 -2.30880511 -20.73096891 -2.30880511 -23.34375 -2.46484375 C-25.95862952 -2.31512204 -25.95862952 -2.31512204 -27.65625 -0.58984375 Z " fill="#FEFEFE" transform="translate(698.90625,94.08984375)"/>
<path d="M0 0 C7.91846021 3.10872882 12.93572339 6.35910996 17.06640625 14.03515625 C19.38436238 19.38675081 20.34998155 25.17993347 19.9140625 30.9921875 C18.9140625 31.9921875 18.9140625 31.9921875 15.22045898 32.10571289 C13.57534958 32.10555374 11.93023519 32.09985738 10.28515625 32.08984375 C8.98881004 32.08772133 8.98881004 32.08772133 7.66627502 32.08555603 C4.89466958 32.07993989 2.1231437 32.06738469 -0.6484375 32.0546875 C-2.5227853 32.04967458 -4.39713435 32.04511131 -6.27148438 32.04101562 C-10.87633294 32.02996522 -15.48112171 32.0126898 -20.0859375 31.9921875 C-19.72257419 35.32988091 -19.31432196 38.66066389 -18.8984375 41.9921875 C-18.79724609 42.92675781 -18.69605469 43.86132812 -18.59179688 44.82421875 C-17.78911461 51.02873575 -16.3762727 56.25453003 -12.0859375 60.9921875 C-6.82502504 62.74582499 -1.1176219 62.95963628 4.203125 61.26171875 C10.44527691 57.92373404 13.03369565 52.22207187 15.9140625 45.9921875 C17.3990625 46.4871875 17.3990625 46.4871875 18.9140625 46.9921875 C16.99004224 54.90815658 13.70232553 60.69154017 6.90234375 65.37890625 C-3.24592411 70.42647403 -17.5153351 69.20980811 -28.0859375 65.9921875 C-36.57678433 62.32404546 -41.45578804 57.11194472 -45.078125 48.68359375 C-48.14697215 39.78393703 -49.81191333 28.91804032 -46.16015625 20.01171875 C-42.15178192 12.475975 -36.09100449 5.37772967 -28.0859375 1.9921875 C-27.0959375 1.9921875 -26.1059375 1.9921875 -25.0859375 1.9921875 C-24.7559375 1.3321875 -24.4259375 0.6721875 -24.0859375 -0.0078125 C-21.87109375 -0.38671875 -21.87109375 -0.38671875 -19.1484375 -0.5703125 C-4.83609804 -1.57938392 -4.83609804 -1.57938392 0 0 Z M-16.8359375 4.8046875 C-18.68101699 8.0335766 -19.2094941 10.57070631 -19.18359375 14.22265625 C-19.18037109 15.02509766 -19.17714844 15.82753906 -19.17382812 16.65429688 C-19.16544922 17.48767578 -19.15707031 18.32105469 -19.1484375 19.1796875 C-19.14392578 20.02466797 -19.13941406 20.86964844 -19.13476562 21.74023438 C-19.12299153 23.82424905 -19.1050564 25.90822727 -19.0859375 27.9921875 C-14.7959375 27.9921875 -10.5059375 27.9921875 -6.0859375 27.9921875 C-5.67020999 16.32176668 -5.67020999 16.32176668 -8.0859375 4.9921875 C-9.91065641 2.77322614 -9.91065641 2.77322614 -12.5234375 2.6171875 C-15.20161195 2.74247312 -15.20161195 2.74247312 -16.8359375 4.8046875 Z " fill="#FEFEFE" transform="translate(514.0859375,89.0078125)"/>
<path d="M0 0 C1.32 0 2.64 0 4 0 C3.67 8.25 3.34 16.5 3 25 C9.27 24.67 15.54 24.34 22 24 C22 25.32 22 26.64 22 28 C15.73 28 9.46 28 3 28 C3.11857839 34.70787682 3.24284866 41.41561547 3.37231445 48.12329102 C3.4155334 50.40353556 3.45721728 52.68380975 3.49731445 54.96411133 C3.55533393 58.24830038 3.61893614 61.53234199 3.68359375 64.81640625 C3.70030624 65.83021866 3.71701874 66.84403107 3.73423767 67.88856506 C3.37127223 77.15121222 3.37127223 77.15121222 7 85 C10.42616073 85.31044613 10.42616073 85.31044613 14 84 C17.36374981 80.31956127 19.53158233 75.99645511 20 71 C21.32 71 22.64 71 24 71 C22.90093107 77.92413423 21.04415033 83.90469196 16 89 C10.62691201 91.95319849 6.12981649 92.49382108 0.0625 92.4375 C-0.69740234 92.45748047 -1.45730469 92.47746094 -2.24023438 92.49804688 C-9.09749694 92.49219097 -14.49116434 90.50883566 -19.375 85.625 C-23.2493941 79.36636338 -23.34318796 73.35564157 -23.44921875 66.203125 C-23.47095657 65.17314392 -23.4926944 64.14316284 -23.51509094 63.08197021 C-23.5588712 60.91361896 -23.59810143 58.74517163 -23.63305664 56.57666016 C-23.68754244 53.24740668 -23.75768923 49.91875124 -23.83007812 46.58984375 C-23.87071309 44.48178839 -23.9104578 42.37371565 -23.94921875 40.265625 C-23.96997971 39.26670227 -23.99074066 38.26777954 -24.01213074 37.23858643 C-24.02577164 36.3171283 -24.03941254 35.39567017 -24.0534668 34.44628906 C-24.06741989 33.63387756 -24.08137299 32.82146606 -24.0957489 31.98443604 C-24 30 -24 30 -23 28 C-25.64 28 -28.28 28 -31 28 C-31 27.01 -31 26.02 -31 25 C-28.36 25 -25.72 25 -23 25 C-23.16371094 24.47921875 -23.32742188 23.9584375 -23.49609375 23.421875 C-24.14058659 20.3243125 -24.09411589 17.41158906 -24.0625 14.25 C-24.05347656 13.07953125 -24.04445313 11.9090625 -24.03515625 10.703125 C-24.02355469 9.81109375 -24.01195312 8.9190625 -24 8 C-18.94022411 5.67595596 -14.04287388 4.12220854 -8.625 2.875 C-3.93841469 2.14025555 -3.93841469 2.14025555 0 0 Z " fill="#FEFEFE" transform="translate(860,65)"/>
<path d="M0 0 C4.81087559 2.09102624 6.74084993 5.35234775 8.79296875 10.140625 C9.9185597 14.94996817 9.92012805 17.09734657 7.85546875 21.703125 C5.64151536 25.25628796 3.52565795 26.7556593 -0.51953125 28.078125 C-4.48214891 28.63086735 -7.72475838 28.41632622 -11.45703125 26.828125 C-13.71018293 24.91635994 -14.22003108 23.9732933 -14.51953125 21.078125 C-15.17953125 21.078125 -15.83953125 21.078125 -16.51953125 21.078125 C-16.51953125 18.438125 -16.51953125 15.798125 -16.51953125 13.078125 C-13.05453125 12.583125 -13.05453125 12.583125 -9.51953125 12.078125 C-9.51953125 10.428125 -9.51953125 8.778125 -9.51953125 7.078125 C-13.92165663 6.67440791 -13.92165663 6.67440791 -17.70703125 8.703125 C-23.28024803 16.00596078 -23.67087608 22.93522983 -23.8359375 31.75390625 C-23.8567186 32.6790654 -23.87749969 33.60422455 -23.89891052 34.55741882 C-23.96409685 37.50174807 -24.02314683 40.44616365 -24.08203125 43.390625 C-24.12524589 45.39128483 -24.16886111 47.39193606 -24.21289062 49.39257812 C-24.31974645 54.28767279 -24.42110044 59.18285397 -24.51953125 64.078125 C-23.10800781 63.81708984 -23.10800781 63.81708984 -21.66796875 63.55078125 C-18.7683456 63.11547802 -17.23271475 63.1389461 -14.51953125 64.078125 C-14.51953125 65.068125 -14.51953125 66.058125 -14.51953125 67.078125 C-29.03953125 67.078125 -43.55953125 67.078125 -58.51953125 67.078125 C-58.84953125 65.758125 -59.17953125 64.438125 -59.51953125 63.078125 C-52.76953125 62.953125 -52.76953125 62.953125 -50.51953125 64.078125 C-50.55506104 62.97114258 -50.59059082 61.86416016 -50.62719727 60.72363281 C-51.90191511 20.24138246 -51.90191511 20.24138246 -50.51953125 4.078125 C-51.50953125 4.408125 -52.49953125 4.738125 -53.51953125 5.078125 C-55.52828567 4.80241361 -57.53131812 4.47576763 -59.51953125 4.078125 C-59.18953125 3.088125 -58.85953125 2.098125 -58.51953125 1.078125 C-41.19453125 0.583125 -41.19453125 0.583125 -23.51953125 0.078125 C-23.02453125 1.563125 -23.02453125 1.563125 -22.51953125 3.078125 C-20.39387903 2.43444158 -18.26902779 1.78811256 -16.14453125 1.140625 C-14.96117187 0.78097656 -13.7778125 0.42132813 -12.55859375 0.05078125 C-7.23166113 -1.65411107 -5.47667293 -1.73862633 0 0 Z M-23.14453125 5.578125 C-23.59828125 6.073125 -24.05203125 6.568125 -24.51953125 7.078125 C-24.18953125 8.068125 -23.85953125 9.058125 -23.51953125 10.078125 C-22.19953125 8.098125 -20.87953125 6.118125 -19.51953125 4.078125 C-21.64317606 3.85203163 -21.64317606 3.85203163 -23.14453125 5.578125 Z " fill="#FEFEFE" transform="translate(457.51953125,88.921875)"/>
<path d="M0 0 C0 0.66 0 1.32 0 2 C0.99 1.67 1.98 1.34 3 1 C5.6640625 2.14453125 5.6640625 2.14453125 8.625 3.8125 C10.09839844 4.62654297 10.09839844 4.62654297 11.6015625 5.45703125 C14 7 14 7 15 9 C15.845625 9.495 16.69125 9.99 17.5625 10.5 C18.366875 10.995 19.17125 11.49 20 12 C20 12.66 20 13.32 20 14 C20.66 14 21.32 14 22 14 C22.495 15.485 22.495 15.485 23 17 C23.66 17.33 24.32 17.66 25 18 C31.26499963 28.50903163 33.30177979 40.8782323 32 53 C31.01 53.99 31.01 53.99 30 55 C29.505 46.09 29.505 46.09 29 37 C28.01 39.97 28.01 39.97 27 43 C26.34 43 25.68 43 25 43 C24.875 38.25 24.875 38.25 26 36 C25.06553465 33.96855359 24.06775224 31.96466413 23 30 C22.34 30 21.68 30 21 30 C21 28.68 21 27.36 21 26 C20.34 26 19.68 26 19 26 C16 21.61538462 16 21.61538462 16 19 C15.505 18.01 15.505 18.01 15 17 C16.32 16.67 17.64 16.34 19 16 C19 15.01 19 14.02 19 13 C17.3603125 12.62875 17.3603125 12.62875 15.6875 12.25 C11.76412967 10.92004396 11.20063689 10.24855921 9 7 C6.90584196 6.20376178 6.90584196 6.20376178 5 6 C5 5.34 5 4.68 5 4 C3.68 4 2.36 4 1 4 C1 4.99 1 5.98 1 7 C0.01 6.67 -0.98 6.34 -2 6 C-2.33 6.99 -2.66 7.98 -3 9 C-2.34 9 -1.68 9 -1 9 C-1.33 16.59 -1.66 24.18 -2 32 C5.10606382 31.80244425 5.10606382 31.80244425 12.21020508 31.54956055 C14.88314325 31.51187929 17.36445636 31.538181 20 32 C22.26759237 34.46897713 23 35.67196358 23 39 C22.01 39 21.02 39 20 39 C19.67 39.99 19.34 40.98 19 42 C19.020625 41.030625 19.04125 40.06125 19.0625 39.0625 C19.35618499 36.12534105 19.35618499 36.12534105 18 35 C16.60730358 34.9255143 15.21093808 34.91670549 13.81640625 34.9375 C12.54893555 34.94910156 12.54893555 34.94910156 11.25585938 34.9609375 C9.46419189 34.98692253 7.67252521 35.01296394 5.88085938 35.0390625 C4.61145508 35.05066406 4.61145508 35.05066406 3.31640625 35.0625 C2.53724854 35.07410156 1.75809082 35.08570313 0.95532227 35.09765625 C-1 35 -1 35 -3 34 C-3.33 26.74 -3.66 19.48 -4 12 C-6.248125 11.95875 -8.49625 11.9175 -10.8125 11.875 C-12.07707031 11.85179688 -13.34164062 11.82859375 -14.64453125 11.8046875 C-18.1338024 11.72418082 -18.1338024 11.72418082 -21 14 C-21.50621513 16.02276681 -21.50621513 16.02276681 -21.51171875 18.3515625 C-21.54716797 19.20234375 -21.58261719 20.053125 -21.61914062 20.9296875 C-21.64169922 21.81914063 -21.66425781 22.70859375 -21.6875 23.625 C-21.72166016 24.5221875 -21.75582031 25.419375 -21.79101562 26.34375 C-21.87362402 28.56237538 -21.94272719 30.7805994 -22 33 C-26.27177124 35.11104974 -30.08669955 35.21075522 -34.75 35.0625 C-37.17158977 35.00093416 -39.57656454 34.97931214 -42 35 C-44.35927689 37.35927689 -43.98835102 42.49909392 -44.0625 45.6875 C-44.0625 48.12582948 -44.04414711 50.56209857 -44 53 C-44.66 52.67 -45.32 52.34 -46 52 C-46 46.72 -46 41.44 -46 36 C-47.65 36.66 -49.3 37.32 -51 38 C-51.66 37.67 -52.32 37.34 -53 37 C-53 38.32 -53 39.64 -53 41 C-51.68 41.33 -50.36 41.66 -49 42 C-49.33 42.66 -49.66 43.32 -50 44 C-51.65 43.67 -53.3 43.34 -55 43 C-54.98839844 43.62648437 -54.97679688 44.25296875 -54.96484375 44.8984375 C-54.95582031 45.71570313 -54.94679688 46.53296875 -54.9375 47.375 C-54.92589844 48.18710938 -54.91429688 48.99921875 -54.90234375 49.8359375 C-55 52 -55 52 -56 54 C-53.03 53.505 -53.03 53.505 -50 53 C-50.08378906 53.66386719 -50.16757813 54.32773438 -50.25390625 55.01171875 C-51.05425042 61.54720848 -51.05425042 61.54720848 -50 68 C-56.8020219 60.17767481 -58.06094279 51.09212647 -58 41 C-57.70121337 39.32679486 -57.37445923 37.65791109 -57 36 C-57 35.01 -57 34.02 -57 33 C-56.34 33 -55.68 33 -55 33 C-55.495 31.515 -55.495 31.515 -56 30 C-55.34 30 -54.68 30 -54 30 C-54.33 29.01 -54.66 28.02 -55 27 C-54.0625 24.8125 -54.0625 24.8125 -53 23 C-52.34 23 -51.68 23 -51 23 C-50.67 21.35 -50.34 19.7 -50 18 C-49.01 17.67 -48.02 17.34 -47 17 C-47 16.01 -47 15.02 -47 14 C-44.5859375 11.84375 -44.5859375 11.84375 -41.375 9.5 C-40.33085937 8.7265625 -39.28671875 7.953125 -38.2109375 7.15625 C-30.5326087 2 -30.5326087 2 -26 2 C-25.67 1.34 -25.34 0.68 -25 0 C-16.99324371 -1.68396065 -7.99401046 -1.63979702 0 0 Z " fill="#FBDC17" transform="translate(177,89)"/>
<path d="M0 0 C0.04898438 1.10859375 0.09796875 2.2171875 0.1484375 3.359375 C0.22349215 4.82294065 0.29903881 6.28648112 0.375 7.75 C0.4059375 8.47960937 0.436875 9.20921875 0.46875 9.9609375 C0.68949731 14.00797144 1.14920997 16.29841994 3 20 C9.27 20 15.54 20 22 20 C22 26.6 22 33.2 22 40 C22.99 40.33 23.98 40.66 25 41 C25.6875 43.0625 25.6875 43.0625 26 45 C27.32 45 28.64 45 30 45 C29.67 44.01 29.34 43.02 29 42 C30.65 42 32.3 42 34 42 C34 43.32 34 44.64 34 46 C32.35 46 30.7 46 29 46 C28.34 47.32 27.68 48.64 27 50 C25.68 49.67 24.36 49.34 23 49 C23.66 47.68 24.32 46.36 25 45 C23.02 45.495 23.02 45.495 21 46 C21 45.01 21 44.02 21 43 C20.01 43 19.02 43 18 43 C18 43.66 18 44.32 18 45 C19.32 45.66 20.64 46.32 22 47 C18.30545799 48.36834889 16.52410999 47.55716488 13 46 C11.88625 45.79375 10.7725 45.5875 9.625 45.375 C5.21897853 43.70375048 3.43882912 41.51103515 0.578125 37.875 C-1.04710358 35.7668168 -1.04710358 35.7668168 -4 34 C-6.28803119 28.39432359 -5.99077704 23.90449562 -5 18 C-6.65 18 -8.3 18 -10 18 C-10 14.37 -10 10.74 -10 7 C-8.68 6.67 -7.36 6.34 -6 6 C-6.33 5.67 -6.66 5.34 -7 5 C-7 3.68 -7 2.36 -7 1 C-2.25 0 -2.25 0 0 0 Z " fill="#FDDC08" transform="translate(131,125)"/>
<path d="M0 0 C1.32 0.33 2.64 0.66 4 1 C4 1.66 4 2.32 4 3 C5.1446875 3.12375 5.1446875 3.12375 6.3125 3.25 C9 4 9 4 10.4375 5.9375 C12.54626014 8.72106338 14.6966921 9.11911789 18 10 C18 10.99 18 11.98 18 13 C17.01 13.66 16.02 14.32 15 15 C15.66 15.66 16.32 16.32 17 17 C17 17.99 17 18.98 17 20 C17.33 20.99 17.66 21.98 18 23 C18.66 23 19.32 23 20 23 C20.66 23.99 21.32 24.98 22 26 C22.7425 27.0725 23.485 28.145 24.25 29.25 C25.4993363 31.40418649 26.04542023 32.51267882 25.8125 35.01171875 C25.25 36.9375 25.25 36.9375 24 40 C24.66 40 25.32 40 26 40 C25.9071875 38.8553125 25.9071875 38.8553125 25.8125 37.6875 C26.03403312 34.51219194 26.71775032 34.04264341 29 32 C29.05384521 34.29141286 29.09272087 36.58318188 29.125 38.875 C29.14820313 40.15117187 29.17140625 41.42734375 29.1953125 42.7421875 C29 46 29 46 27 48 C24 46 24 46 23.3125 43.375 C23.209375 42.59125 23.10625 41.8075 23 41 C21.35 40.67 19.7 40.34 18 40 C18.33 38.68 18.66 37.36 19 36 C19.99 36 20.98 36 22 36 C21.01 34.02 20.02 32.04 19 30 C18.40461426 30.00523682 17.80922852 30.01047363 17.19580078 30.01586914 C14.50554453 30.03661999 11.81530511 30.04965407 9.125 30.0625 C8.18785156 30.07087891 7.25070313 30.07925781 6.28515625 30.08789062 C4.94130859 30.09272461 4.94130859 30.09272461 3.5703125 30.09765625 C2.32918701 30.10551147 2.32918701 30.10551147 1.06298828 30.11352539 C-1 30 -1 30 -3 29 C-3.02894547 25.54168414 -3.04678 22.08339928 -3.0625 18.625 C-3.07087891 17.64015625 -3.07925781 16.6553125 -3.08789062 15.640625 C-3.09111328 14.69960937 -3.09433594 13.75859375 -3.09765625 12.7890625 C-3.10289307 11.91975098 -3.10812988 11.05043945 -3.11352539 10.15478516 C-3 8 -3 8 -2 6 C-2.66 6 -3.32 6 -4 6 C-3.67 4.68 -3.34 3.36 -3 2 C-2.67 2.66 -2.34 3.32 -2 4 C-1.34 2.68 -0.68 1.36 0 0 Z " fill="#FDDC07" transform="translate(178,92)"/>
<path d="M0 0 C3.63 0 7.26 0 11 0 C10.67 1.65 10.34 3.3 10 5 C11.32 5.66 12.64 6.32 14 7 C14 7.33 14 7.66 14 8 C13.07767578 8.07347656 13.07767578 8.07347656 12.13671875 8.1484375 C11.32847656 8.22320312 10.52023438 8.29796875 9.6875 8.375 C8.88699219 8.44460937 8.08648437 8.51421875 7.26171875 8.5859375 C4.72775559 8.89564426 4.72775559 8.89564426 2 11 C1.42251197 12.96361864 1.42251197 12.96361864 1.3125 15.125 C1.209375 16.40375 1.10625 17.6825 1 19 C-0.65 19 -2.3 19 -4 19 C-4 19.66 -4 20.32 -4 21 C-3.34 21 -2.68 21 -2 21 C-2 21.99 -2 22.98 -2 24 C-1.67 23.01 -1.34 22.02 -1 21 C-0.01 21 0.98 21 2 21 C1.98700099 24.1002637 1.80394218 26.9971961 1 30 C-3.40128204 33.5424953 -7.60823206 33.27888455 -13 33 C-13.14695313 32.07767578 -13.14695313 32.07767578 -13.296875 31.13671875 C-14.08599506 26.09577905 -14.08599506 26.09577905 -17 22.125 C-17.66 21.75375 -18.32 21.3825 -19 21 C-19.66 20.01 -20.32 19.02 -21 18 C-19.125 17.375 -19.125 17.375 -17 17 C-16.34 17.66 -15.68 18.32 -15 19 C-15.66 16.03 -16.32 13.06 -17 10 C-16.01 10 -15.02 10 -14 10 C-13.67 10.66 -13.34 11.32 -13 12 C-12.7834375 11.1028125 -12.7834375 11.1028125 -12.5625 10.1875 C-12.1127561 8.43849596 -11.57107659 6.71322977 -11 5 C-9.35 5 -7.7 5 -6 5 C-6 5.66 -6 6.32 -6 7 C-5.34 7 -4.68 7 -4 7 C-4 6.34 -4 5.68 -4 5 C-2.68733482 3.64631404 -1.35432675 2.31200404 0 1 C0 0.67 0 0.34 0 0 Z " fill="#FCDC06" transform="translate(152,91)"/>
<path d="M0 0 C2.5654594 2.5654594 2.54046087 4.47686668 3 8 C0.525 7.505 0.525 7.505 -2 7 C-1.21625 7.721875 -0.4325 8.44375 0.375 9.1875 C4.08507935 13.16258502 5 15.58484583 5 21 C3.35 21.66 1.7 22.32 0 23 C-0.99250545 28.70690634 -1.10477512 34.21408489 -1 40 C-1.66 39.67 -2.32 39.34 -3 39 C-3 33.72 -3 28.44 -3 23 C-4.65 23.66 -6.3 24.32 -8 25 C-8.66 24.67 -9.32 24.34 -10 24 C-10 25.32 -10 26.64 -10 28 C-8.68 28.33 -7.36 28.66 -6 29 C-6.33 29.66 -6.66 30.32 -7 31 C-8.65 30.67 -10.3 30.34 -12 30 C-11.98839844 30.62648437 -11.97679688 31.25296875 -11.96484375 31.8984375 C-11.95582031 32.71570313 -11.94679688 33.53296875 -11.9375 34.375 C-11.92589844 35.18710938 -11.91429688 35.99921875 -11.90234375 36.8359375 C-12 39 -12 39 -13 41 C-10.03 40.505 -10.03 40.505 -7 40 C-7.08378906 40.66386719 -7.16757813 41.32773438 -7.25390625 42.01171875 C-8.05425042 48.54720848 -8.05425042 48.54720848 -7 55 C-13.8020219 47.17767481 -15.06094279 38.09212647 -15 28 C-14.70121337 26.32679486 -14.37445923 24.65791109 -14 23 C-14 22.01 -14 21.02 -14 20 C-13.34 20 -12.68 20 -12 20 C-12.33 19.01 -12.66 18.02 -13 17 C-12.34 17 -11.68 17 -11 17 C-11.33 16.01 -11.66 15.02 -12 14 C-11.0625 11.8125 -11.0625 11.8125 -10 10 C-9.34 10 -8.68 10 -8 10 C-7.979375 9.278125 -7.95875 8.55625 -7.9375 7.8125 C-6.55987495 3.67962484 -3.60643381 2.21282492 0 0 Z " fill="#FCDC09" transform="translate(134,102)"/>
<path d="M0 0 C0.33 0 0.66 0 1 0 C0.96744792 1.98567708 0.93489583 3.97135417 0.90234375 5.95703125 C0.91736783 8.20305461 0.91736783 8.20305461 2 11 C1.5625 13.6875 1.5625 13.6875 1 16 C1.268125 15.360625 1.53625 14.72125 1.8125 14.0625 C3 12 3 12 6 11 C5.96519531 11.89460938 5.93039063 12.78921875 5.89453125 13.7109375 C5.64608656 24.80813343 7.26877536 32.70063186 13.01171875 42.1875 C14 44 14 44 14 46 C14.66 46 15.32 46 16 46 C16.33 46.99 16.66 47.98 17 49 C17.78375 49.78375 18.5675 50.5675 19.375 51.375 C22 54 22 54 23.4375 56.5 C25.49549243 59.79278789 27.94139692 61.62108649 31 64 C30.01 64.495 30.01 64.495 29 65 C28.649375 64.566875 28.29875 64.13375 27.9375 63.6875 C25.21514365 61.31641544 22.35241784 60.3283165 19 59 C19.99 58.505 19.99 58.505 21 58 C20.01 57.34 19.02 56.68 18 56 C17.8125 53.375 17.8125 53.375 18 51 C17.01 51 16.02 51 15 51 C13 48 13 48 13 45 C11.68 44.67 10.36 44.34 9 44 C9 43.34 9 42.68 9 42 C8.34 42 7.68 42 7 42 C7 42.99 7 43.98 7 45 C7.66 45 8.32 45 9 45 C9.33 46.32 9.66 47.64 10 49 C9.34 49 8.68 49 8 49 C8 48.01 8 47.02 8 46 C7.34 46 6.68 46 6 46 C3 40.375 3 40.375 3 37 C2.34 37 1.68 37 1 37 C0.87625 36.154375 0.7525 35.30875 0.625 34.4375 C0.08414353 31.01579856 0.08414353 31.01579856 -1.0234375 27.88671875 C-2.32586933 23.39706881 -2.29354373 19.01966422 -2.25 14.375 C-2.25773437 13.54226562 -2.26546875 12.70953125 -2.2734375 11.8515625 C-2.25944296 7.45727758 -2.05516597 3.99615606 0 0 Z " fill="#FBE137" transform="translate(22,68)"/>
<path d="M0 0 C0.66 0 1.32 0 2 0 C2 0.99 2 1.98 2 3 C5.63 2.67 9.26 2.34 13 2 C12.67 2.66 12.34 3.32 12 4 C9.93359375 4.6328125 9.93359375 4.6328125 7.4375 5.125 C6.19806641 5.37636719 6.19806641 5.37636719 4.93359375 5.6328125 C4.29550781 5.75398438 3.65742187 5.87515625 3 6 C3 6.66 3 7.32 3 8 C2.01 8 1.02 8 0 8 C-0.33 8.99 -0.66 9.98 -1 11 C-1.639375 11.12375 -2.27875 11.2475 -2.9375 11.375 C-3.618125 11.58125 -4.29875 11.7875 -5 12 C-6.12085312 14.3430809 -6.12085312 14.3430809 -7 17 C-8.5 19.3125 -8.5 19.3125 -10 21 C-10.66 21 -11.32 21 -12 21 C-12.33 22.32 -12.66 23.64 -13 25 C-13.66 25 -14.32 25 -15 25 C-17 22 -17 22 -17 19 C-17.66 19 -18.32 19 -19 19 C-19 18.01 -19 17.02 -19 16 C-19.56203125 15.74476562 -20.1240625 15.48953125 -20.703125 15.2265625 C-23.29386482 13.84307219 -25.45107845 12.20061417 -27.75 10.375 C-28.54921875 9.74335937 -29.3484375 9.11171875 -30.171875 8.4609375 C-31.07679687 7.73777344 -31.07679687 7.73777344 -32 7 C-30.68 6.67 -29.36 6.34 -28 6 C-28 6.66 -28 7.32 -28 8 C-27.030625 8.12375 -26.06125 8.2475 -25.0625 8.375 C-24.051875 8.58125 -23.04125 8.7875 -22 9 C-21.67 9.66 -21.34 10.32 -21 11 C-21.33 11.66 -21.66 12.32 -22 13 C-20.7934375 13.433125 -20.7934375 13.433125 -19.5625 13.875 C-17 15 -17 15 -16 17 C-13.97536745 17.65213292 -13.97536745 17.65213292 -12 18 C-11.67 16.68 -11.34 15.36 -11 14 C-11.99 13.67 -12.98 13.34 -14 13 C-12.625 11 -12.625 11 -11 9 C-10.34 9 -9.68 9 -9 9 C-8.7525 8.38125 -8.505 7.7625 -8.25 7.125 C-6.76045906 4.5927804 -5.62418952 4.19281342 -3 3 C-2.46375 2.46375 -1.9275 1.9275 -1.375 1.375 C-0.92125 0.92125 -0.4675 0.4675 0 0 Z " fill="#FCDD31" transform="translate(116,37)"/>
<path d="M0 0 C1.67542976 0.28604898 3.34385343 0.61781233 5 1 C5 2.32 5 3.64 5 5 C3.02 5.99 3.02 5.99 1 7 C1 7.99 1 8.98 1 10 C0.525625 10.45375 0.05125 10.9075 -0.4375 11.375 C-2.44583349 13.46366683 -2.61869524 15.1783448 -3 18 C-3.66 18 -4.32 18 -5 18 C-5 18.99 -5 19.98 -5 21 C-5.66 21 -6.32 21 -7 21 C-6.773125 21.7425 -6.54625 22.485 -6.3125 23.25 C-6 26 -6 26 -7.25 28.3125 C-9 30 -9 30 -12 30 C-12.90894627 17.90596485 -8.14231692 10.44810427 -1 1 C-0.67 0.67 -0.34 0.34 0 0 Z " fill="#FBDC08" transform="translate(122,95)"/>
<path d="M0 0 C1.32 0.66 2.64 1.32 4 2 C3.01 2.99 2.02 3.98 1 5 C1.66 5.33 2.32 5.66 3 6 C-4.28571429 9.57142857 -4.28571429 9.57142857 -9 8 C-8.67 8.99 -8.34 9.98 -8 11 C-9.25682166 14.77046498 -10.74915196 15.7835127 -14 18 C-16.8125 18.75 -16.8125 18.75 -19 19 C-19.66 17.02 -20.32 15.04 -21 13 C-19.8803014 11.99406757 -18.7540588 10.9954151 -17.625 10 C-16.99851563 9.443125 -16.37203125 8.88625 -15.7265625 8.3125 C-14 7 -14 7 -12 7 C-11.5875 6.54625 -11.175 6.0925 -10.75 5.625 C-7.67427483 2.76896949 -4.11720912 2 0 2 C0 1.34 0 0.68 0 0 Z " fill="#F9E03E" transform="translate(147,78)"/>
<path d="M0 0 C2.1899142 2.1899142 2.73972043 2.96340505 3 6 C1.875 8.25 1.875 8.25 0 11 C-3.02510421 15.53765631 -5.54920647 19.87038697 -7.32421875 25.04296875 C-8 27 -8 27 -9.04296875 29.1875 C-10.35764973 33.05105227 -10.46181879 36.756767 -10.625 40.8125 C-10.66367188 41.60076172 -10.70234375 42.38902344 -10.7421875 43.20117188 C-10.83588844 45.1337538 -10.91900779 47.06684376 -11 49 C-11.33 49 -11.66 49 -12 49 C-12.09087891 47.95199219 -12.09087891 47.95199219 -12.18359375 46.8828125 C-12.26738281 45.97273438 -12.35117188 45.06265625 -12.4375 44.125 C-12.51871094 43.22007812 -12.59992188 42.31515625 -12.68359375 41.3828125 C-12.86989285 38.98889139 -12.86989285 38.98889139 -14 37 C-15.485 37.495 -15.485 37.495 -17 38 C-17 39.32 -17 40.64 -17 42 C-16.34 42 -15.68 42 -15 42 C-15.33 44.97 -15.66 47.94 -16 51 C-16.66 51 -17.32 51 -18 51 C-18.05849554 47.79174438 -18.09376162 44.58362767 -18.125 41.375 C-18.15013672 40.01955078 -18.15013672 40.01955078 -18.17578125 38.63671875 C-18.21201643 33.67249848 -17.96444146 29.65588093 -16 25 C-15.67 25 -15.34 25 -15 25 C-15.33 27.64 -15.66 30.28 -16 33 C-13.93597032 32.51294288 -13.93597032 32.51294288 -12 31 C-11.18129815 27.43793339 -11.18129815 27.43793339 -11 24 C-10.34 24 -9.68 24 -9 24 C-9 23.01 -9 22.02 -9 21 C-8.34 21 -7.68 21 -7 21 C-7.020625 20.236875 -7.04125 19.47375 -7.0625 18.6875 C-7 16 -7 16 -6 13 C-5.01 13 -4.02 13 -3 13 C-2.67 11.35 -2.34 9.7 -2 8 C-1.01 8 -0.02 8 1 8 C0.65213292 6.02463255 0.65213292 6.02463255 0 4 C-0.66 3.67 -1.32 3.34 -2 3 C-2 2.34 -2 1.68 -2 1 C-1.34 0.67 -0.68 0.34 0 0 Z " fill="#F6DE57" transform="translate(126,92)"/>
<path d="M0 0 C7.26 0.33 14.52 0.66 22 1 C22.33 7.93 22.66 14.86 23 22 C28.94 22 34.88 22 41 22 C40.34 22.99 39.68 23.98 39 25 C36.3984375 25.51171875 36.3984375 25.51171875 33.375 25.6875 C31.87066406 25.78611328 31.87066406 25.78611328 30.3359375 25.88671875 C29.17964844 25.94279297 29.17964844 25.94279297 28 26 C28 26.66 28 27.32 28 28 C26.68 28 25.36 28 24 28 C22.375 26.125 22.375 26.125 21 24 C20.34 23.34 19.68 22.68 19 22 C18.86474609 20.02880859 18.86474609 20.02880859 19.0234375 17.6484375 C19.06903809 16.88192871 19.11463867 16.11541992 19.16162109 15.32568359 C19.23203613 14.35195801 19.30245117 13.37823242 19.375 12.375 C19.58125 9.28125 19.7875 6.1875 20 3 C13.73 3 7.46 3 1 3 C0.67 2.01 0.34 1.02 0 0 Z " fill="#F6DD55" transform="translate(133,142)"/>
<path d="M0 0 C1.65 0.33 3.3 0.66 5 1 C5 1.66 5 2.32 5 3 C6.65 3.33 8.3 3.66 10 4 C10.33 4.99 10.66 5.98 11 7 C12.32303717 7.3721042 13.65737935 7.70630173 15 8 C15.33 8.66 15.66 9.32 16 10 C14.68 10 13.36 10 12 10 C12 11.65 12 13.3 12 15 C12.66 15 13.32 15 14 15 C14.99 16.98 15.98 18.96 17 21 C15.68 20.34 14.36 19.68 13 19 C13 18.01 13 17.02 13 16 C12.34 16 11.68 16 11 16 C10 15 9 14 8 13 C7.113125 12.484375 6.22625 11.96875 5.3125 11.4375 C4.549375 10.963125 3.78625 10.48875 3 10 C3 9.34 3 8.68 3 8 C2.0925 7.87625 1.185 7.7525 0.25 7.625 C-2.58970323 7.07890323 -4.52590591 6.42736197 -7 5 C-4.63188533 4.23882028 -3.3565335 3.89195955 -0.9375 4.625 C-0.298125 4.74875 0.34125 4.8725 1 5 C2.77190909 3.64555699 2.77190909 3.64555699 4 2 C2.68 2 1.36 2 0 2 C0 1.34 0 0.68 0 0 Z " fill="#F9DC3E" transform="translate(153,35)"/>
<path d="M0 0 C0.33 0.66 0.66 1.32 1 2 C2.89533342 2.46523063 2.89533342 2.46523063 5.0625 2.625 C6.361875 2.74875 7.66125 2.8725 9 3 C9.33 3.99 9.66 4.98 10 6 C11.32407669 6.68486725 12.65909241 7.34870203 14 8 C16.25 10 16.25 10 18 12 C18 12.66 18 13.32 18 14 C18.99 14 19.98 14 21 14 C21 15.98 21 17.96 21 20 C20.01 19.34 19.02 18.68 18 18 C17.01 17.67 16.02 17.34 15 17 C13.97980427 16.0206121 12.97850195 15.02104551 12 14 C11.34 13.67 10.68 13.34 10 13 C10 12.01 10 11.02 10 10 C8.02 9.34 6.04 8.68 4 8 C4 7.34 4 6.68 4 6 C2.68 6 1.36 6 0 6 C0 4.02 0 2.04 0 0 Z " fill="#FCDC0B" transform="translate(84,37)"/>
<path d="M0 0 C0.33 0 0.66 0 1 0 C0.96744792 1.98567708 0.93489583 3.97135417 0.90234375 5.95703125 C0.91736783 8.20305461 0.91736783 8.20305461 2 11 C1.5625 13.6875 1.5625 13.6875 1 16 C1.268125 15.360625 1.53625 14.72125 1.8125 14.0625 C3 12 3 12 6 11 C5.96519531 11.87140625 5.93039063 12.7428125 5.89453125 13.640625 C5.70619286 21.92751405 6.5627685 29.07899761 9 37 C8.34 37 7.68 37 7 37 C6.73445313 35.85660156 6.46890625 34.71320313 6.1953125 33.53515625 C5.83897547 32.04416709 5.48218096 30.55328721 5.125 29.0625 C4.95097656 28.30775391 4.77695312 27.55300781 4.59765625 26.77539062 C4.12755935 24.83406455 3.5695703 22.91450456 3 21 C2.34 20.67 1.68 20.34 1 20 C1 22.31 1 24.62 1 27 C0.01 26.67 -0.98 26.34 -2 26 C-2.05830787 22.60423938 -2.09369946 19.2086085 -2.125 15.8125 C-2.14175781 14.85279297 -2.15851562 13.89308594 -2.17578125 12.90429688 C-2.18222656 11.97294922 -2.18867188 11.04160156 -2.1953125 10.08203125 C-2.20578613 9.22843018 -2.21625977 8.3748291 -2.22705078 7.49536133 C-1.97204194 4.69273185 -1.15541422 2.55270581 0 0 Z " fill="#F7DF4D" transform="translate(22,68)"/>
<path d="M0 0 C0.99 0.33 1.98 0.66 3 1 C-8.39362461 9.54521846 -20.11553417 11.96108274 -34 10 C-37.03207916 9.42162652 -40.00078335 8.73751229 -43 8 C-43 7.34 -43 6.68 -43 6 C-45.31 5.34 -47.62 4.68 -50 4 C-46.18510326 2.53273202 -43.70988378 3.56663581 -40 5 C-40.33 3.68 -40.66 2.36 -41 1 C-40.01 1 -39.02 1 -38 1 C-38 1.99 -38 2.98 -38 4 C-36.68 3.67 -35.36 3.34 -34 3 C-34.33 4.32 -34.66 5.64 -35 7 C-30.37540756 8.17700048 -25.92133538 8.11408412 -21.1875 8.0625 C-20.39923828 8.05798828 -19.61097656 8.05347656 -18.79882812 8.04882812 C-16.86585239 8.03711312 -14.93291607 8.01917998 -13 8 C-13 7.34 -13 6.68 -13 6 C-11.68 6 -10.36 6 -9 6 C-8.34 4.35 -7.68 2.7 -7 1 C-6.505 1.99 -6.505 1.99 -6 3 C-2.75016865 1.91215032 -2.75016865 1.91215032 0 0 Z " fill="#F7E25A" transform="translate(190,167)"/>
<path d="M0 0 C1.32 0 2.64 0 4 0 C5.59765625 1.94140625 5.59765625 1.94140625 7.0625 4.5625 C7.57296875 5.47128906 8.0834375 6.38007812 8.609375 7.31640625 C10.25738767 10.49670035 11.6819736 13.67024909 13 17 C13.33 17.66 13.66 18.32 14 19 C13.34 19.99 12.68 20.98 12 22 C10.68 21.34 9.36 20.68 8 20 C8.33 19.34 8.66 18.68 9 18 C8.34 17.67 7.68 17.34 7 17 C5.96484375 15.29296875 5.96484375 15.29296875 4.9375 13.1875 C4.59589844 12.50042969 4.25429687 11.81335937 3.90234375 11.10546875 C3.03464006 9.08082681 2.46830928 7.14842919 2 5 C1.34 5 0.68 5 0 5 C0 3.35 0 1.7 0 0 Z " fill="#FCDB0E" transform="translate(165,45)"/>
<path d="M0 0 C0.66 0.33 1.32 0.66 2 1 C1 4 1 4 -1 6 C-1.16687448 8.58354218 -1.16687448 8.58354218 -1 11 C-1.99 11 -2.98 11 -4 11 C-4 14.3 -4 17.6 -4 21 C-3.34 21.33 -2.68 21.66 -2 22 C-2.99 22.33 -3.98 22.66 -5 23 C-5 25.31 -5 27.62 -5 30 C-5.99 29.34 -6.98 28.68 -8 28 C-7.814375 26.906875 -7.62875 25.81375 -7.4375 24.6875 C-6.7421932 21.06375867 -6.7421932 21.06375867 -8 18 C-7.83988879 15.29876894 -7.39559392 12.68124769 -7 10 C-6.34 10 -5.68 10 -5 10 C-4.80664062 9.36191406 -4.61328125 8.72382812 -4.4140625 8.06640625 C-4.15367188 7.24011719 -3.89328125 6.41382813 -3.625 5.5625 C-3.36976562 4.73878906 -3.11453125 3.91507813 -2.8515625 3.06640625 C-2 1 -2 1 0 0 Z " fill="#FCDB08" transform="translate(30,57)"/>
<path d="M0 0 C1.15242188 0.00902344 2.30484375 0.01804687 3.4921875 0.02734375 C4.36101562 0.03894531 5.22984375 0.05054687 6.125 0.0625 C6.125 0.3925 6.125 0.7225 6.125 1.0625 C3.485 1.0625 0.845 1.0625 -1.875 1.0625 C-1.875 1.7225 -1.875 2.3825 -1.875 3.0625 C-6.33 3.5575 -6.33 3.5575 -10.875 4.0625 C-11.205 5.0525 -11.535 6.0425 -11.875 7.0625 C-10.885 7.0625 -9.895 7.0625 -8.875 7.0625 C-8.875 6.4025 -8.875 5.7425 -8.875 5.0625 C-6.4 5.5575 -6.4 5.5575 -3.875 6.0625 C-7.14045761 7.94641785 -10.15611761 8.55537967 -13.875 9.0625 C-13.875 8.0725 -13.875 7.0825 -13.875 6.0625 C-15.091875 6.536875 -16.30875 7.01125 -17.5625 7.5 C-20.64768791 8.66174038 -23.60621198 9.55175187 -26.875 10.0625 C-24.7364515 7.9239515 -23.74224686 7.63594937 -20.875 7.0625 C-20.875 6.4025 -20.875 5.7425 -20.875 5.0625 C-19.67231319 4.40621151 -18.46247446 3.76302495 -17.25 3.125 C-16.57710937 2.76535156 -15.90421875 2.40570313 -15.2109375 2.03515625 C-10.26413392 -0.0246332 -5.2941727 -0.05402217 0 0 Z " fill="#F7DD45" transform="translate(65.875,31.9375)"/>
<path d="M0 0 C6.6 0 13.2 0 20 0 C20 0.66 20 1.32 20 2 C14.39 2 8.78 2 3 2 C3 6.95 3 11.9 3 17 C2.34 17 1.68 17 1 17 C0.67 18.32 0.34 19.64 0 21 C0 14.07 0 7.14 0 0 Z " fill="#F8DE43" transform="translate(174,143)"/>
<path d="M0 0 C1.26328125 0.02707031 2.5265625 0.05414063 3.828125 0.08203125 C4.79234375 0.11683594 5.7565625 0.15164062 6.75 0.1875 C6.75 0.5175 6.75 0.8475 6.75 1.1875 C5.91855469 1.23648438 5.08710938 1.28546875 4.23046875 1.3359375 C3.14378906 1.41070312 2.05710938 1.48546875 0.9375 1.5625 C-0.14144531 1.63210937 -1.22039062 1.70171875 -2.33203125 1.7734375 C-5.43626186 1.99945733 -5.43626186 1.99945733 -8.25 4.1875 C-8.75621513 6.21026681 -8.75621513 6.21026681 -8.76171875 8.5390625 C-8.79716797 9.38984375 -8.83261719 10.240625 -8.86914062 11.1171875 C-8.90297852 12.45136719 -8.90297852 12.45136719 -8.9375 13.8125 C-8.97166016 14.7096875 -9.00582031 15.606875 -9.04101562 16.53125 C-9.12362402 18.74987538 -9.19272719 20.9680994 -9.25 23.1875 C-13.875 25.3125 -13.875 25.3125 -17.25 24.1875 C-16.46625 24.043125 -15.6825 23.89875 -14.875 23.75 C-12.09843237 22.47213143 -12.09843237 22.47213143 -11.47265625 20.05078125 C-10.98164391 17.76775309 -10.56887599 15.50054073 -10.25 13.1875 C-11.24 13.1875 -12.23 13.1875 -13.25 13.1875 C-13.58 14.5075 -13.91 15.8275 -14.25 17.1875 C-14.58 16.5275 -14.91 15.8675 -15.25 15.1875 C-14.92 14.5275 -14.59 13.8675 -14.25 13.1875 C-14.91 13.1875 -15.57 13.1875 -16.25 13.1875 C-16.25 12.5275 -16.25 11.8675 -16.25 11.1875 C-14.6 11.1875 -12.95 11.1875 -11.25 11.1875 C-11.3325 9.929375 -11.415 8.67125 -11.5 7.375 C-11.640625 5.23046875 -11.640625 5.23046875 -11.25 3.1875 C-7.98676147 -0.46732716 -4.67418356 -0.12983843 0 0 Z " fill="#FAE13D" transform="translate(164.25,98.8125)"/>
<path d="M0 0 C3.10347722 1.14943601 4.26941338 2.32467766 6.4375 4.9375 C8.85430235 7.82587354 10.79164946 9.16665684 14 11 C14 11.66 14 12.32 14 13 C15.32 13.33 16.64 13.66 18 14 C17.67 14.66 17.34 15.32 17 16 C14.13275314 15.42655063 13.1385485 15.1385485 11 13 C10.34 13 9.68 13 9 13 C9.34786708 14.97536745 9.34786708 14.97536745 10 17 C10.66 17.33 11.32 17.66 12 18 C8.33939179 17.41463247 6.45464836 15.916761 3.75 13.4375 C3.04359375 12.79683594 2.3371875 12.15617188 1.609375 11.49609375 C1.07828125 11.00238281 0.5471875 10.50867188 0 10 C0.99 10 1.98 10 3 10 C3.99 9.67 4.98 9.34 6 9 C3.28395285 6.12579877 3.28395285 6.12579877 0 4 C0 2.68 0 1.36 0 0 Z " fill="#F7DE47" transform="translate(57,138)"/>
<path d="M0 0 C1.65 0 3.3 0 5 0 C5 0.66 5 1.32 5 2 C5.99 1.67 6.98 1.34 8 1 C10.6640625 2.14453125 10.6640625 2.14453125 13.625 3.8125 C14.60726562 4.35519531 15.58953125 4.89789063 16.6015625 5.45703125 C19 7 19 7 20 9 C20.845625 9.495 21.69125 9.99 22.5625 10.5 C23.366875 10.995 24.17125 11.49 25 12 C25 12.66 25 13.32 25 14 C25.66 14 26.32 14 27 14 C27.33 15.32 27.66 16.64 28 18 C26.35 18.66 24.7 19.32 23 20 C22.01 19.01 21.02 18.02 20 17 C21.32 16.67 22.64 16.34 24 16 C24 15.01 24 14.02 24 13 C22.3603125 12.62875 22.3603125 12.62875 20.6875 12.25 C16.76412967 10.92004396 16.20063689 10.24855921 14 7 C11.90584196 6.20376178 11.90584196 6.20376178 10 6 C10 5.34 10 4.68 10 4 C6.7 3.34 3.4 2.68 0 2 C0 1.34 0 0.68 0 0 Z " fill="#F9E04E" transform="translate(172,89)"/>
<path d="M0 0 C0.33 0.99 0.66 1.98 1 3 C3.64 2.67 6.28 2.34 9 2 C9 3.32 9 4.64 9 6 C9.66 6 10.32 6 11 6 C10.67 4.68 10.34 3.36 10 2 C10.66 1.67 11.32 1.34 12 1 C12 3.64 12 6.28 12 9 C11.01 9 10.02 9 9 9 C9 8.34 9 7.68 9 7 C3.85308113 6.19515986 -1.23789145 5.72768858 -6.4375 5.4375 C-7.53481445 5.37272461 -7.53481445 5.37272461 -8.65429688 5.30664062 C-10.43604715 5.20183179 -12.21800402 5.10054479 -14 5 C-12 3 -12 3 -9.6875 2.91015625 C-7.89568431 3.0117272 -6.10401391 3.11589452 -4.3125 3.22265625 C-3.1678125 3.11244141 -3.1678125 3.11244141 -2 3 C-1.34 2.01 -0.68 1.02 0 0 Z " fill="#FCDC06" transform="translate(171,76)"/>
<path d="M0 0 C4.455 0.99 4.455 0.99 9 2 C9 2.99 9 3.98 9 5 C10.32 5 11.64 5 13 5 C12.33333333 6.33333333 11.66666667 7.66666667 11 9 C7.97580475 8.41196203 4.98241547 7.77321882 2 7 C2 6.34 2 5.68 2 5 C0.02 5 -1.96 5 -4 5 C-4 4.01 -4 3.02 -4 2 C-2.68 2 -1.36 2 0 2 C0 1.34 0 0.68 0 0 Z " fill="#F7DC2F" transform="translate(144,32)"/>
<path d="M0 0 C0.66 0 1.32 0 2 0 C2 0.99 2 1.98 2 3 C7.445 2.505 7.445 2.505 13 2 C12.67 2.66 12.34 3.32 12 4 C9.93359375 4.6328125 9.93359375 4.6328125 7.4375 5.125 C6.61121094 5.29257812 5.78492187 5.46015625 4.93359375 5.6328125 C4.29550781 5.75398438 3.65742187 5.87515625 3 6 C3 6.66 3 7.32 3 8 C2.01 8 1.02 8 0 8 C-0.33 8.66 -0.66 9.32 -1 10 C-1 8.68 -1 7.36 -1 6 C-2.1446875 6.7425 -2.1446875 6.7425 -3.3125 7.5 C-6 9 -6 9 -9 9 C-7.5993784 5.498446 -6.37735911 4.53516323 -3 3 C-2.46375 2.46375 -1.9275 1.9275 -1.375 1.375 C-0.92125 0.92125 -0.4675 0.4675 0 0 Z " fill="#F8DC4B" transform="translate(116,37)"/>
<path d="M0 0 C0.99 0 1.98 0 3 0 C4.17426264 2.34852528 4.11508173 3.73774065 4.09765625 6.3515625 C4.09443359 7.20234375 4.09121094 8.053125 4.08789062 8.9296875 C4.07951172 9.81914063 4.07113281 10.70859375 4.0625 11.625 C4.05798828 12.5221875 4.05347656 13.419375 4.04882812 14.34375 C4.03702591 16.56256648 4.02056155 18.78125018 4 21 C4.97610229 20.96072388 4.97610229 20.96072388 5.97192383 20.9206543 C8.91853723 20.81676138 11.86476601 20.7517008 14.8125 20.6875 C15.83666016 20.64560547 16.86082031 20.60371094 17.91601562 20.56054688 C20.69493527 20.51499082 23.2616257 20.52016227 26 21 C28.26759237 23.46897713 29 24.67196358 29 28 C28.01 28 27.02 28 26 28 C25.67 28.99 25.34 29.98 25 31 C25.020625 30.030625 25.04125 29.06125 25.0625 28.0625 C25.35618499 25.12534105 25.35618499 25.12534105 24 24 C22.60730358 23.9255143 21.21093808 23.91670549 19.81640625 23.9375 C18.54893555 23.94910156 18.54893555 23.94910156 17.25585938 23.9609375 C15.46419189 23.98692253 13.67252521 24.01296394 11.88085938 24.0390625 C11.03458984 24.04679687 10.18832031 24.05453125 9.31640625 24.0625 C8.53724854 24.07410156 7.75809082 24.08570312 6.95532227 24.09765625 C5 24 5 24 3 23 C2.67 15.74 2.34 8.48 2 1 C1.34 0.67 0.68 0.34 0 0 Z " fill="#F1DC69" transform="translate(171,100)"/>
<path d="M0 0 C0.33 0 0.66 0 1 0 C1.37005772 4.31734008 0.35225203 6.42457691 -2 10 C-2.33 10.99 -2.66 11.98 -3 13 C-2.34 13 -1.68 13 -1 13 C-0.3125 15.25 -0.3125 15.25 0 18 C-1.25 20.3125 -1.25 20.3125 -3 22 C-3.99 22 -4.98 22 -6 22 C-6.65727273 13.25462113 -4.84180355 7.26270533 0 0 Z " fill="#FBDC10" transform="translate(116,103)"/>
<path d="M0 0 C2.8729547 1.43647735 3.29088121 3.62050336 4.3359375 6.5234375 C5.52046508 10.94102858 5.75729157 15.44712467 6 20 C4.35 19.67 2.7 19.34 1 19 C1.99 18.67 2.98 18.34 4 18 C3.67 16.35 3.34 14.7 3 13 C3 13.66 3 14.32 3 15 C2.34 15 1.68 15 1 15 C1 13.68 1 12.36 1 11 C0.34 11 -0.32 11 -1 11 C-1.33 7.7 -1.66 4.4 -2 1 C-1.34 0.67 -0.68 0.34 0 0 Z " fill="#F9DA30" transform="translate(179,67)"/>
<path d="M0 0 C0.66 0 1.32 0 2 0 C2 0.66 2 1.32 2 2 C2.61875 2.04125 3.2375 2.0825 3.875 2.125 C4.57625 2.41375 5.2775 2.7025 6 3 C7.25 6.0625 7.25 6.0625 8 9 C8.99 9 9.98 9 11 9 C11.33 10.65 11.66 12.3 12 14 C12.66 13.67 13.32 13.34 14 13 C14 13.99 14 14.98 14 16 C12.68 16.33 11.36 16.66 10 17 C9.7525 16.05125 9.505 15.1025 9.25 14.125 C8.32970141 10.9323374 8.32970141 10.9323374 6 9.75 C5.34 9.5025 4.68 9.255 4 9 C3.34 8.34 2.68 7.68 2 7 C2 5.68 2 4.36 2 3 C1.34 3 0.68 3 0 3 C0 2.01 0 1.02 0 0 Z " fill="#FCDC07" transform="translate(29,110)"/>
<path d="M0 0 C2.475 0.495 2.475 0.495 5 1 C5 1.66 5 2.32 5 3 C5.969375 3.268125 6.93875 3.53625 7.9375 3.8125 C8.948125 4.204375 9.95875 4.59625 11 5 C11.33 5.99 11.66 6.98 12 8 C12.99 8.33 13.98 8.66 15 9 C14.34 9.66 13.68 10.32 13 11 C9.82719649 10.56237193 6.94332389 9.22638495 4 8 C4 7.01 4 6.02 4 5 C3.34 5 2.68 5 2 5 C1.34 3.35 0.68 1.7 0 0 Z " fill="#FADB17" transform="translate(65,150)"/>
<path d="M0 0 C0.33 0 0.66 0 1 0 C1.19448477 2.12437212 1.38038289 4.24953191 1.5625 6.375 C1.66691406 7.55835938 1.77132812 8.74171875 1.87890625 9.9609375 C2 13 2 13 1 15 C2.98 14.67 4.96 14.34 7 14 C6.87431641 14.99580078 6.87431641 14.99580078 6.74609375 16.01171875 C5.94574958 22.54720848 5.94574958 22.54720848 7 29 C0.20426219 21.18490152 -1.06700609 12.09111786 -1 2 C-0.67 1.34 -0.34 0.68 0 0 Z " fill="#F7E056" transform="translate(120,128)"/>
<path d="M0 0 C1.4921875 1.16015625 1.4921875 1.16015625 3 3 C3.2578125 5.55859375 3.2578125 5.55859375 3.125 8.4375 C2.98329076 11.90937636 3.16038349 14.64889901 4 18 C3.67 18.66 3.34 19.32 3 20 C2.01 19.67 1.02 19.34 0 19 C-0.83796731 14.34462607 -1.0161692 10.62921525 0 6 C-0.66 6 -1.32 6 -2 6 C-2 4.68 -2 3.36 -2 2 C-1.34 2 -0.68 2 0 2 C0 1.34 0 0.68 0 0 Z " fill="#FBDC12" transform="translate(111,128)"/>
<path d="M0 0 C0.99 0.33 1.98 0.66 3 1 C3.99 6.28 4.98 11.56 6 17 C6.66 17 7.32 17 8 17 C7.67 17.66 7.34 18.32 7 19 C4.5625 17.875 4.5625 17.875 2 16 C1.375 12.9375 1.375 12.9375 1 10 C0.01 9.34 -0.98 8.68 -2 8 C-1.67 7.67 -1.34 7.34 -1 7 C-0.63239269 4.67182036 -0.29758419 2.3381615 0 0 Z " fill="#FCDC0A" transform="translate(23,88)"/>
<path d="M0 0 C3.27075883 -0.0580476 6.54138524 -0.09361165 9.8125 -0.125 C10.74126953 -0.14175781 11.67003906 -0.15851563 12.62695312 -0.17578125 C13.51962891 -0.18222656 14.41230469 -0.18867187 15.33203125 -0.1953125 C16.15421143 -0.20578613 16.9763916 -0.21625977 17.82348633 -0.22705078 C20 0 20 0 23 2 C23 2.66 23 3.32 23 4 C16.25 4.125 16.25 4.125 14 3 C12.55151418 2.91657841 11.09929131 2.89267139 9.6484375 2.90234375 C8.37226563 2.90717773 8.37226563 2.90717773 7.0703125 2.91210938 C6.18085938 2.92048828 5.29140625 2.92886719 4.375 2.9375 C3.02921875 2.94426758 3.02921875 2.94426758 1.65625 2.95117188 C-0.56256648 2.96297409 -2.78125018 2.97943845 -5 3 C-5 2.67 -5 2.34 -5 2 C-3.35 2 -1.7 2 0 2 C0 1.34 0 0.68 0 0 Z " fill="#F5DB4C" transform="translate(157,81)"/>
<path d="M0 0 C1.32 0 2.64 0 4 0 C4 0.66 4 1.32 4 2 C4.969375 2.12375 5.93875 2.2475 6.9375 2.375 C8.4534375 2.684375 8.4534375 2.684375 10 3 C10.33 3.66 10.66 4.32 11 5 C10.67 5.66 10.34 6.32 10 7 C10.78375 7.20625 11.5675 7.4125 12.375 7.625 C15 9 15 9 16.1875 12.0625 C16.455625 13.031875 16.72375 14.00125 17 15 C17.66 15.33 18.32 15.66 19 16 C19 16.99 19 17.98 19 19 C18.34 19 17.68 19 17 19 C15 16 15 16 15 13 C14.34 13 13.68 13 13 13 C13 12.01 13 11.02 13 10 C12.43796875 9.74347656 11.8759375 9.48695312 11.296875 9.22265625 C8.71960738 7.85074338 6.54832724 6.23635416 4.25 4.4375 C3.45078125 3.81746094 2.6515625 3.19742188 1.828125 2.55859375 C1.22484375 2.04425781 0.6215625 1.52992187 0 1 C0 0.67 0 0.34 0 0 Z " fill="#F2D859" transform="translate(84,43)"/>
<path d="M0 0 C1.67542976 0.28604898 3.34385343 0.61781233 5 1 C5 2.32 5 3.64 5 5 C5.78375 5.2475 6.5675 5.495 7.375 5.75 C10.32317108 7.15389099 10.9024777 8.00675737 12 11 C10.1875 11.625 10.1875 11.625 8 12 C7.01 11.34 6.02 10.68 5 10 C5 8.68 5 7.36 5 6 C4.38125 5.731875 3.7625 5.46375 3.125 5.1875 C1 4 1 4 -1 1 C-0.67 0.67 -0.34 0.34 0 0 Z " fill="#FCDC08" transform="translate(52,137)"/>
<path d="M0 0 C2 1 2 1 2.8515625 3.44921875 C4.8002674 11.60819027 5.90156863 19.60487395 5 28 C4.34 28.66 3.68 29.32 3 30 C3 23.4 3 16.8 3 10 C2.01 10 1.02 10 0 10 C0 6.7 0 3.4 0 0 Z " fill="#F6E96D" transform="translate(204,114)"/>
<path d="M0 0 C0.66 0 1.32 0 2 0 C3.89059585 5.06409602 5.53597673 9.50623854 5 15 C4.67 15.66 4.34 16.32 4 17 C4.66 17 5.32 17 6 17 C5.34 19.64 4.68 22.28 4 25 C3.34 25 2.68 25 2 25 C1.875 20.25 1.875 20.25 3 18 C2.649375 17.0925 2.29875 16.185 1.9375 15.25 C0.81974486 11.37511552 1.4398825 9.64027417 3 6 C2.34 6 1.68 6 1 6 C0.67 4.02 0.34 2.04 0 0 Z " fill="#F9DE28" transform="translate(200,107)"/>
<path d="M0 0 C1.65 0.33 3.3 0.66 5 1 C5 1.66 5 2.32 5 3 C6.65 3.33 8.3 3.66 10 4 C10.33 4.99 10.66 5.98 11 7 C12.32303717 7.3721042 13.65737935 7.70630173 15 8 C15.33 8.66 15.66 9.32 16 10 C14.02 9.34 12.04 8.68 10 8 C10 7.34 10 6.68 10 6 C7.69 5.67 5.38 5.34 3 5 C3.66 6.65 4.32 8.3 5 10 C4.34 10 3.68 10 3 10 C3 9.34 3 8.68 3 8 C2.0925 7.87625 1.185 7.7525 0.25 7.625 C-2.58970323 7.07890323 -4.52590591 6.42736197 -7 5 C-4.63188533 4.23882028 -3.3565335 3.89195955 -0.9375 4.625 C-0.298125 4.74875 0.34125 4.8725 1 5 C2.77190909 3.64555699 2.77190909 3.64555699 4 2 C2.68 2 1.36 2 0 2 C0 1.34 0 0.68 0 0 Z " fill="#F7DF55" transform="translate(153,35)"/>
<path d="M0 0 C6.93 0.495 6.93 0.495 14 1 C13.01 1.495 13.01 1.495 12 2 C13.98 2.66 15.96 3.32 18 4 C18 4.99 18 5.98 18 7 C16.68 7 15.36 7 14 7 C14 6.34 14 5.68 14 5 C13.01 5 12.02 5 11 5 C10.67 4.34 10.34 3.68 10 3 C6.37 3 2.74 3 -1 3 C-0.67 2.01 -0.34 1.02 0 0 Z " fill="#FCDA07" transform="translate(65,34)"/>
<path d="M0 0 C0.66 0.33 1.32 0.66 2 1 C2.6875 3.5 2.6875 3.5 3 6 C2.67 6.33 2.34 6.66 2 7 C2.66 7.66 3.32 8.32 4 9 C2.54207116 9.05399736 1.08357288 9.09279177 -0.375 9.125 C-1.18710938 9.14820313 -1.99921875 9.17140625 -2.8359375 9.1953125 C-5 9 -5 9 -7 7 C-6.34 6.01 -5.68 5.02 -5 4 C-2.375 3.8125 -2.375 3.8125 0 4 C0 2.68 0 1.36 0 0 Z " fill="#FDDB12" transform="translate(165,167)"/>
<path d="M0 0 C1.1446875 0.3403125 1.1446875 0.3403125 2.3125 0.6875 C2.3125 2.0075 2.3125 3.3275 2.3125 4.6875 C0.3125 6.6875 0.3125 6.6875 -2.125 6.75 C-3.3934375 6.7190625 -3.3934375 6.7190625 -4.6875 6.6875 C-5.6775 7.0175 -6.6675 7.3475 -7.6875 7.6875 C-4.79076087 -0.55706522 -4.79076087 -0.55706522 0 0 Z " fill="#FBDB13" transform="translate(124.6875,95.3125)"/>
<path d="M0 0 C0 0.99 0 1.98 0 3 C-1.27875 2.979375 -2.5575 2.95875 -3.875 2.9375 C-10.99120194 2.9375 -18.00357899 3.7111856 -25 5 C-24.34 4.34 -23.68 3.68 -23 3 C-22.01 3 -21.02 3 -20 3 C-19.67 2.34 -19.34 1.68 -19 1 C-12.8159722 -0.30060902 -6.28792678 -0.10141817 0 0 Z " fill="#F6DE53" transform="translate(171,88)"/>
<path d="M0 0 C5.98551772 1.50170462 11.61255621 2.94226163 17 6 C16.67 6.66 16.34 7.32 16 8 C14.68 7.67 13.36 7.34 12 7 C11.67 8.32 11.34 9.64 11 11 C9.35 10.67 7.7 10.34 6 10 C7.32 9.67 8.64 9.34 10 9 C9.67 8.01 9.34 7.02 9 6 C7.35 6 5.7 6 4 6 C3.67 5.01 3.34 4.02 3 3 C0.99983534 1.79117904 0.99983534 1.79117904 -1 1 C-0.67 0.67 -0.34 0.34 0 0 Z " fill="#F7DC4F" transform="translate(73,32)"/>
<path d="M0 0 C0.66 0.33 1.32 0.66 2 1 C1.67 1.99 1.34 2.98 1 4 C2.32 4 3.64 4 5 4 C5 4.66 5 5.32 5 6 C5.99 6 6.98 6 8 6 C8 4.35 8 2.7 8 1 C10.475 1.99 10.475 1.99 13 3 C11.68 3.33 10.36 3.66 9 4 C9.66 5.98 10.32 7.96 11 10 C10.34 10 9.68 10 9 10 C9 9.34 9 8.68 9 8 C8.34 7.938125 7.68 7.87625 7 7.8125 C2.81342164 6.67863503 -0.42550992 4.40368936 -4 2 C-2.125 0.9375 -2.125 0.9375 0 0 Z " fill="#F7DD4F" transform="translate(83,163)"/>
<path d="M0 0 C5.28 0 10.56 0 16 0 C15.01 1.485 15.01 1.485 14 3 C11.3984375 3.51171875 11.3984375 3.51171875 8.375 3.6875 C6.87066406 3.78611328 6.87066406 3.78611328 5.3359375 3.88671875 C4.56507813 3.92410156 3.79421875 3.96148437 3 4 C3 4.66 3 5.32 3 6 C1.68 6 0.36 6 -1 6 C-1.33 5.01 -1.66 4.02 -2 3 C-1.34 3 -0.68 3 0 3 C0 2.01 0 1.02 0 0 Z " fill="#F7DD41" transform="translate(158,164)"/>
<path d="M0 0 C6.39222099 3.08454195 8.96897977 7.70480413 12 14 C12.66 14 13.32 14 14 14 C15.2890625 15.53125 15.2890625 15.53125 16.625 17.5 C17.07101563 18.1496875 17.51703125 18.799375 17.9765625 19.46875 C18.31429687 19.9740625 18.65203125 20.479375 19 21 C10.46360725 17.46570165 4.67727132 7.59368755 0 0 Z " fill="#F8E161" transform="translate(31,118)"/>
<path d="M0 0 C0.804375 0.433125 0.804375 0.433125 1.625 0.875 C4.35280484 2.16711808 7.12612718 3.08558592 10 4 C10 5.98 10 7.96 10 10 C9.01 9.34 8.02 8.68 7 8 C6.01 7.67 5.02 7.34 4 7 C2.97980427 6.0206121 1.97850195 5.02104551 1 4 C0.34 3.67 -0.32 3.34 -1 3 C-0.67 2.01 -0.34 1.02 0 0 Z " fill="#FBDC04" transform="translate(95,47)"/>
<path d="M0 0 C0 0.33 0 0.66 0 1 C-2.64 1 -5.28 1 -8 1 C-8 1.66 -8 2.32 -8 3 C-9.41633336 3.16947579 -10.83308533 3.33545507 -12.25 3.5 C-13.43335938 3.63921875 -13.43335938 3.63921875 -14.640625 3.78125 C-17 4 -17 4 -21 4 C-20 2 -20 2 -17.25 0.875 C-11.64202665 -0.62986497 -5.75295051 -0.15571896 0 0 Z " fill="#F9DD4F" transform="translate(72,32)"/>
<path d="M0 0 C1.32 0.33 2.64 0.66 4 1 C3.67 2.98 3.34 4.96 3 7 C3.66 7 4.32 7 5 7 C5 7.66 5 8.32 5 9 C2.36 9 -0.28 9 -3 9 C-2.505 8.443125 -2.01 7.88625 -1.5 7.3125 C0.24754367 4.61837017 0.26218749 3.14624993 0 0 Z " fill="#FEE21D" transform="translate(142,115)"/>
<path d="M0 0 C0.99 0 1.98 0 3 0 C3 0.99 3 1.98 3 3 C4.32 2.67 5.64 2.34 7 2 C6.67 3.32 6.34 4.64 6 6 C3.36 6.33 0.72 6.66 -2 7 C-2 6.34 -2 5.68 -2 5 C-4.31 4.34 -6.62 3.68 -9 3 C-5.18510326 1.53273202 -2.70988378 2.56663581 1 4 C0.67 2.68 0.34 1.36 0 0 Z " fill="#FADD3E" transform="translate(149,168)"/>
<path d="M0 0 C0.33 0 0.66 0 1 0 C1 6.27 1 12.54 1 19 C-4 21 -4 21 -7 20 C-5.35 19.34 -3.7 18.68 -2 18 C-1.34 12.06 -0.68 6.12 0 0 Z " fill="#F7E565" transform="translate(154,103)"/>
<path d="M0 0 C0 1.65 0 3.3 0 5 C-0.969375 5.12375 -1.93875 5.2475 -2.9375 5.375 C-4.4534375 5.684375 -4.4534375 5.684375 -6 6 C-6.33 6.66 -6.66 7.32 -7 8 C-7.33 6.35 -7.66 4.7 -8 3 C-3.375 0 -3.375 0 0 0 Z " fill="#FADC16" transform="translate(115,43)"/>
<path d="M0 0 C1.32 0.33 2.64 0.66 4 1 C4 1.66 4 2.32 4 3 C4.86625 3.37125 4.86625 3.37125 5.75 3.75 C8.3002997 5.16683317 10.01785701 6.87627537 12 9 C11.01 9.33 10.02 9.66 9 10 C6.8125 8.6875 6.8125 8.6875 5 7 C5 6.34 5 5.68 5 5 C3.68 4.67 2.36 4.34 1 4 C0.67 2.68 0.34 1.36 0 0 Z " fill="#FBE047" transform="translate(90,40)"/>
<path d="M0 0 C-1.76755526 0.84026396 -3.53917263 1.67198722 -5.3125 2.5 C-6.29863281 2.9640625 -7.28476563 3.428125 -8.30078125 3.90625 C-11 5 -11 5 -14 5 C-14 4.34 -14 3.68 -14 3 C-16.97 2.505 -16.97 2.505 -20 2 C-18.1875 0.9375 -18.1875 0.9375 -16 0 C-15.01 0.33 -14.02 0.66 -13 1 C-13 1.66 -13 2.32 -13 3 C-11.68 3 -10.36 3 -9 3 C-9 2.34 -9 1.68 -9 1 C-3.375 -1.125 -3.375 -1.125 0 0 Z " fill="#F7DE57" transform="translate(114,172)"/>
<path d="M0 0 C1.65 0 3.3 0 5 0 C5 0.66 5 1.32 5 2 C5.66 2 6.32 2 7 2 C6.67 3.32 6.34 4.64 6 6 C4.35 5.67 2.7 5.34 1 5 C0.67 3.35 0.34 1.7 0 0 Z " fill="#FBDC0C" transform="translate(92,167)"/>
<path d="M0 0 C0.99 0 1.98 0 3 0 C4.17426264 2.34852528 4.11508173 3.73774065 4.09765625 6.3515625 C4.09443359 7.20234375 4.09121094 8.053125 4.08789062 8.9296875 C4.07951172 9.81914063 4.07113281 10.70859375 4.0625 11.625 C4.05798828 12.5221875 4.05347656 13.419375 4.04882812 14.34375 C4.03702591 16.56256648 4.02056155 18.78125018 4 21 C5.32 21.66 6.64 22.32 8 23 C7.01 23.33 6.02 23.66 5 24 C4.34 23.67 3.68 23.34 3 23 C2.67 15.74 2.34 8.48 2 1 C1.34 0.67 0.68 0.34 0 0 Z " fill="#F8E36A" transform="translate(171,100)"/>
<path d="M0 0 C0 0.66 0 1.32 0 2 C0.99 2 1.98 2 3 2 C3 2.66 3 3.32 3 4 C-4.425 3.01 -4.425 3.01 -12 2 C-12 1.34 -12 0.68 -12 0 C-10.56359829 -0.19573608 -9.12580496 -0.38127816 -7.6875 -0.5625 C-6.88699219 -0.66691406 -6.08648437 -0.77132812 -5.26171875 -0.87890625 C-3 -1 -3 -1 0 0 Z " fill="#F4DC44" transform="translate(76,37)"/>
<path d="M0 0 C1.98 0 3.96 0 6 0 C6 1.98 6 3.96 6 6 C5.01 6 4.02 6 3 6 C3 5.34 3 4.68 3 4 C1.68 4 0.36 4 -1 4 C-0.67 2.68 -0.34 1.36 0 0 Z " fill="#FCDC0A" transform="translate(85,163)"/>
<path d="M0 0 C2.475 0.99 2.475 0.99 5 2 C4 5 4 5 2.15234375 6.16796875 C1.42144531 6.50441406 0.69054688 6.84085938 -0.0625 7.1875 C-0.79597656 7.53167969 -1.52945313 7.87585937 -2.28515625 8.23046875 C-2.85105469 8.48441406 -3.41695312 8.73835938 -4 9 C-3.625 7.0625 -3.625 7.0625 -3 5 C-2.34 4.67 -1.68 4.34 -1 4 C-0.34786708 1.97536745 -0.34786708 1.97536745 0 0 Z " fill="#FBDC09" transform="translate(34,46)"/>
<path d="M0 0 C1.60294922 0.01353516 1.60294922 0.01353516 3.23828125 0.02734375 C4.04652344 0.03894531 4.85476562 0.05054688 5.6875 0.0625 C5.3575 1.0525 5.0275 2.0425 4.6875 3.0625 C3.49125 2.876875 2.295 2.69125 1.0625 2.5 C-1.84262524 2.11883109 -3.732193 2.13244883 -6.6875 2.625 C-7.55375 2.769375 -8.42 2.91375 -9.3125 3.0625 C-9.9725 2.4025 -10.6325 1.7425 -11.3125 1.0625 C-7.47525828 0.15836327 -3.93747726 -0.04326898 0 0 Z " fill="#F3DA52" transform="translate(140.3125,36.9375)"/>
<path d="M0 0 C3.08943092 2.52771621 4.11644276 5.1444775 5 9 C4.01 10.485 4.01 10.485 3 12 C1 11 1 11 0.33203125 9.2578125 C0.16058594 8.55398437 -0.01085937 7.85015625 -0.1875 7.125 C-0.36667969 6.42632812 -0.54585937 5.72765625 -0.73046875 5.0078125 C-1 3 -1 3 0 0 Z " fill="#FADC05" transform="translate(174,55)"/>
<path d="M0 0 C0.33 0.66 0.66 1.32 1 2 C3.02463255 2.65213292 3.02463255 2.65213292 5 3 C4.67 4.32 4.34 5.64 4 7 C3.34 7 2.68 7 2 7 C2 6.34 2 5.68 2 5 C0.02 5 -1.96 5 -4 5 C-4 4.01 -4 3.02 -4 2 C-2.68 2 -1.36 2 0 2 C0 1.34 0 0.68 0 0 Z " fill="#FBDD09" transform="translate(144,32)"/>
<path d="M0 0 C0.66 0 1.32 0 2 0 C1.8595017 2.7920301 1.71284617 5.58349796 1.5625 8.375 C1.52318359 9.1690625 1.48386719 9.963125 1.44335938 10.78125 C1.11328125 16.7734375 1.11328125 16.7734375 0 19 C-1.8855253 17.1144747 -1.13246689 14.42231169 -1.13671875 11.91796875 C-1.13285156 11.12003906 -1.12898437 10.32210937 -1.125 9.5 C-1.12886719 8.70207031 -1.13273438 7.90414062 -1.13671875 7.08203125 C-1.12660767 1.12660767 -1.12660767 1.12660767 0 0 Z " fill="#F4DE57" transform="translate(132,123)"/>
<path d="M0 0 C0.66 0 1.32 0 2 0 C3.4606285 2.64738916 4 3.89448334 4 7 C2.68 7 1.36 7 0 7 C0 7.66 0 8.32 0 9 C-0.66 9 -1.32 9 -2 9 C-2.33 9.66 -2.66 10.32 -3 11 C-3 10.01 -3 9.02 -3 8 C-2.34 8 -1.68 8 -1 8 C-1.33 7.01 -1.66 6.02 -2 5 C-1.34 5 -0.68 5 0 5 C-0.33 4.01 -0.66 3.02 -1 2 C-0.67 1.34 -0.34 0.68 0 0 Z " fill="#F8D84C" transform="translate(123,114)"/>
<path d="M0 0 C-0.33 0.66 -0.66 1.32 -1 2 C-1.66 1.67 -2.32 1.34 -3 1 C-3 1.66 -3 2.32 -3 3 C-3.556875 3.12375 -4.11375 3.2475 -4.6875 3.375 C-7.09253508 3.96691862 -7.09253508 3.96691862 -9.625 5.125 C-10.40875 5.41375 -11.1925 5.7025 -12 6 C-12.66 5.67 -13.32 5.34 -14 5 C-14 4.01 -14 3.02 -14 2 C-12.906875 1.855625 -11.81375 1.71125 -10.6875 1.5625 C-0.44444444 0 -0.44444444 0 0 0 Z " fill="#F3DF55" transform="translate(152,84)"/>
<path d="M0 0 C1.32 0.33 2.64 0.66 4 1 C4.103125 1.78375 4.20625 2.5675 4.3125 3.375 C4.77595022 6.33045181 4.77595022 6.33045181 8 8 C8 8.66 8 9.32 8 10 C4.20401451 8.50871999 2.28279601 6.34266559 0 3 C0 2.01 0 1.02 0 0 Z " fill="#FDDA24" transform="translate(198,132)"/>
<path d="M0 0 C1.32 0 2.64 0 4 0 C4 1.32 4 2.64 4 4 C4.66 4 5.32 4 6 4 C5.67 5.32 5.34 6.64 5 8 C4.01 7.67 3.02 7.34 2 7 C2 6.01 2 5.02 2 4 C1.34 4 0.68 4 0 4 C0 2.68 0 1.36 0 0 Z " fill="#FCDC03" transform="translate(113,150)"/>
<path d="M0 0 C4.455 0.99 4.455 0.99 9 2 C9 2.99 9 3.98 9 5 C7.3125 5.6875 7.3125 5.6875 5 6 C2.25 4.75 2.25 4.75 0 3 C0 2.01 0 1.02 0 0 Z " fill="#FDDB2E" transform="translate(130,118)"/>
<path d="M0 0 C0.33 0 0.66 0 1 0 C1.37005772 4.31734008 0.35225203 6.42457691 -2 10 C-2.33 10.99 -2.66 11.98 -3 13 C-3.99 12.67 -4.98 12.34 -6 12 C-5.37853192 10.56096954 -4.75267941 9.12383207 -4.125 7.6875 C-3.77695313 6.88699219 -3.42890625 6.08648437 -3.0703125 5.26171875 C-2 3 -2 3 0 0 Z " fill="#F8E15D" transform="translate(116,103)"/>
<path d="M0 0 C2.32472205 2.85306797 3.7508258 5.54074837 5 9 C5.66 9 6.32 9 7 9 C7.33 9.99 7.66 10.98 8 12 C8.66 12.66 9.32 13.32 10 14 C8.68 14 7.36 14 6 14 C4 11 4 11 4 8 C3.34 8 2.68 8 2 8 C0.74335022 5.09399739 0 3.20395416 0 0 Z " fill="#F7DF53" transform="translate(31,105)"/>
<path d="M0 0 C1.75570312 0.01353516 1.75570312 0.01353516 3.546875 0.02734375 C4.43890625 0.03894531 5.3309375 0.05054687 6.25 0.0625 C6.25 0.3925 6.25 0.7225 6.25 1.0625 C5.29287109 1.15337891 5.29287109 1.15337891 4.31640625 1.24609375 C3.49011719 1.32988281 2.66382813 1.41367187 1.8125 1.5 C0.57693359 1.62181641 0.57693359 1.62181641 -0.68359375 1.74609375 C-2.73662025 1.85180815 -2.73662025 1.85180815 -3.75 3.0625 C-5.26928038 3.13429964 -6.79167482 3.14642007 -8.3125 3.125 C-9.13878906 3.11597656 -9.96507813 3.10695312 -10.81640625 3.09765625 C-11.45449219 3.08605469 -12.09257813 3.07445312 -12.75 3.0625 C-9.07453126 -0.61296874 -5.00479254 -0.05004793 0 0 Z " fill="#F7DE5F" transform="translate(136.75,31.9375)"/>
<path d="M0 0 C1.32 0.66 2.64 1.32 4 2 C4 2.66 4 3.32 4 4 C4.66 4 5.32 4 6 4 C6 5.65 6 7.3 6 9 C5.34 9 4.68 9 4 9 C3.34 7.35 2.68 5.7 2 4 C0.68 4 -0.64 4 -2 4 C-1.34 2.68 -0.68 1.36 0 0 Z " fill="#FDDB1C" transform="translate(192,111)"/>
<path d="M0 0 C2.125 0.9375 2.125 0.9375 4 2 C4 3.65 4 5.3 4 7 C1.5625 6.25 1.5625 6.25 -1 5 C-1.8125 2.875 -1.8125 2.875 -2 1 C-1.34 0.67 -0.68 0.34 0 0 Z " fill="#FBDB09" transform="translate(158,39)"/>
<path d="M0 0 C3 3.625 3 3.625 3 7 C4.32 7.33 5.64 7.66 7 8 C6.67 8.66 6.34 9.32 6 10 C3.03 9.505 3.03 9.505 0 9 C0 6.03 0 3.06 0 0 Z " fill="#FCDB20" transform="translate(121,123)"/>
<path d="M0 0 C0.99 0 1.98 0 3 0 C3 1.32 3 2.64 3 4 C-1.43076923 6.09230769 -1.43076923 6.09230769 -4.3125 5.625 C-4.869375 5.41875 -5.42625 5.2125 -6 5 C-5.67 4.34 -5.34 3.68 -5 3 C-3.35 3 -1.7 3 0 3 C0 2.01 0 1.02 0 0 Z " fill="#FADB08" transform="translate(111,167)"/>
<path d="M0 0 C0.66 0.33 1.32 0.66 2 1 C3 5 3 5 3 7 C1.02 7 -0.96 7 -3 7 C-1.125 2.25 -1.125 2.25 0 0 Z " fill="#FADC0B" transform="translate(117,160)"/>
<path d="M0 0 C1.32 1.32 2.64 2.64 4 4 C2.625 5.5 2.625 5.5 1 7 C0.34 7 -0.32 7 -1 7 C-1.66 5.02 -2.32 3.04 -3 1 C-2.01 0.67 -1.02 0.34 0 0 Z " fill="#FADD0F" transform="translate(129,90)"/>
<path d="M0 0 C0.66 0.33 1.32 0.66 2 1 C1.01 2.485 1.01 2.485 0 4 C-0.99 4 -1.98 4 -3 4 C-3.33 4.99 -3.66 5.98 -4 7 C-5.65 6.67 -7.3 6.34 -9 6 C-6.12050853 3.76039553 -3.23257974 1.70135776 0 0 Z " fill="#F3DC53" transform="translate(114,163)"/>
<path d="M0 0 C1.98362069 2.91708924 1.9876191 4.12380904 1.625 7.75 C1.41875 8.8225 1.2125 9.895 1 11 C0.34 11 -0.32 11 -1 11 C-1 9.02 -1 7.04 -1 5 C-1.66 4.67 -2.32 4.34 -3 4 C-2.34 4 -1.68 4 -1 4 C-0.67 2.68 -0.34 1.36 0 0 Z " fill="#FBDC2E" transform="translate(197,138)"/>
<path d="M0 0 C0.99 0 1.98 0 3 0 C2.67 1.98 2.34 3.96 2 6 C0.35 6 -1.3 6 -3 6 C-2 3 -2 3 0 0 Z " fill="#FDDC16" transform="translate(151,112)"/>
<path d="M0 0 C0.33 0.99 0.66 1.98 1 3 C0.67 3.66 0.34 4.32 0 5 C-2.97 4.505 -2.97 4.505 -6 4 C-5.67 3.01 -5.34 2.02 -5 1 C-2 0 -2 0 0 0 Z " fill="#FCDC04" transform="translate(138,86)"/>
<path d="M0 0 C1.32 0.33 2.64 0.66 4 1 C4.33 3.97 4.66 6.94 5 10 C4.34 9.67 3.68 9.34 3 9 C3.33 8.34 3.66 7.68 4 7 C3.34 6.67 2.68 6.34 2 6 C1.27306096 4.02111039 0.60183749 2.02045442 0 0 Z " fill="#F8DB57" transform="translate(170,56)"/>
<path d="M0 0 C0.33 0 0.66 0 1 0 C0.125 7.75 0.125 7.75 -1 10 C-1.99 9.67 -2.98 9.34 -4 9 C-2.68 6.03 -1.36 3.06 0 0 Z " fill="#F1DF5C" transform="translate(26,57)"/>
<path d="M0 0 C2.475 0.99 2.475 0.99 5 2 C5 2.66 5 3.32 5 4 C5.99 4 6.98 4 8 4 C8 4.99 8 5.98 8 7 C5 7 5 7 2.3125 4.625 C0 2 0 2 0 0 Z " fill="#FBDC1A" transform="translate(138,160)"/>
<path d="M0 0 C0.33 1.32 0.66 2.64 1 4 C0.34 4 -0.32 4 -1 4 C-1.66 5.32 -2.32 6.64 -3 8 C-3.66 8 -4.32 8 -5 8 C-3.8141763 4.62496331 -2.72426311 2.35277269 0 0 Z " fill="#FAE24F" transform="translate(122,95)"/>
<path d="M0 0 C1.32 0 2.64 0 4 0 C4 0.66 4 1.32 4 2 C6.97 2.495 6.97 2.495 10 3 C10 3.99 10 4.98 10 6 C2.42857143 3 2.42857143 3 0 0 Z " fill="#FADF3E" transform="translate(84,43)"/>
<path d="M0 0 C0.99 0.66 1.98 1.32 3 2 C-0.87684087 3.19287411 -3.91621923 4 -8 4 C-7 2 -7 2 -3.625 0.75 C-1.830625 0.37875 -1.830625 0.37875 0 0 Z " fill="#F5E165" transform="translate(59,32)"/>
<path d="M0 0 C2.4375 0.6875 2.4375 0.6875 5 2 C5.8125 4.625 5.8125 4.625 6 7 C2.58841744 5.86280581 1.88145399 4.95657056 0 2 C0 1.34 0 0.68 0 0 Z " fill="#FDDA16" transform="translate(133,113)"/>
<path d="M0 0 C2.16295027 2.16295027 2.5534013 3.05244857 3 6 C2.67 6.99 2.34 7.98 2 9 C0.68 8.67 -0.64 8.34 -2 8 C-1.01 8 -0.02 8 1 8 C0.65213292 6.02463255 0.65213292 6.02463255 0 4 C-0.66 3.67 -1.32 3.34 -2 3 C-2 2.34 -2 1.68 -2 1 C-1.34 0.67 -0.68 0.34 0 0 Z " fill="#F6DA46" transform="translate(126,92)"/>
<path d="M0 0 C0.33 0.99 0.66 1.98 1 3 C0.01 3.33 -0.98 3.66 -2 4 C-3.22520264 7.00847418 -3.22520264 7.00847418 -4 10 C-4.66 10 -5.32 10 -6 10 C-4.6302836 6.00499382 -2.74277578 3.19990508 0 0 Z " fill="#F8DC61" transform="translate(33,47)"/>
<path d="M0 0 C1.32 0.33 2.64 0.66 4 1 C3.67 1.33 3.34 1.66 3 2 C3.66 2.66 4.32 3.32 5 4 C2.03 4 -0.94 4 -4 4 C-2.68 3.67 -1.36 3.34 0 3 C0 2.01 0 1.02 0 0 Z " fill="#FBDA2C" transform="translate(164,172)"/>
<path d="M0 0 C2.475 0.495 2.475 0.495 5 1 C5.33 1.99 5.66 2.98 6 4 C4.68 4.33 3.36 4.66 2 5 C1.34 3.35 0.68 1.7 0 0 Z " fill="#FDDA04" transform="translate(65,150)"/>
<path d="M0 0 C0.99 0.495 0.99 0.495 2 1 C2.4140625 3.06640625 2.4140625 3.06640625 2.625 5.5625 C2.69976562 6.38878906 2.77453125 7.21507813 2.8515625 8.06640625 C2.92503906 9.02353516 2.92503906 9.02353516 3 10 C2.01 10 1.02 10 0 10 C0 6.7 0 3.4 0 0 Z " fill="#F7E250" transform="translate(204,114)"/>
<path d="M0 0 C0.66 0 1.32 0 2 0 C1.45773019 3.79588866 -0.20127563 5.47211993 -3 8 C-3 6.68 -3 5.36 -3 4 C-2.34 4 -1.68 4 -1 4 C-0.67 2.68 -0.34 1.36 0 0 Z " fill="#F7E446" transform="translate(36,51)"/>
<path d="M0 0 C2.31 0 4.62 0 7 0 C6.33333333 1.33333333 5.66666667 2.66666667 5 4 C3.68 4 2.36 4 1 4 C0.67 2.68 0.34 1.36 0 0 Z " fill="#FCDB03" transform="translate(150,37)"/>
<path d="M0 0 C1.32 0.33 2.64 0.66 4 1 C3.67 2.65 3.34 4.3 3 6 C2.01 5.67 1.02 5.34 0 5 C0 3.35 0 1.7 0 0 Z " fill="#FADD02" transform="translate(111,142)"/>
<path d="M0 0 C2 1 2 1 3.125 4.0625 C3.41375 5.031875 3.7025 6.00125 4 7 C3.01 7 2.02 7 1 7 C0.67 7.99 0.34 8.98 0 10 C0 6.7 0 3.4 0 0 Z " fill="#F8DE43" transform="translate(196,121)"/>
<path d="M0 0 C1.0326802 2.78823655 1.04509293 3.8677274 0.0625 6.75 C-0.288125 7.4925 -0.63875 8.235 -1 9 C-1.99 8.01 -2.98 7.02 -4 6 C-3.34 6 -2.68 6 -2 6 C-1.855625 5.195625 -1.71125 4.39125 -1.5625 3.5625 C-1 1 -1 1 0 0 Z " fill="#F8E550" transform="translate(128,106)"/>
<path d="M0 0 C1.32 0.33 2.64 0.66 4 1 C4 2.98 4 4.96 4 7 C3.01 7.495 3.01 7.495 2 8 C1.855625 7.05125 1.71125 6.1025 1.5625 5.125 C1.17064601 2.1065506 1.17064601 2.1065506 0 0 Z " fill="#F9DF63" transform="translate(21,97)"/>
<path d="M0 0 C0.66 0 1.32 0 2 0 C0.75023244 3.65316671 0.32901247 4.78065836 -3 7 C-3 5.35 -3 3.7 -3 2 C-2.01 2 -1.02 2 0 2 C0 1.34 0 0.68 0 0 Z " fill="#F7E04F" transform="translate(109,49)"/>
<path d="M0 0 C0.66 0 1.32 0 2 0 C0.86280581 3.41158256 -0.04342944 4.11854601 -3 6 C-3.66 6 -4.32 6 -5 6 C-4.67 4.68 -4.34 3.36 -4 2 C-2.68 2 -1.36 2 0 2 C0 1.34 0 0.68 0 0 Z " fill="#F8E24F" transform="translate(43,45)"/>
<path d="M0 0 C0.99 0.33 1.98 0.66 3 1 C2.01 1 1.02 1 0 1 C0 0.67 0 0.34 0 0 Z " fill="#FFFFFF" transform="translate(434,150)"/>
<path d="" fill="#FFFFFF" transform="translate(0,0)"/>
<path d="" fill="#FFFFFF" transform="translate(0,0)"/>
<path d="" fill="#FFFFFF" transform="translate(0,0)"/>
<path d="" fill="#FFFFFF" transform="translate(0,0)"/>
<path d="" fill="#FFFFFF" transform="translate(0,0)"/>
<path d="" fill="#FFFFFF" transform="translate(0,0)"/>
<path d="" fill="#FFFFFF" transform="translate(0,0)"/>
<path d="" fill="#FFFFFF" transform="translate(0,0)"/>
<path d="" fill="#FFFFFF" transform="translate(0,0)"/>
</svg>
